<?xml version="1.0" encoding="utf-8"?>
<!-- Generator: Adobe Illustrator 21.1.0, SVG Export Plug-In . SVG Version: 6.00 Build 0)  -->
<svg version="1.1" xmlns="http://www.w3.org/2000/svg" xmlns:xlink="http://www.w3.org/1999/xlink" x="0px" y="0px"
	 viewBox="0 0 270 77.8" style="enable-background:new 0 0 270 77.8;" xml:space="preserve">
<style type="text/css">
	.st0{fill:#3E973C;}
	.st1{opacity:0.5;fill:#CADB2B;}
	.st2{fill:#00BBD6;}
</style>
<g id="Black">
	<g>
		<path d="M125.1,24.2c0-3.7-0.7-6.7-1.9-9.2v-0.2h-0.1c0-0.1-0.1-0.3-0.1-0.4h-0.1v-0.1h-0.1c0-0.1-0.1-0.3-0.1-0.4
			c0,0-0.1,0-0.1-0.1c0-0.1-0.1-0.3-0.1-0.4c0,0-0.1,0-0.1-0.1v-0.1h-0.1V13h-0.1c0-0.1,0-0.1-0.1-0.2c0,0-0.1,0-0.1-0.1v-0.1
			c0,0-0.1,0-0.1-0.1v-0.1c-0.1,0-0.1-0.1-0.2-0.1v-0.1c-0.1-0.1-0.2-0.1-0.3-0.2v-0.1c-0.2-0.1-0.3-0.3-0.5-0.4v-0.1
			c-0.2-0.2-0.4-0.4-0.6-0.6c-0.1-0.1-0.2-0.2-0.3-0.3h-0.1c-0.3-0.4-0.7-0.7-1-1.1h-0.1c-0.2-0.2-0.4-0.5-0.6-0.7
			c-0.1,0-0.1,0-0.2-0.1c-0.1-0.1-0.1-0.2-0.2-0.3h-0.1c-0.1-0.1-0.1-0.2-0.2-0.3h-0.1c0,0,0-0.1-0.1-0.1H117c0,0,0-0.1-0.1-0.1
			h-0.1c0,0,0-0.1-0.1-0.1h-0.1c0-0.1-0.1-0.1-0.1-0.2h-0.1c0,0,0-0.1-0.1-0.1c-0.1,0-0.1,0-0.2-0.1V7h-0.1c0,0,0-0.1-0.1-0.1
			c-0.1,0-0.2,0-0.3-0.1c0,0,0-0.1-0.1-0.1c-0.1,0-0.2,0-0.3-0.1c0,0,0-0.1-0.1-0.1H115V6.3h-0.1V6.3h-0.1V6.2h-0.1V6.1h-0.1
			c0,0,0-0.1-0.1-0.1c-0.1,0-0.2,0-0.3-0.1V5.9c-0.1,0-0.2,0-0.3-0.1V5.7h-0.2V5.7c-0.1,0-0.3-0.1-0.4-0.1V5.4h-0.1V5.4h-0.1V5.3
			h-0.1V5.2h-0.2V5.2c-0.1,0-0.3-0.1-0.4-0.1V5h-0.1V4.9h-0.2V4.8c-0.1,0-0.2,0-0.3-0.1V4.7h-0.2V4.6c-0.1,0-0.2,0-0.3-0.1V4.5H111
			V4.4h-0.2V4.3c-0.1,0-0.2,0-0.3-0.1V4.2h-0.2V4.1c-0.1,0-0.2,0-0.3-0.1V4h-0.1V3.9h-0.2V3.9h-0.1V3.8c-0.1,0-0.2,0-0.3-0.1V3.7
			H109V3.6h-0.1V3.5h-0.2V3.4c-0.1,0-0.2,0-0.3-0.1V3.3h-0.2V3.2h-0.1V3.2h-0.2V3.1h-0.1V3c-0.2,0-0.4-0.1-0.6-0.1V2.8h-0.2V2.8
			h-0.2V2.7h-0.2V2.6h-0.2V2.5h-0.2V2.5h-0.2V2.4h-0.2V2.3c-0.3-0.1-0.6-0.1-0.9-0.2V2.1h-0.3V2h-0.2V1.9h-0.2V1.9h-0.3
			c-0.7-0.3-1.6-0.4-2.3-0.7c-0.2,0-0.4,0-0.6-0.1V1h-0.3V1h-0.3V0.9H100V0.8h-0.3V0.8c-0.2,0-0.5,0-0.7-0.1V0.6l-0.8-0.1
			c-0.4-0.1-0.9-0.2-1.3-0.3h-0.5V0.2h-0.6V0.1H95V0.1h-1V0h-3.7c-0.2,0.2-0.7,0-1,0.1v0.1h-0.7v0.1h-0.5v0.1h-0.5v0.1h-0.3v0.1
			h-0.3v0.1h-0.3v0.1h-0.3c-1.4,0.5-2.9,0.9-4.3,1.4c-0.5,0.2-1.1-0.1-1.6,0H80c-0.8,0.3-1.5,0.7-2.3,1h-0.4c-0.9,0.3-2.1-0.2-3,0.1
			H74v0.1h-0.1v0.1h-0.1c-0.5,0.3-1.1,1.4-0.7,2.2h0.1v0.1h0.1c0,0.1,0,0.2,0.1,0.3c0.3,0.5,1,0.9,1.5,1.2c-0.1,0.2-0.3,0.2-0.5,0.3
			c0,0.1-0.1,0.1-0.1,0.2H74c0,0.1-0.1,0.1-0.1,0.2h-0.1c0,0.1-0.1,0.1-0.1,0.2h-0.1c-0.1,0.1-0.1,0.2-0.2,0.3h-0.1
			C73,8.3,73,8.4,72.9,8.5h-0.1c-0.1,0.1-0.1,0.2-0.2,0.3h-0.1c-0.1,0.1-0.1,0.2-0.2,0.3h-0.1c-0.1,0.1-0.1,0.2-0.2,0.3h-0.1
			c-0.1,0.1-0.2,0.2-0.3,0.3h-0.1c-0.1,0.1-0.2,0.3-0.3,0.4h-0.1l-0.3,0.4h-0.1c-0.2,0.2-0.3,0.4-0.5,0.6h-0.1
			c-0.3,0.3-0.6,0.6-0.8,0.9h-0.1c-0.4,0.4-0.8,0.8-1.2,1.2c-0.1,0.1-0.3,0.2-0.4,0.3v0.1c-0.3,0.2-0.5,0.5-0.8,0.7v0.1L66,14.9V15
			c-0.1,0.1-0.3,0.2-0.4,0.3v0.1c-0.1,0.1-0.2,0.1-0.3,0.2v0.1c-0.1,0.1-0.2,0.1-0.3,0.2v0.1c-0.1,0.1-0.2,0.1-0.3,0.2v0.1
			c-0.1,0-0.1,0.1-0.2,0.1v0.1c-0.1,0-0.1,0.1-0.2,0.1v0.1c-0.1,0-0.1,0.1-0.2,0.1v0.1c0,0-0.1,0-0.1,0.1v0.1
			c-0.1,0-0.1,0.1-0.2,0.1v0.1c0,0-0.1,0-0.1,0.1v0.1c0,0-0.1,0-0.1,0.1c0,0.1,0,0.1-0.1,0.2h-0.1v0.1c0,0-0.1,0-0.1,0.1v0.1
			c0,0-0.1,0-0.1,0.1v0.1H63V19c0,0-0.1,0-0.1,0.1v0.1c0,0-0.1,0-0.1,0.1c0,0.1,0,0.2-0.1,0.3c0,0-0.1,0-0.1,0.1
			c0,0.1-0.1,0.3-0.1,0.4c0,0-0.1,0-0.1,0.1c0,0.1-0.1,0.3-0.1,0.4c0,0-0.1,0-0.1,0.1v0.1h-0.1v0.1h-0.1V21h-0.1v0.1h-0.1v0.1h-0.1
			v0.1h-0.1v0.1h-0.1v0.1h-0.1v0.1h-0.1V22h-0.1c0,0.1-0.1,0.3-0.1,0.4h-0.1c0,0.1,0,0.2-0.1,0.3h-0.1c0,0.1,0,0.2-0.1,0.3h-0.1
			c-0.1,0.4-0.3,0.8-0.4,1.2h-0.1v0.1h-0.1c0,0.1,0,0.3-0.1,0.4h-0.1V25H60v0.2H60v0.2h-0.1v0.2h-0.1v0.2h-0.1V26h-0.1v0.2h-0.1v0.3
			h-0.1v0.2h-0.1V27h-0.1v0.3h-0.1v0.3h-0.1v0.3h-0.1v0.3h-0.1c0,0.2,0,0.4-0.1,0.6H59v0.3c-0.2,0.5-0.2,1.1-0.3,1.7v0.5h-0.1v0.6
			h-0.1v0.7h-0.1c0,0.8,0,1.6-0.1,2.4v1h0.1v0.8h0.1v0.6h0.1v0.6h0.1v0.4c0.1,0.3,0.2,0.8,0.3,1.1v0.3c0.3,1.1,0.6,2.3,1,3.4H60v0.1
			H60c0,0.1,0,0.3,0.1,0.4h0.1c0,0.1,0,0.2,0.1,0.3h0.1c0,0.1,0,0.2,0.1,0.3h0.1v0.2h0.1v0.1h0.1c0,0.1,0,0.2,0.1,0.3h0.1v0.1h0.1
			v0.1h0.1v0.1h0.1v0.1H61v0.1h0.1v0.1h0.1v0.1h0.1V46h0.1v0.1h0.1v0.1h0.1v0.1c0,0,0.1,0,0.1,0.1c0,0.1,0.1,0.3,0.1,0.4
			c0,0,0.1,0,0.1,0.1c0,0.1,0,0.2,0.1,0.3c0,0,0.1,0,0.1,0.1v0.1h0.1v0.1c0,0,0.1,0,0.1,0.1v0.1c0,0,0.1,0,0.1,0.1V48
			c0,0,0.1,0,0.1,0.1c0,0.1,0,0.2,0.1,0.3h0.1c0,0.1,0,0.1,0.1,0.2c0,0,0.1,0,0.1,0.1v0.1c0.1,0,0.1,0.1,0.2,0.1v0.1
			c0,0,0.1,0,0.1,0.1c0,0.1,0,0.1,0.1,0.2h0.1v0.1c0.1,0,0.1,0.1,0.2,0.1v0.1c0.1,0,0.1,0.1,0.2,0.1V50c0.1,0,0.1,0.1,0.2,0.1v0.1
			c0.1,0,0.1,0.1,0.2,0.1v0.1c0.1,0.1,0.2,0.1,0.3,0.2v0.1c0.1,0.1,0.2,0.1,0.3,0.2v0.1c0.1,0.1,0.2,0.2,0.3,0.3v0.1
			c0.2,0.2,0.5,0.4,0.7,0.6c0.2,0.2,0.4,0.4,0.6,0.6h0.1c0,0.1,0.1,0.1,0.1,0.2c0.1,0,0.1,0,0.2,0.1c0,0,0,0.1,0.1,0.1H67l0.1,0.1
			h0.1c0,0.1,0.1,0.1,0.1,0.2c0.1,0,0.2,0,0.3,0.1v0.1c0.1,0,0.1,0,0.2,0.1c0,0,0,0.1,0.1,0.1H68l0.1,0.1c0.1,0,0.1,0,0.2,0.1v0.1
			c0.1,0,0.2,0,0.3,0.1c0,0,0,0.1,0.1,0.1c0.1,0,0.3,0.1,0.4,0.1c0,0,0,0.1,0.1,0.1c0.1,0,0.2,0,0.3,0.1v0.1h0.1V55
			c0.1,0,0.3,0.1,0.4,0.1v0.1h0.2v0.1c0.1,0,0.2,0,0.3,0.1v0.1h0.2v0.1h0.1v0.1c0.1,0,0.3,0,0.4,0.1v0.1h0.2v0.1h0.2v0.1h0.2v0.1H72
			V56c0.2,0,0.4,0,0.6,0.1v0.1h0.3v0.1h0.3v0.1h0.3v0.1h0.3v0.1H74c0.5,0.2,1.2,0.3,1.8,0.4h0.5v0.1h0.5v0.1h0.6V57h0.8v0.1h1
			c0.5,0.2,2.8,0.1,3.3,0h1.2V57h0.9v-0.1h0.8v-0.1h0.6v-0.1h0.6v-0.1h0.6v-0.1c0.5,0,1-0.1,1.5-0.1c1-0.3,2.3-0.4,3.3-0.7
			c0.2,0,0.5,0,0.7-0.1c1.2-0.4,2.5-0.6,3.7-1h0.3v-0.1h0.2v-0.1H97v-0.1h0.2v-0.1h0.2v-0.1h0.3v-0.1h0.2v-0.1h0.2v-0.1h0.2v-0.1
			c0.1,0,0.3,0,0.4-0.1V54h0.1v-0.1H99v-0.1h0.2v-0.1h0.2v-0.1h0.2v-0.1h0.1v-0.1c0.1,0,0.3,0,0.4-0.1v-0.1h0.1v-0.1
			c0.1,0,0.3,0,0.4-0.1v-0.1h0.1v-0.1h0.2v-0.1h0.1V53h0.2v-0.1h0.1v-0.1h0.2v-0.1c0.1,0,0.2,0,0.3-0.1v-0.1c0.1,0,0.2,0,0.3-0.1
			v-0.1h0.2v-0.1c0.1,0,0.2,0,0.3-0.1v-0.1h0.1v-0.1h0.2v-0.1c0.1,0,0.3-0.1,0.4-0.1V52h0.1v-0.1h0.2v-0.1h0.1v-0.1
			c0.1,0,0.2,0,0.3-0.1v-0.1h0.1v-0.1h0.1v-0.1h0.1v-0.1h0.1v-0.1h0.1v-0.1c0.1,0,0.2,0,0.3-0.1v-0.1c0.1,0,0.2,0,0.3-0.1V51
			c0.1,0,0.2,0,0.3-0.1v-0.1h0.1v-0.1h0.1v-0.1h0.1v-0.1h0.1v-0.1c0.1,0,0.2,0,0.3-0.1c0,0,0-0.1,0.1-0.1h0.1v-0.1h0.1v-0.1h0.1
			v-0.1h0.1c0,0,0-0.1,0.1-0.1c0.1,0,0.3-0.1,0.4-0.1c0,0,0-0.1,0.1-0.1c0.1,0,0.3-0.1,0.4-0.1c0,0,0-0.1,0.1-0.1
			c0.1,0,0.2,0,0.3-0.1c0,0,0-0.1,0.1-0.1c0.1,0,0.2,0,0.3-0.1l0.1-0.1c0.1,0,0.1,0,0.2-0.1v-0.1c0.1,0,0.2,0,0.3-0.1
			c0,0,0-0.1,0.1-0.1h0.1c0,0,0-0.1,0.1-0.1h0.1c0,0,0-0.1,0.1-0.1h0.1c0,0,0-0.1,0.1-0.1h0.1c0,0,0-0.1,0.1-0.1h0.1
			c0,0,0-0.1,0.1-0.1h0.1c0,0,0-0.1,0.1-0.1h0.1v-0.1c0.1,0,0.1,0,0.2-0.1c0,0,0-0.1,0.1-0.1h0.1c0-0.1,0.1-0.1,0.1-0.2h0.1
			c0,0,0-0.1,0.1-0.1h0.1c0-0.1,0.1-0.1,0.1-0.2h0.1c0-0.1,0.1-0.1,0.1-0.2h0.1c0-0.1,0.1-0.1,0.1-0.2h0.1c0-0.1,0.1-0.1,0.1-0.2
			h0.1c0.1-0.1,0.1-0.2,0.2-0.3h0.1c0.1-0.1,0.1-0.2,0.2-0.3h0.1c0.1-0.1,0.1-0.2,0.2-0.3h0.1c0.1-0.1,0.2-0.3,0.3-0.4h0.1l0.4-0.5
			h0.1l0.4-0.5c0.1-0.1,0.2-0.1,0.3-0.2V44h0.1c0.2-0.2,0.4-0.5,0.6-0.7c0.2-0.2,0.4-0.4,0.6-0.5v-0.1c0.3-0.2,0.5-0.5,0.8-0.7v-0.1
			l0.5-0.4v-0.1c0.1-0.1,0.2-0.2,0.3-0.3v-0.1c0.1-0.1,0.2-0.1,0.3-0.2v-0.1c0.1,0,0.1-0.1,0.2-0.1v-0.1c0.1-0.1,0.2-0.1,0.3-0.2
			c0-0.1,0-0.1,0.1-0.2c0,0,0.1,0,0.1-0.1v-0.1c0,0,0.1,0,0.1-0.1v-0.1c0.1,0,0.1-0.1,0.2-0.1v-0.1c0,0,0.1,0,0.1-0.1
			c0-0.1,0-0.1,0.1-0.2h0.1v-0.1c0,0,0.1,0,0.1-0.1c0-0.1,0-0.1,0.1-0.2h0.1v-0.1c0,0,0.1,0,0.1-0.1V38c0,0,0.1,0,0.1-0.1v-0.1
			c0,0,0.1,0,0.1-0.1v-0.1h0.1v-0.1c0,0,0.1,0,0.1-0.1c0-0.1,0.1-0.3,0.1-0.4c0,0,0.1,0,0.1-0.1c0-0.1,0.1-0.3,0.1-0.4
			c0,0,0.1,0,0.1-0.1v-0.1h0.1v-0.1h0.1V36h0.1v-0.1h0.1v-0.1h0.1v-0.1h0.1v-0.1h0.1v-0.1h0.1v-0.1h0.1c0-0.1,0.1-0.3,0.1-0.4h0.1
			v-0.2h0.1v-0.1h0.1c0-0.1,0-0.2,0.1-0.3h0.1V34h0.1v-0.1h0.1c0-0.1,0-0.2,0.1-0.3h0.1v-0.2h0.1v-0.1h0.1v-0.2h0.1v-0.1h0.1v-0.2
			h0.1v-0.1h0.1c0-0.1,0-0.3,0.1-0.4h0.1v-0.1h0.1c0-0.2,0.1-0.4,0.1-0.6h0.1v-0.1h0.1v-0.2h0.1v-0.2h0.1v-0.2h0.1v-0.3h0.1V30h0.1
			v-0.2h0.1v-0.3h0.1v-0.3h0.1V29h0.1v-0.3h0.1v-0.3h0.1l0.1-0.8C125.1,26.6,125.1,25.4,125.1,24.2z M117,24.9L117,24.9l-0.1,0.9
			h-0.1v0.6h-0.1v0.5h-0.1v0.4h-0.1v0.3h-0.1V28h-0.1v0.3h-0.1v0.3h-0.1c0,0.2,0,0.3-0.1,0.5h-0.1c0,0.2-0.1,0.5-0.1,0.7h-0.1v0.1
			H116V30h-0.1c0,0.1,0,0.3-0.1,0.4h-0.1v0.1h-0.1v0.2h-0.1c0,0.1,0,0.2-0.1,0.3h-0.1v0.1h-0.1v0.2h-0.1c0,0.1-0.1,0.3-0.1,0.4h-0.1
			V32h-0.1c0,0.1-0.1,0.3-0.1,0.4c0,0-0.1,0-0.1,0.1c0,0.1-0.1,0.3-0.1,0.4c0,0-0.1,0-0.1,0.1c0,0.1,0,0.2-0.1,0.3
			c0,0-0.1,0-0.1,0.1c0,0.1,0,0.2-0.1,0.3c0,0-0.1,0-0.1,0.1v0.1h-0.1c0,0.1,0,0.1-0.1,0.2c0,0-0.1,0-0.1,0.1v0.1
			c-0.1,0-0.1,0.1-0.2,0.1v0.1c0,0-0.1,0-0.1,0.1v0.1c-0.1,0-0.1,0.1-0.2,0.1v0.1c-0.1,0.1-0.2,0.1-0.3,0.2v0.1
			c-0.1,0.1-0.2,0.1-0.3,0.2v0.1c-0.1,0-0.1,0.1-0.2,0.1v0.1c0,0-0.1,0-0.1,0.1V36c-0.2,0.2-0.4,0.4-0.6,0.6v0.1
			c-0.3,0.2-0.5,0.5-0.8,0.7c-0.2,0.2-0.4,0.5-0.6,0.7h-0.1c-0.2,0.2-0.4,0.4-0.6,0.6h-0.1c-0.1,0.1-0.2,0.3-0.3,0.4h-0.1
			c0,0,0,0.1-0.1,0.1H109c0,0.1-0.1,0.1-0.1,0.2h-0.1c-0.1,0.1-0.1,0.2-0.2,0.3h-0.1c-0.1,0.1-0.1,0.2-0.2,0.3H108
			c0,0.1-0.1,0.1-0.1,0.2h-0.1c0,0.1-0.1,0.1-0.1,0.2h-0.1c0,0.1-0.1,0.1-0.1,0.2c-0.1,0-0.1,0-0.2,0.1c0,0,0,0.1-0.1,0.1h-0.1
			c0,0,0,0.1-0.1,0.1h-0.1c0,0.1-0.1,0.1-0.1,0.2h-0.1c0,0,0,0.1-0.1,0.1c-0.1,0-0.1,0-0.2,0.1v0.1H106c0,0,0,0.1-0.1,0.1h-0.1
			c0,0,0,0.1-0.1,0.1h-0.1c0,0,0,0.1-0.1,0.1h-0.1c0,0,0,0.1-0.1,0.1h-0.1c0,0,0,0.1-0.1,0.1H105c0,0,0,0.1-0.1,0.1h-0.1
			c0,0,0,0.1-0.1,0.1c-0.1,0-0.2,0-0.3,0.1c0,0,0,0.1-0.1,0.1c-0.1,0-0.1,0-0.2,0.1v0.1c-0.1,0-0.2,0-0.3,0.1c0,0,0,0.1-0.1,0.1
			c-0.1,0-0.2,0-0.3,0.1c0,0,0,0.1-0.1,0.1c-0.1,0-0.2,0-0.3,0.1c0,0,0,0.1-0.1,0.1c-0.1,0-0.3,0.1-0.4,0.1c0,0,0,0.1-0.1,0.1
			c-0.1,0-0.3,0.1-0.4,0.1c0,0,0,0.1-0.1,0.1H102V44h-0.1v0.1h-0.1v0.1h-0.1v0.1h-0.1c0,0,0,0.1-0.1,0.1c-0.1,0-0.2,0-0.3,0.1v0.1
			H101v0.1h-0.1v0.1h-0.1v0.1c-0.1,0-0.2,0-0.3,0.1c0,0,0,0.1-0.1,0.1h-0.1V45h-0.1v0.1h-0.1v0.1h-0.1v0.1h-0.1v0.1h-0.1v0.1h-0.1
			v0.1h-0.1v0.1h-0.1v0.1c-0.1,0-0.3,0.1-0.4,0.1v0.1h-0.2v0.1c-0.1,0-0.3,0.1-0.4,0.1V46h-0.1v0.1h-0.1v0.1h-0.1v0.1
			c-0.1,0-0.2,0-0.3,0.1v0.1h-0.2v0.1c-0.1,0-0.3,0.1-0.4,0.1v0.1h-0.1v0.1h-0.2v0.1h-0.1v0.1h-0.1v0.1H96V47h-0.2v0.1
			c-0.1,0-0.2,0-0.3,0.1v0.1h-0.2v0.1c-0.1,0-0.2,0-0.3,0.1v0.1h-0.2v0.1c-0.1,0-0.2,0-0.3,0.1v0.1h-0.2v0.1c-0.1,0-0.2,0-0.3,0.1
			v0.1h-0.2v0.1h-0.1V48h-0.2V48h-0.1v0.1h-0.2v0.1H93v0.1h-0.2v0.1c-0.1,0-0.2,0-0.3,0.1v0.1h-0.1v0.1h-0.2v0.1H92v0.1h-0.2v0.1
			h-0.1v0.1c-0.2,0-0.4,0.1-0.6,0.1V49h-0.1v0.1h-0.2v0.1h-0.2v0.1h-0.2v0.1h-0.2v0.1h-0.1v0.1c-0.3,0.1-0.6,0.1-0.9,0.2v0.1
			c-0.3,0.1-0.6,0.1-0.9,0.2V50h-0.2V50h-0.2v0.1l-0.5,0.1v0.1c-0.3,0-0.5,0.1-0.8,0.1c-0.9,0.3-1.9,0.4-2.8,0.7h-0.4v0.1h-0.5v0.1
			h-0.5v0.1h-0.6v0.1H81v0.1h-0.9v0.1h-2.3c-1.8,0-3.6-0.3-5-0.8h-0.3v-0.1h-0.2v-0.1h-0.1v-0.1l-0.4-0.1v-0.1h-0.1v-0.1h-0.2v-0.1
			c-0.1,0-0.2,0-0.3-0.1V50H71V50h-0.2v-0.1c-0.1,0-0.2,0-0.3-0.1v-0.1h-0.1c0,0,0-0.1-0.1-0.1h-0.1v-0.1h-0.1v-0.1h-0.1v-0.1h-0.1
			c0,0,0-0.1-0.1-0.1c-0.1,0-0.2,0-0.3-0.1l-0.1-0.1h-0.1c0,0,0-0.1-0.1-0.1h-0.1c0-0.1-0.1-0.1-0.1-0.2h-0.1c0,0,0-0.1-0.1-0.1
			h-0.1c-0.1-0.1-0.1-0.2-0.2-0.3h-0.1c-0.1-0.1-0.1-0.2-0.2-0.3h-0.1l-0.4-0.5h-0.1c-0.3-0.3-0.5-0.6-0.8-0.8
			c-0.1-0.1-0.3-0.2-0.4-0.3v-0.1c-0.2-0.1-0.3-0.3-0.5-0.4v-0.1c-0.1-0.1-0.2-0.2-0.3-0.3v-0.1c-0.1-0.1-0.2-0.1-0.3-0.2v-0.1
			c-0.1,0-0.1-0.1-0.2-0.1v-0.1c-0.1,0-0.1-0.1-0.2-0.1v-0.1l-0.1-0.1v-0.1c-0.1,0-0.1-0.1-0.2-0.1v-0.1c0,0-0.1,0-0.1-0.1
			c0-0.1,0-0.1-0.1-0.2H64c0-0.1,0-0.2-0.1-0.3c0,0-0.1,0-0.1-0.1c0-0.1,0-0.1-0.1-0.2h-0.1c0-0.1-0.1-0.3-0.1-0.4
			c0,0-0.1,0-0.1-0.1v-0.1h-0.1v-0.1h-0.1v-0.1h-0.1V42h-0.1v-0.1h-0.1v-0.1H63v-0.1h-0.1v-0.1h-0.1v-0.1h-0.1c0-0.1,0-0.2-0.1-0.3
			h-0.1v-0.1h-0.1v-0.2h-0.1v-0.1h-0.1v-0.2h-0.1v-0.1h-0.1V40h-0.1v-0.2h-0.1v-0.2h-0.1v-0.2H62v-0.3H62v-0.3h-0.1v-0.4h-0.1
			c0-0.4,0-0.8-0.1-1.2h-0.1v-0.6h-0.1V36h-0.1v-0.6h-0.1v-0.9c-0.1-0.2-0.2-1.6-0.1-1.9h0.1v-1h0.1v-0.7c0.2-1,0.3-1.9,0.5-2.9
			c0.3-0.9,0.6-1.9,0.9-2.8H63v-0.1h0.1v-0.2h0.1v-0.1h0.1v-0.2h0.1c0-0.1,0-0.2,0.1-0.3h0.1l0.1-0.3h0.1c0-0.1,0.1-0.3,0.1-0.4h0.1
			v-0.1h0.1v-0.1h0.1v-0.1H64v-0.1H64v-0.1h0.1v-0.1h0.1v-0.1h0.1v-0.1c0,0,0.1,0,0.1-0.1v-0.1h0.1V22h0.1v-0.1h0.1v-0.1h0.1v-0.1
			c0,0,0.1,0,0.1-0.1c0-0.1,0.1-0.3,0.1-0.4c0,0,0.1,0,0.1-0.1c0-0.1,0-0.2,0.1-0.3c0,0,0.1,0,0.1-0.1c0-0.1,0-0.2,0.1-0.3
			c0,0,0.1,0,0.1-0.1c0-0.1,0-0.1,0.1-0.2h0.1c0-0.1,0-0.2,0.1-0.3c0,0,0.1,0,0.1-0.1v-0.1h0.1c0-0.1,0-0.1,0.1-0.2
			c0,0,0.1,0,0.1-0.1v-0.1c0.1,0,0.1-0.1,0.2-0.1V19c0,0,0.1,0,0.1-0.1v-0.1c0.1,0,0.1-0.1,0.2-0.1v-0.1c0,0,0.1,0,0.1-0.1v-0.1
			c0.1,0,0.1-0.1,0.2-0.1v-0.1c0.1,0,0.1-0.1,0.2-0.1v-0.1c0.1-0.1,0.2-0.1,0.3-0.2v-0.1c0.1-0.1,0.2-0.1,0.3-0.2v-0.1
			c0.1-0.1,0.2-0.1,0.3-0.2v-0.1c0.1-0.1,0.2-0.2,0.3-0.3v-0.1c0.2-0.1,0.3-0.3,0.5-0.4v-0.1c0.2-0.2,0.5-0.4,0.7-0.6V15
			c0.2-0.2,0.5-0.4,0.7-0.6c0.5-0.5,0.9-1,1.4-1.4c0.2-0.2,0.4-0.5,0.6-0.7h0.1c0.1-0.2,0.3-0.3,0.4-0.5H73c0.1-0.1,0.2-0.2,0.3-0.3
			h0.1c0.1-0.1,0.2-0.2,0.3-0.3h0.1c0.1-0.1,0.1-0.2,0.2-0.3c0.2-0.1,0.3-0.1,0.4-0.3c0.2,0,0.2,0,0.3,0.1v0.1h0.1v0.1H75v0.1
			c0.1,0,0.2,0,0.3,0.1V11c0.1,0,0.2,0,0.3,0.1v0.1h0.2v0.1c0.1,0,0.2,0,0.3,0.1v0.1h0.2v0.1h0.1v0.1c0.2,0,0.4,0.1,0.6,0.1v0.1
			c0.1,0,0.3,0,0.4,0.1v0.1h0.1v0.1h0.2V12h0.2v0.1h0.2v0.1h0.2v0.1h0.2v0.1h0.2v0.1H79v0.1h0.2v0.1h0.2v0.1c0.1,0,0.2,0,0.3,0.1
			v0.1h0.1v0.1c0.2,0.1,0.3,0,0.5,0.2c0.2,0,0.2,0,0.3-0.1v-0.1c0.1,0,0.1,0,0.2-0.1c0,0,0-0.1,0.1-0.1c0.1,0,0.2,0,0.3-0.1
			c0,0,0-0.1,0.1-0.1h0.1v-0.1h0.2v-0.1h0.1v-0.1H82v-0.1h0.2V12h0.2v-0.1h0.2v-0.1c0.2,0,0.5-0.1,0.7-0.1v-0.1
			c0.1,0,0.3-0.1,0.4-0.1v-0.1h0.1v-0.1H84v-0.1c0.1,0,0.2,0,0.3-0.1c0,0,0-0.1,0.1-0.1h0.1V11c0.1,0,0.1,0,0.2-0.1
			c0,0,0-0.1,0.1-0.1h0.1c0,0,0-0.1,0.1-0.1c0.1,0,0.1,0,0.2-0.1c0.1-0.1,0.1-0.2,0.2-0.3h0.1c0.1-0.1,0.1-0.2,0.2-0.3h0.1
			c0-0.1,0.1-0.1,0.1-0.2c0.1,0,0.1,0,0.2-0.1c0,0,0-0.1,0.1-0.1h0.1c0,0,0-0.1,0.1-0.1h0.1c0,0,0-0.1,0.1-0.1c0.1,0,0.2,0,0.3-0.1
			c0,0,0-0.1,0.1-0.1h0.1V9.1h0.1V9h0.2V9h0.1V8.9h0.2V8.8H88V8.8c0.8-0.2,1.6-0.4,2.3-0.6c0.3-0.1,1.2,0,1.4-0.1h2.1v0.1h1v0.1h0.7
			v0.1H96v0.1h0.5v0.1h0.4v0.1h0.4v0.1h0.3v0.1h0.4v0.1c0.3,0,0.6,0.1,1,0.1v0.1c0.3,0,0.6,0.1,0.8,0.1v0.1c0.3,0,0.6,0.1,0.8,0.1
			v0.1l0.5,0.1v0.1c0.2,0,0.3,0,0.5,0.1v0.1h0.2v0.1h0.2v0.1c0.2,0,0.5,0.1,0.7,0.1v0.1l0.4,0.1v0.1h0.2v0.1h0.2v0.1h0.2v0.1h0.2
			v0.1h0.2v0.1c0.1,0,0.3,0,0.4,0.1v0.1h0.1v0.1c0.2,0,0.4,0.1,0.6,0.1v0.1h0.1v0.1l0.4,0.1V11h0.1v0.1h0.2v0.1h0.1v0.1h0.2v0.1
			c0.1,0,0.2,0,0.3,0.1v0.1h0.1v0.1h0.2v0.1c0.1,0,0.2,0,0.3,0.1v0.1h0.2v0.1c0.1,0,0.2,0,0.3,0.1v0.1h0.1V12h0.2v0.1h0.1v0.1
			c0.1,0,0.2,0,0.3,0.1v0.1h0.1v0.1h0.1v0.1h0.1v0.1h0.1v0.1h0.1v0.1c0.1,0,0.2,0,0.3,0.1v0.1h0.1v0.1h0.1v0.1h0.1V13h0.1V13h0.1
			v0.1h0.1v0.1h0.1c0,0,0,0.1,0.1,0.1c0.1,0,0.2,0,0.3,0.1c0,0,0,0.1,0.1,0.1c0.1,0,0.2,0,0.3,0.1v0.1c0.1,0,0.1,0,0.2,0.1
			c0,0,0,0.1,0.1,0.1h0.1c0,0,0,0.1,0.1,0.1h0.1c0,0,0,0.1,0.1,0.1c0.1,0,0.1,0,0.2,0.1c0.1,0.1,0.1,0.2,0.2,0.3h0.1
			c0.1,0.1,0.2,0.3,0.3,0.4h0.1c0.2,0.2,0.4,0.4,0.6,0.6c0.1,0.1,0.2,0.1,0.3,0.2v0.1c0.1,0.1,0.3,0.2,0.4,0.3v0.1
			c0.1,0.1,0.2,0.1,0.3,0.2v0.1c0.1,0,0.1,0.1,0.2,0.1V17c0,0,0.1,0,0.1,0.1v0.1c0,0,0.1,0,0.1,0.1c0,0.1,0,0.2,0.1,0.3
			c0,0,0.1,0,0.1,0.1c0,0.1,0,0.2,0.1,0.3c0,0,0.1,0,0.1,0.1c0,0.1,0.1,0.3,0.1,0.4h0.1c0,0.1,0.1,0.3,0.1,0.4h0.1V19h0.1v0.1h0.1
			v0.2h0.1v0.1h0.1v0.2h0.1v0.2h0.1v0.2h0.1v0.2h0.1v0.3h0.1v0.3h0.1v0.3h0.1v0.3h0.1v0.4h0.1v0.5h0.1v0.8
			C117,23.4,117.1,24.6,117,24.9z"/>
		<path d="M42.2,30.7c-0.5,0-1.3-0.2-1.7-0.4c0,0,0-0.1-0.1-0.1c0,0-0.1,0-0.1,0c0,0,0,0,0-0.1c0,0-0.1,0-0.1,0c0,0,0-0.1-0.1-0.1
			c0,0-0.1,0-0.1,0c-0.1-0.1-0.1-0.2-0.1-0.3c0,0,0,0,0.1,0c0-0.1,0-0.3,0-0.4c0.1-0.5,0.1-1.1,0.1-1.7c0-0.7,0-1.2-0.2-1.7
			c0,0,0,0-0.1,0c0-0.1,0-0.1,0-0.2c0,0-0.1,0-0.1-0.1c0-0.1,0-0.2-0.1-0.3c-0.1-0.1-0.2-0.1-0.3-0.2c0-0.1-0.1-0.1-0.1-0.2
			c0,0-0.1,0-0.1,0c0,0,0-0.1-0.1-0.1c-0.1,0-0.2,0-0.3-0.1c0,0,0,0,0-0.1c-0.1,0-0.3,0-0.4-0.1c-0.2-0.1-1-0.3-1.4-0.1
			c-1.9,0.6-2.6,2.6-3.2,4.6c0,0.4-0.1,0.8-0.1,1.2c0,0,0,0-0.1,0c0,0.2,0,0.5,0,0.7c-0.1,0.2-0.2,1.5-0.1,1.9c0,0,0,0,0.1,0
			c0,0.2,0,0.4,0,0.6c0,0,0,0,0.1,0c0,0.2,0,0.3,0,0.5c0,0,0,0,0.1,0c0,0.1,0,0.2,0,0.3c0,0,0,0,0.1,0c0,0.1,0,0.2,0,0.3
			c0,0,0,0,0.1,0c0,0.2,0,0.3,0.1,0.5c0,0,0,0,0.1,0c0,0.2,0.1,0.3,0.1,0.5c0.2,0.1,0.4,0.1,0.6,0.2c0.2,0.1,1-0.1,1.1-0.2
			c0,0,0,0,0-0.1c0,0,0.1,0,0.1,0c0,0,0,0,0-0.1c0,0,0.1,0,0.1,0c0,0,0,0,0-0.1c0,0,0.1,0,0.1,0c0,0,0,0,0-0.1c0,0,0.1,0,0.1,0
			c0,0,0-0.1,0.1-0.1c0,0,0.1,0,0.1,0c0,0,0-0.1,0.1-0.1c0,0,0.1,0,0.1,0c0,0,0-0.1,0.1-0.1c0.1,0,0.2,0,0.3-0.1c0,0,0,0,0-0.1
			c0.3-0.2,0.6-0.2,1-0.2c0,0,0,0,0,0.1c0.1,0,0.2,0,0.3,0.1c0,0.1,0.1,0.1,0.1,0.2c0.2,0.2,0.6,0.5,0.9,0.6
			c-0.1,0.6-0.6,1.1-0.9,1.4c-0.2,0.2-0.4,0.3-0.5,0.6c0,0,0,0-0.1,0c0,0.1,0,0,0.1,0.1c0,0.1,0,0.1,0,0.2c0,0,0,0,0.1,0
			c0.3,0.3,0.6,0.1,0.5,0.8c-0.2,0-0.4,0-0.5,0.1c0,0.1-0.1,0.1-0.1,0.2c-0.1,0.1-0.5,0.2-0.7,0.1c0,0,0,0,0-0.1c-0.1,0-0.2,0-0.3,0
			c0,0,0,0,0-0.1c-0.3-0.1-0.3-0.2-0.4-0.4c0,0,0,0-0.1,0c0,0,0-0.1,0-0.1c0,0,0,0-0.1,0c0,0,0-0.1,0-0.1c0,0,0,0-0.1,0
			c0,0,0-0.1,0-0.1c0,0,0,0-0.1,0c0-0.1,0-0.1-0.1-0.2c-0.1,0-0.2,0-0.3-0.1c0,0,0,0,0-0.1c-0.4-0.1-0.9,0.1-1.2,0.2
			c-0.3,0-0.5,0-0.8,0.1c0,0.8-0.1,1.5-0.1,2.3c0,0,0,0-0.1,0c0,0.3,0,0.5,0,0.8c0,0.1,0,0-0.1,0.1c0,0.4,0,0.8,0,1.2c0,0,0,0-0.1,0
			c-0.1,0.4,0,1.1,0.1,1.3c0,0.3,0,0.6,0,1c0,0,0,0,0.1,0c0,0.2,0,0.3,0,0.5c0.1,0.3,0.2,0.6,0.2,1c0.2,0.1,0,0.1,0.1,0.2
			c0.1,0,0.1,0,0.2,0.1c0,0.1,0.1,0.1,0.1,0.2c0,0,0.1,0,0.1,0c0,0,0,0.1,0.1,0.1c0,0,0.1,0,0.1,0c0.4,0.2,0.6,0.6,0.6,1.2
			c-0.3,0.1-0.4,0.4-0.4,0.8c-0.1,0-0.2,0-0.3,0.1c0,0,0,0,0,0.1c-0.2,0-0.3,0-0.5,0c-0.8,0-1.3-0.2-2-0.3c-0.3,0-0.6,0.1-0.9,0.1
			c0,0,0,0,0,0.1c-0.1,0-0.2,0-0.3,0.1c0,0,0,0,0,0.1c0,0,0,0-0.1,0c0,0,0,0,0-0.1c-0.2-0.2-0.1-0.4-0.2-0.8c0,0,0,0-0.1,0
			c0-0.1,0-0.3,0-0.4c0,0,0,0-0.1,0c0-0.1,0-0.3-0.1-0.4c0.5-0.3,0.8-1.3,1-1.9c0-0.2,0-0.4,0-0.6c0.2-0.5,0.2-2.9,0-3.4
			c0-1.1,0-2.3,0-3.4c-0.1-0.1-0.3-0.2-0.4-0.3c-0.1,0-0.1,0-0.2,0c-0.2-0.1-0.5-0.2-0.6-0.4c-0.1-0.1-0.1-0.3-0.1-0.6
			c0.1-0.2,0.2-0.3,0.3-0.5c0.4-0.2,0.9-0.3,1.3-0.5c0-0.4,0.1-0.7,0.2-1c0-0.1,0-0.3,0-0.4c0,0,0,0,0.1,0c0-0.2,0-0.4,0-0.6
			c0,0,0,0,0.1,0c0-0.2,0-0.4,0-0.6c0,0,0,0,0.1,0c0-0.3,0-0.5,0-0.8c0,0,0,0,0.1,0c0-0.8,0.1-1.5,0.1-2.3c0,0,0,0,0.1,0
			c0-0.2,0-0.4,0-0.6c0,0,0,0,0.1,0c0-0.2,0-0.3,0-0.5c0,0,0,0,0.1,0c0-0.2,0-0.3,0-0.5c0,0,0,0,0.1,0c0-0.1,0-0.3,0-0.4
			c0.2-0.6,0.3-1.2,0.5-1.8c0,0,0,0,0.1,0c0-0.1,0-0.2,0.1-0.3c0,0,0,0,0.1,0c0,0,0-0.1,0-0.1c0,0,0,0,0.1,0c0-0.1,0-0.1,0-0.2
			c0,0,0.1,0,0.1-0.1c0-0.1,0-0.2,0.1-0.3c0,0,0.1,0,0.1-0.1c0,0,0-0.1,0-0.1c0.1,0,0.1-0.1,0.2-0.1c0,0,0-0.1,0-0.1
			c0.1-0.1,0.3-0.2,0.4-0.3c0,0,0-0.1,0.1-0.1c0,0,0.1,0,0.1,0c0-0.1,0.1-0.1,0.1-0.2c0.1,0,0.2,0,0.3-0.1c0,0,0,0,0-0.1
			c0,0,0.1,0,0.1,0c0,0,0,0,0-0.1c0.1,0,0.3-0.1,0.4-0.1c0,0,0,0,0-0.1c0.1,0,0.3,0,0.4-0.1c0,0,0,0,0-0.1c0.1,0,0.2,0,0.3,0
			c0,0,0,0,0-0.1c0.1,0,0.3,0,0.4,0c0,0,0,0,0-0.1c0.3-0.1,1.4,0,1.7,0.1c0.2,0,0.4,0,0.6,0.1c1.1,0.4,2,1,2.3,2.1
			c0,0.8,0.1,1.6,0.1,2.4c0.2,0.8,0.5,1.5,0.7,2.3C42.2,30.2,42.2,30.5,42.2,30.7z"/>
		<path d="M155.5,27.7c0.8,0.1,1.6,0.1,2.4,0.2c0,0,0,0,0,0.1c0.2,0,0.4,0,0.6,0.1c0,0,0,0,0,0.1c0.2,0,0.3,0,0.5,0.1c0,0,0,0,0,0.1
			c0.1,0,0.2,0,0.3,0c0,0,0,0,0,0.1c0.1,0,0.1,0,0.2,0c0,0,0,0,0,0.1c0.1,0,0.1,0,0.2,0c0,0,0,0,0,0.1c0.1,0,0.1,0,0.2,0
			c0,0,0,0,0,0.1c0,0,0.1,0,0.1,0c0,0,0,0,0,0.1c0.1,0,0.1,0,0.2,0c0,0,0,0,0,0.1c0,0,0.1,0,0.1,0c0,0,0,0,0,0.1c0.1,0,0.1,0,0.2,0
			c0,0,0,0,0,0.1c0.1,0,0.3,0.1,0.4,0.1c0,0,0,0,0,0.1c0,0,0.1,0,0.1,0c0,0,0,0,0,0.1c0,0,0.1,0,0.1,0c0,0,0,0,0,0.1
			c0,0,0.1,0,0.1,0c0,0,0,0,0,0.1c0,0,0.1,0,0.1,0c0,0,0,0,0,0.1c0,0,0.1,0,0.1,0c0,0,0,0,0,0.1c0,0,0.1,0,0.1,0c0,0,0,0.1,0.1,0.1
			c0.1,0,0.2,0,0.3,0.1c0,0,0,0.1,0.1,0.1c0,0,0.1,0,0.1,0c0,0,0,0.1,0.1,0.1c0,0,0.1,0,0.1,0c0,0,0,0.1,0.1,0.1
			c0.1,0,0.1,0,0.2,0.1c0,0.1,0.1,0.1,0.1,0.2c0,0,0.1,0,0.1,0c0.2,0.2,0.3,0.4,0.5,0.6c0,0,0.1,0,0.1,0c0.1,0.1,0.2,0.3,0.3,0.4
			c0,0,0.1,0,0.1,0c0.1,0.1,0.1,0.2,0.2,0.3c0.2,0.2,0.4,0.3,0.6,0.5c0.5,0.5,0.9,1,1.1,1.8c0.1,0.5-0.2,1.7-0.4,1.8
			c-0.2,0-0.3,0-0.5,0c-0.2,0.2-0.5,0-0.8,0.1c0,0,0,0,0,0.1c-0.1,0-0.3,0-0.4,0c-0.7,0.2-1.6,0.3-2.3,0.5c-0.1,0-0.2,0-0.3,0
			c-3.6,0.8-7.2,1.5-10.8,2.3c-0.1,0-0.3,0-0.4,0c0,0,0,0,0,0.1c-0.1,0-0.2,0-0.3,0c0,0,0,0,0,0.1c-0.1,0-0.3,0-0.4,0
			c-1.1,0.3-2.8,0.9-2.9-0.8c0.2-0.1,0-0.1,0.1-0.2c0,0,0.1,0,0.1-0.1c0,0,0,0,0-0.1c0.1-0.1,0.2,0,0.3-0.1c0.3,0,0.5,0,0.8,0.1
			c0.2,0.1,0.6,0.3,1,0.2c1.3-0.4,2.7-0.6,3.9-1c0.1,0,0.2,0,0.3,0c0,0,0,0,0-0.1c0.1,0,0.2,0,0.3,0c0,0,0,0,0-0.1
			c0.1,0,0.2,0,0.3,0c0,0,0,0,0-0.1c0.1,0,0.2,0,0.3,0c0,0,0,0,0-0.1c0.1,0,0.2,0,0.3,0c0,0,0,0,0-0.1c0.2,0,0.4,0,0.6-0.1
			c0,0,0,0,0-0.1c0.2,0,0.4,0,0.6-0.1c0,0,0,0,0-0.1c0.1,0,0.2,0,0.3,0c0.7-0.2,1.6-0.3,2.3-0.5c0.4,0,0.9-0.1,1.3-0.1
			c0,0,0,0,0-0.1c0.2,0,0.5,0,0.7-0.1c0,0,0,0,0-0.1c0.1,0,0.2,0,0.3,0c0,0,0,0,0-0.1c0.1,0,0.2,0,0.3,0c0,0,0,0,0-0.1
			c0.1,0,0.2,0,0.3,0c0,0,0,0,0-0.1c0.1,0,0.1,0,0.2,0c0,0,0,0,0-0.1c0.1,0,0.1,0,0.2,0c0,0,0,0,0-0.1c0.1,0,0.3,0,0.4-0.1
			c0,0,0,0,0-0.1c0.1,0,0.2,0,0.3-0.1c0,0,0,0,0-0.1c0.1,0,0.2,0,0.3-0.1c0,0,0-0.1,0.1-0.1c0.1,0,0.2,0,0.3-0.1c0,0,0-0.1,0.1-0.1
			c0.2-0.2,0.5-0.2,0.6-0.5c-0.2-0.1-0.2-0.2-0.3-0.4c-0.1,0-0.1-0.1-0.2-0.1c0,0,0-0.1,0-0.1c-0.2-0.2-0.5-0.5-0.8-0.7
			c-0.1-0.1-0.2-0.2-0.3-0.3c0,0-0.1,0-0.1,0c0-0.1-0.1-0.1-0.1-0.2c0,0-0.1,0-0.1,0c0,0,0-0.1-0.1-0.1c0,0-0.1,0-0.1,0
			c0,0,0-0.1-0.1-0.1c-0.1,0-0.1,0-0.2-0.1c0,0,0,0,0-0.1c-0.1,0-0.2,0-0.3-0.1c0,0,0,0,0-0.1c0,0-0.1,0-0.1,0c0,0,0,0,0-0.1
			c-0.1,0-0.3-0.1-0.4-0.1c0,0,0,0,0-0.1c-0.1,0-0.1,0-0.2,0c0,0,0,0,0-0.1c0,0-0.1,0-0.1,0c0,0,0,0,0-0.1c-0.1,0-0.1,0-0.2,0
			c0,0,0,0,0-0.1c-0.1,0-0.1,0-0.2,0c0,0,0,0,0-0.1c-0.1,0-0.1,0-0.2,0c0,0,0,0,0-0.1c-0.1,0-0.1,0-0.2,0c0,0,0,0,0-0.1
			c-0.1,0-0.2,0-0.3,0c0,0,0,0,0-0.1c-0.1,0-0.2,0-0.3,0c0,0,0,0,0-0.1c-0.1,0-0.3,0-0.4,0c0,0,0,0,0-0.1c-0.2,0-0.3,0-0.5,0
			c0,0,0,0,0-0.1c-0.3,0-0.7,0-1,0c0,0,0,0,0-0.1c-0.1,0-0.2,0-0.3,0c0,0,0,0,0,0.1c-0.3,0-0.7,0-1,0c0,0,0,0,0,0.1
			c-0.2,0-0.4,0-0.5,0c0,0,0,0,0,0.1c-0.1,0-0.2,0-0.3,0c0,0,0,0,0,0.1c-0.1,0-0.2,0-0.3,0c0,0,0,0,0,0.1c-0.1,0-0.2,0-0.3,0
			c0,0,0,0,0,0.1c-0.2,0-0.3,0-0.5,0.1c0,0,0,0,0,0.1c-0.1,0-0.1,0-0.2,0c0,0,0,0,0,0.1c-0.1,0-0.1,0-0.2,0c0,0,0,0,0,0.1
			c0,0-0.1,0-0.1,0c0,0,0,0,0,0.1c-0.1,0-0.1,0-0.2,0c0,0,0,0,0,0.1c0,0-0.1,0-0.1,0c0,0,0,0,0,0.1c-0.1,0-0.1,0-0.2,0
			c0,0,0,0,0,0.1c-0.1,0-0.3,0.1-0.4,0.1c0,0,0,0,0,0.1c0,0-0.1,0-0.1,0c0,0,0,0,0,0.1c-0.1,0-0.3,0.1-0.4,0.1c0,0,0,0,0,0.1
			c-0.1,0-0.1,0-0.2,0.1c0,0,0,0.1-0.1,0.1c-0.1,0-0.2,0-0.3,0.1c0,0.1-0.1,0.1-0.1,0.2c0,0-0.1,0-0.1,0c0,0.1-0.1,0.1-0.1,0.2
			c0,0-0.1,0-0.1,0c-0.1,0.1-0.2,0.2-0.3,0.3c0,0-0.1,0-0.1,0c-0.2,0.2-0.4,0.4-0.6,0.6c-0.1,0.1-0.2,0.1-0.3,0.2c0,0,0,0.1,0,0.1
			c-0.2,0.1-0.3,0.3-0.5,0.4c0,0,0,0.1,0,0.1c-0.1,0-0.1,0.1-0.2,0.1c0,0,0,0.1,0,0.1c-0.1,0-0.1,0.1-0.2,0.1c0,0,0,0.1,0,0.1
			c-0.1,0-0.1,0.1-0.2,0.1c0,0,0,0.1,0,0.1c0,0-0.1,0-0.1,0.1c0,0.1,0,0.1-0.1,0.2c0,0,0,0-0.1,0c0,0,0,0.1,0,0.1c0,0-0.1,0-0.1,0.1
			c0,0.1-0.1,0.3-0.1,0.4c0,0-0.1,0-0.1,0.1c0,0.1,0,0.2-0.1,0.3c0,0,0,0-0.1,0c0,0,0,0.1,0,0.1c0,0,0,0-0.1,0c0,0,0,0.1,0,0.1
			c0,0,0,0-0.1,0c0,0,0,0.1,0,0.1c0,0,0,0-0.1,0c0,0.1-0.1,0.3-0.1,0.4c0,0,0,0-0.1,0c0,0.1,0,0.1,0,0.2c0,0,0,0-0.1,0
			c0,0.1,0,0.2-0.1,0.3c0,0,0,0-0.1,0c0,0.1,0,0.1,0,0.2c0,0,0,0-0.1,0c0,0.1,0,0.1,0,0.2c0,0,0,0-0.1,0c0,0,0,0.1,0,0.1
			c0,0,0,0-0.1,0c0,0.1,0,0.1,0,0.2c0,0,0,0-0.1,0c0,0.1,0,0.1,0,0.2c0,0,0,0-0.1,0c0,0.1,0,0.1,0,0.2c0,0,0,0-0.1,0
			c0,0.1,0,0.1,0,0.2c0,0,0,0-0.1,0c0,0.2,0,0.3-0.1,0.5c0,0,0,0-0.1,0c0,0.2,0,0.4-0.1,0.6c-0.1,0.2-0.2,0.5-0.1,0.8
			c0.3,1,0.6,2,1,3c0,0,0,0,0.1,0c0,0.1,0.1,0.3,0.1,0.4c0,0,0,0,0.1,0c0,0,0,0.1,0,0.1c0,0,0,0,0.1,0c0,0,0,0.1,0,0.1
			c0,0,0,0,0.1,0c0,0,0,0.1,0,0.1c0,0,0,0,0.1,0c0,0,0,0.1,0,0.1c0,0,0,0,0.1,0c0,0,0,0.1,0,0.1c0,0,0,0,0.1,0c0,0,0,0.1,0,0.1
			c0,0,0,0,0.1,0c0,0,0,0.1,0,0.1c0,0,0.1,0,0.1,0.1c0,0,0,0.1,0,0.1c0,0,0,0,0.1,0c0,0.1,0,0.1,0.1,0.2c0,0,0.1,0,0.1,0.1
			c0,0,0,0.1,0,0.1c0.1,0,0.1,0.1,0.2,0.1c0,0,0,0.1,0,0.1c0.2,0.2,0.4,0.3,0.5,0.5c0.1,0.1,0.2,0.2,0.3,0.3c0,0,0.1,0,0.1,0
			c0,0.1,0.1,0.1,0.1,0.2c0,0,0.1,0,0.1,0c0,0,0,0.1,0.1,0.1c0.1,0,0.2,0,0.3,0.1c0,0,0,0.1,0.1,0.1c0,0,0.1,0,0.1,0c0,0,0,0,0,0.1
			c0.1,0,0.2,0,0.3,0.1c0,0,0,0,0,0.1c0.1,0,0.1,0,0.2,0c0,0,0,0,0,0.1c0,0,0.1,0,0.1,0c0,0,0,0,0,0.1c0.1,0,0.3,0,0.4,0.1
			c0.8,0.3,1.7,0.4,2.8,0.4c0.4,0,0.7,0,1.1,0c0,0,0,0,0-0.1c0.3,0,0.7,0,1-0.1c0,0,0,0,0-0.1c0.2,0,0.5,0,0.7-0.1c0,0,0,0,0-0.1
			c0.1,0,0.2,0,0.3,0c0,0,0,0,0-0.1c0.1,0,0.2,0,0.3,0c0,0,0,0,0-0.1c0.2,0,0.3,0,0.5-0.1c0,0,0,0,0-0.1c0.1,0,0.1,0,0.2,0
			c0,0,0,0,0-0.1c0.1,0,0.2,0,0.3,0c0,0,0,0,0-0.1c0.6-0.2,1.1-0.4,1.7-0.6c0,0,0,0,0-0.1c0.1,0,0.3-0.1,0.4-0.1c0,0,0,0,0-0.1
			c0,0,0.1,0,0.1,0c0,0,0,0,0-0.1c0,0,0.1,0,0.1,0c0,0,0,0,0-0.1c0,0,0.1,0,0.1,0c0,0,0,0,0-0.1c0,0,0.1,0,0.1,0c0,0,0,0,0-0.1
			c0,0,0.1,0,0.1,0c0,0,0,0,0-0.1c0,0,0.1,0,0.1,0c0,0,0,0,0-0.1c0,0,0.1,0,0.1,0c0,0,0,0,0-0.1c0,0,0.1,0,0.1,0c0,0,0,0,0-0.1
			c0,0,0.1,0,0.1,0c0,0,0-0.1,0.1-0.1c0.1,0,0.2,0,0.3-0.1c0,0,0-0.1,0.1-0.1c0.1,0,0.2,0,0.3-0.1c0,0,0,0,0-0.1
			c0.1,0,0.1,0,0.2-0.1c0,0,0-0.1,0.1-0.1c0,0,0.1,0,0.1,0c0,0,0-0.1,0.1-0.1c0,0,0.1,0,0.1,0c0,0,0-0.1,0.1-0.1
			c0.1,0,0.1,0,0.2-0.1c0.1-0.1,0.1-0.2,0.2-0.3c0,0,0.1,0,0.1,0c0.1-0.1,0.2-0.3,0.3-0.4c0,0,0.1,0,0.1,0c0.1-0.1,0.2-0.2,0.3-0.3
			c0,0,0.1,0,0.1-0.1c0,0,0-0.1,0-0.1c0.1,0,0.1-0.1,0.2-0.1c0-0.1,0.1-0.3,0.1-0.4c0.4-0.7,0.7-1.4,1.7-1.5
			c0.1,0.1,0.2,0.3,0.3,0.4c0,0,0,0,0.1,0c0,0.1,0.1,0.3,0.1,0.4c0,0,0,0,0.1,0c0,0.1,0,0.2,0,0.3c0.3,1,0,2.6-0.3,3.4
			c0,0.1,0,0.2,0,0.3c0,0,0,0-0.1,0c0,0.1,0,0.1,0,0.2c0,0,0,0-0.1,0c0,0.2-0.1,0.4-0.1,0.6c-0.1,0.1-0.2,0.1-0.3,0.2
			c-0.1,0.1-0.2,0.3-0.3,0.4c0,0-0.1,0-0.1,0c-0.1,0.1-0.1,0.2-0.2,0.3c0,0-0.1,0-0.1,0c0,0.1-0.1,0.1-0.1,0.2c0,0-0.1,0-0.1,0
			c0,0,0,0.1-0.1,0.1c-0.1,0-0.1,0-0.2,0.1c0,0,0,0,0,0.1c0,0-0.1,0-0.1,0c0,0,0,0.1-0.1,0.1c-0.1,0-0.1,0-0.2,0.1c0,0,0,0,0,0.1
			c-0.1,0-0.3,0.1-0.4,0.1c0,0,0,0.1-0.1,0.1c-0.1,0-0.3,0.1-0.4,0.1c0,0,0,0,0,0.1c0,0-0.1,0-0.1,0c0,0,0,0,0,0.1c0,0-0.1,0-0.1,0
			c0,0,0,0,0,0.1c-0.1,0-0.3,0.1-0.4,0.1c0,0,0,0,0,0.1c-0.1,0-0.1,0-0.2,0c0,0,0,0,0,0.1c-0.1,0-0.2,0-0.3,0.1c0,0,0,0,0,0.1
			c-0.1,0-0.1,0-0.2,0c0,0,0,0,0,0.1c0,0-0.1,0-0.1,0c0,0,0,0,0,0.1c-0.1,0-0.1,0-0.2,0c0,0,0,0,0,0.1c0,0-0.1,0-0.1,0
			c0,0,0,0,0,0.1c-0.9,0.3-1.7,0.5-2.6,0.8c-0.1,0-0.2,0-0.3,0c0,0,0,0,0,0.1c-0.1,0-0.2,0-0.3,0c0,0,0,0,0,0.1c-0.1,0-0.2,0-0.3,0
			c0,0,0,0,0,0.1c-0.1,0-0.3,0-0.4,0c0,0,0,0,0,0.1c-0.2,0-0.3,0-0.5,0c0,0,0,0,0,0.1c-0.2,0-0.3,0-0.5,0c0,0,0,0,0,0.1
			c-0.2,0-0.4,0-0.6,0c0,0,0,0,0,0.1c-0.4,0-0.7,0-1.1,0c0,0,0,0,0,0.1c-0.3,0.1-1.2,0-1.4-0.1c-0.3,0-0.7,0-1,0c0,0,0,0,0-0.1
			c-0.3,0-0.7,0-1-0.1c0,0,0,0,0-0.1c-0.1,0-0.2,0-0.3,0c0,0,0,0,0-0.1c-0.1,0-0.2,0-0.3,0c0,0,0,0,0-0.1c-0.1,0-0.2,0-0.3,0
			c0,0,0,0,0-0.1c-0.1,0-0.2,0-0.3,0c0,0,0,0,0-0.1c-0.1,0-0.2,0-0.3,0c-0.6-0.3-1.3-0.5-1.9-0.8c0,0,0-0.1-0.1-0.1
			c-0.1,0-0.3-0.1-0.4-0.1c0,0,0-0.1-0.1-0.1c0,0-0.1,0-0.1,0c0,0,0,0,0-0.1c-0.1,0-0.1,0-0.2-0.1c0,0,0-0.1-0.1-0.1
			c0,0-0.1,0-0.1,0c-0.1-0.1-0.1-0.2-0.2-0.3c0,0-0.1,0-0.1,0c-0.1-0.1-0.2-0.2-0.3-0.3c-0.2-0.2-0.4-0.4-0.6-0.6c0,0,0-0.1,0-0.1
			c-0.1,0-0.1-0.1-0.2-0.1c0,0,0-0.1,0-0.1c-0.1,0-0.1-0.1-0.2-0.1c0,0,0-0.1,0-0.1c0,0-0.1,0-0.1-0.1c0,0,0-0.1,0-0.1
			c0,0-0.1,0-0.1-0.1c0,0,0-0.1,0-0.1c0,0,0,0-0.1,0c0,0,0-0.1,0-0.1c0,0-0.1,0-0.1-0.1c0-0.1,0-0.2-0.1-0.3c0,0-0.1,0-0.1-0.1
			c0-0.1,0-0.2-0.1-0.3c0,0-0.1,0-0.1-0.1c0,0,0-0.1,0-0.1c0,0,0,0-0.1,0c0,0,0-0.1,0-0.1c0,0,0,0-0.1,0c0,0,0-0.1,0-0.1
			c0,0,0,0-0.1,0c0,0,0-0.1,0-0.1c0,0,0,0-0.1,0c0,0,0-0.1,0-0.1c0,0,0,0-0.1,0c0,0,0-0.1,0-0.1c0,0,0,0-0.1,0
			c0-0.1-0.1-0.3-0.1-0.4c0,0,0,0-0.1,0c0-0.1,0-0.1,0-0.2c0,0,0,0-0.1,0c0,0,0-0.1,0-0.1c0,0,0,0-0.1,0c0-0.1,0-0.3-0.1-0.4
			c0,0,0,0-0.1,0c0-0.3,0-0.6-0.1-1c0,0,0,0-0.1,0c0-0.4,0-0.8,0-1.2c0-1.2,0.1-2.2,0.3-3.1c0-0.3,0.1-0.6,0.1-0.9c0,0,0,0,0.1,0
			c0-0.1,0-0.1,0-0.2c0,0,0,0,0.1,0c0-0.1,0-0.1,0-0.2c0,0,0,0,0.1,0c0-0.1,0-0.1,0-0.2c0,0,0,0,0.1,0c0-0.1,0-0.1,0-0.2
			c0,0,0,0,0.1,0c0-0.1,0-0.3,0.1-0.4c0,0,0,0,0.1,0c0,0,0-0.1,0-0.1c0,0,0,0,0.1,0c0-0.1,0-0.1,0-0.2c0,0,0,0,0.1,0
			c0,0,0-0.1,0-0.1c0,0,0,0,0.1,0c0-0.1,0-0.1,0-0.2c0,0,0,0,0.1,0c0-0.1,0.1-0.3,0.1-0.4c0,0,0,0,0.1,0c0,0,0-0.1,0-0.1
			c0,0,0,0,0.1,0c0,0,0-0.1,0-0.1c0,0,0,0,0.1,0c0,0,0-0.1,0-0.1c0,0,0,0,0.1,0c0,0,0-0.1,0-0.1c0,0,0,0,0.1,0c0,0,0-0.1,0-0.1
			c0,0,0,0,0.1,0c0,0,0-0.1,0-0.1c0,0,0,0,0.1,0c0,0,0-0.1,0-0.1c0,0,0.1,0,0.1-0.1c0-0.1,0-0.2,0.1-0.3c0,0,0.1,0,0.1-0.1
			c0,0,0-0.1,0-0.1c0,0,0.1,0,0.1-0.1c0,0,0-0.1,0-0.1c0,0,0.1,0,0.1-0.1c0,0,0-0.1,0-0.1c0,0,0,0,0.1,0c0-0.1,0-0.1,0.1-0.2
			c0.1,0,0.1,0,0.1-0.1c0,0,0-0.1,0-0.1c0.1,0,0.1-0.1,0.2-0.1c0,0,0-0.1,0-0.1c0.1-0.1,0.2-0.1,0.3-0.2c0,0,0-0.1,0-0.1
			c0.1-0.1,0.3-0.2,0.4-0.3c0,0,0-0.1,0-0.1c0.1-0.1,0.2-0.2,0.3-0.3c0.2-0.2,0.4-0.5,0.6-0.7c0,0,0.1,0,0.1,0
			c0.1-0.1,0.2-0.3,0.3-0.4c0,0,0.1,0,0.1,0c0.1-0.1,0.1-0.2,0.2-0.3c0,0,0.1,0,0.1,0c0,0,0-0.1,0.1-0.1c0,0,0,0,0.1,0
			c0,0,0-0.1,0.1-0.1c0,0,0.1,0,0.1,0c0,0,0.1-0.1,0.1-0.1c0,0,0.1,0,0.1,0c0-0.1,0.1-0.1,0.1-0.2c0,0,0.1,0,0.1,0
			c0,0,0-0.1,0.1-0.1c0.1,0,0.1,0,0.2-0.1c0,0,0,0,0-0.1c0,0,0.1,0,0.1,0c0,0,0-0.1,0.1-0.1c0.1,0,0.1,0,0.2-0.1c0,0,0,0,0-0.1
			c0.1,0,0.2,0,0.3-0.1c0,0,0-0.1,0.1-0.1c0.1,0,0.3-0.1,0.4-0.1c0,0,0-0.1,0.1-0.1c0.1,0,0.3-0.1,0.4-0.1c0,0,0,0,0-0.1
			c0,0,0.1,0,0.1,0c0,0,0,0,0-0.1c0.1,0,0.3-0.1,0.4-0.1c0,0,0,0,0-0.1c0.1,0,0.2,0,0.3-0.1c0,0,0,0,0-0.1c0,0,0.1,0,0.1,0
			c0,0,0,0,0-0.1c0.1,0,0.1,0,0.2,0c0,0,0,0,0-0.1c0,0,0.1,0,0.1,0c0,0,0,0,0-0.1c0.1,0,0.1,0,0.2,0c0,0,0,0,0-0.1
			c0.1,0,0.1,0,0.2,0c0,0,0,0,0-0.1c0.1,0,0.1,0,0.2,0c0,0,0,0,0-0.1c0.1,0,0.1,0,0.2,0c0,0,0,0,0-0.1c0.1,0,0.2,0,0.3,0
			c0,0,0,0,0-0.1c0.1,0,0.2,0,0.3,0c0,0,0,0,0-0.1c0.1,0,0.2,0,0.3,0c0,0,0,0,0-0.1c0.2,0,0.3,0,0.5,0c0,0,0,0,0-0.1
			C154.9,27.7,155.3,27.9,155.5,27.7z"/>
		<path d="M178.1,27.9c1.3,0,2.5,0.1,3.2,0.6c0,0.1,0.1,0.1,0.1,0.2c0.1,0,0.1,0,0.1,0c0.1,0.1,0.2,0.3,0.3,0.4c0,0,0.1,0,0.1,0.1
			c0,0,0,0.1,0,0.1c0,0,0.1,0,0.1,0.1c0,0.3,0,0.6,0,0.8c0,0,0,0-0.1,0c0,0.1,0,0.3,0,0.4c0,0,0,0-0.1,0c0,0.1,0,0.1,0,0.2
			c0,0,0,0-0.1,0c0,0.1,0,0.1,0,0.2c0,0,0,0-0.1,0c0,0,0,0.1,0,0.1c-0.1,0-0.1,0.1-0.2,0.1c0,0,0,0.1,0,0.1c-0.1,0-0.1,0-0.2,0.1
			c0,0.1-0.1,0.1-0.1,0.2c0,0-0.1,0-0.1,0c0,0,0,0,0,0.1c-0.7,0.3-1.9,0.2-2.8,0.2c-0.3,0-0.6,0-1,0c0,0,0,0,0,0.1
			c-0.3,0-0.6,0-0.9,0.1c-0.5,0.2-1,0.4-1.5,0.6c0,0,0,0,0,0.1c-0.1,0-0.1,0-0.2,0.1c0,0,0,0.1-0.1,0.1c0,0-0.1,0-0.1,0
			c0,0,0,0.1-0.1,0.1c0,0-0.1,0-0.1,0c-0.1,0.1-0.1,0.2-0.2,0.3c0,0-0.1,0-0.1,0c0,0,0,0.1-0.1,0.1c-0.1,0.1-0.2,0.1-0.3,0.2
			c0,0,0,0.1,0,0.1c-0.1,0-0.1,0.1-0.2,0.1c0,0,0,0.1,0,0.1c0,0-0.1,0-0.1,0.1c-0.1,0.2-0.1,0.4-0.2,0.6c0,0,0,0-0.1,0
			c0,0.2,0,0.4,0,0.6c0,0.6,0.1,1.1,0,1.5c0,0.2,0,0.5,0,0.7c-0.2,0.5-0.2,1.3-0.3,1.8c0,0.1,0,0.3,0,0.4c0,0,0,0-0.1,0
			c0,0.1,0,0.3,0,0.4c0,0,0,0-0.1,0c0,0.1,0,0.3,0,0.4c0,0,0,0-0.1,0c0,0.1,0,0.3,0,0.4c-0.3,1.1-0.4,2.3-0.5,3.6
			c0,0.1-0.1,0.1-0.1,0.1c0,0.4,0,0.8,0,1.2c0,0,0,0-0.1,0c0,0.4,0,0.8,0,1.2c0,0,0,0,0.1,0c0,0.1,0,0.2,0.1,0.3
			c0.1,0.1,0.2,0.1,0.3,0.2c0.7,0.9,1.6,1.4,1.6,3c-0.1,0-0.1,0.1-0.1,0.1c0,0-0.1,0-0.1,0c0,0,0,0,0,0.1c-0.1,0-0.2,0-0.3,0.1
			c0,0,0,0,0,0.1c-0.3,0-0.5,0-0.8,0.1c0,0,0,0,0,0.1c-0.5,0-0.9,0-1.4,0.1c-0.5,0.2-1,0.3-1.4,0.5c-1,0.4-2.3,1.1-3.7,0.6
			c-0.1-0.2-0.1-0.6-0.1-1c0,0,0,0,0.1,0c0-0.1,0-0.2,0-0.3c0,0,0,0,0.1,0c0,0,0-0.1,0-0.1c0,0,0,0,0.1,0c0-0.1,0-0.1,0-0.2
			c0,0,0.1,0,0.1-0.1c0-0.1,0-0.2,0.1-0.3c0.1,0,0.1-0.1,0.2-0.1c0,0,0-0.1,0-0.1c0.1-0.1,0.2-0.2,0.3-0.3c0,0,0-0.1,0-0.1
			c0.2-0.2,0.4-0.4,0.6-0.5c0,0,0-0.1,0-0.1c0.1-0.1,0.2-0.1,0.3-0.2c0,0,0-0.1,0-0.1c0,0,0.1,0,0.1-0.1c0,0,0-0.1,0-0.1
			c0,0,0.1,0,0.1-0.1c0-0.1,0-0.2,0.1-0.3c0,0,0,0,0.1,0c0-0.1,0-0.2,0.1-0.3c0,0,0.1,0,0.1,0c0-0.1,0-0.3,0.1-0.4c0,0,0,0,0.1,0
			c0-0.1,0-0.1,0-0.2c0,0,0,0,0.1,0c0-0.1,0-0.1,0-0.2c0,0,0,0,0.1,0c0-0.1,0-0.1,0-0.2c0,0,0,0,0.1,0c0-0.2,0-0.3,0.1-0.5
			c0,0,0,0,0.1,0c0-0.1,0-0.2,0-0.3c0,0,0,0,0.1,0c0-0.1,0-0.2,0-0.3c0.4-1.1,0.5-2.4,0.9-3.4c0-0.2,0-0.4,0.1-0.5c0,0,0,0,0.1,0
			c0-0.1,0-0.2,0-0.3c0,0,0,0,0.1,0c0-0.1,0-0.2,0-0.3c0,0,0,0,0.1,0c0-0.1,0-0.2,0-0.3c0,0,0,0,0.1,0c0-0.1,0-0.2,0-0.3
			c0,0,0,0,0.1,0c0-0.1,0-0.2,0-0.3c0.2-0.5,0.3-1.2,0.4-1.7c0-0.3,0-0.6,0.1-0.8c0,0,0,0,0.1,0c0-0.3,0-0.7,0.1-1c0,0,0,0,0.1,0
			c0-0.4,0-0.9,0.1-1.3c0,0,0,0,0.1,0c0,0,0,0,0-0.1c0,0,0,0-0.1,0c0-0.1,0-0.2-0.1-0.3c0,0,0,0-0.1,0c0-0.1,0-0.1,0-0.2
			c-0.1-0.3-0.4-0.7-0.4-1.1c0.2-0.2,0.3-0.7,0.5-1c0,0,0.1,0,0.1-0.1c0,0,0-0.1,0-0.1c0,0,0,0,0.1,0c0,0,0-0.1,0-0.1c0,0,0,0,0.1,0
			c0,0,0-0.1,0-0.1c0,0,0,0,0.1,0c0,0,0-0.1,0-0.1c0,0,0,0,0.1,0c0,0,0-0.1,0-0.1c0,0,0,0,0.1,0c0,0,0-0.1,0-0.1c0,0,0,0,0.1,0
			c0,0,0-0.1,0-0.1c0,0,0,0,0.1,0c0,0,0-0.1,0-0.1c0,0,0,0,0.1,0c0,0,0-0.1,0-0.1c0,0,0,0,0.1,0c0,0,0-0.1,0-0.1c0,0,0.1,0,0.1-0.1
			c0-0.1,0.1-0.3,0.1-0.4c0,0,0.1,0,0.1-0.1c0-0.1,0-0.2,0.1-0.3c0,0,0,0,0.1,0c0-0.1,0-0.1,0.1-0.2c0,0,0.1,0,0.1-0.1
			c0,0,0-0.1,0-0.1c0.3-0.3,0.5-0.6,0.8-1c0,0,0.1,0,0.1,0c0,0,0,0,0-0.1c0.2,0,0.5-0.1,0.7-0.1c0.7-0.3,1.6-0.4,2.4-0.7
			c0.3,0,0.6,0,0.8-0.1c0,0,0,0,0-0.1C177.6,27.9,177.9,28,178.1,27.9z"/>
		<path d="M204.9,28.7v-0.8h-0.1v-0.4h-0.1v-0.3h-0.1v-0.3h-0.1c-0.1-0.1-0.9-0.2-1.2-0.1c-0.5,0.2-0.8,0.6-1.1,0.9
			c-0.1,0.1-0.3,0.2-0.4,0.3c-0.5,0-1-0.2-1.4-0.3h-0.8v-0.1h-1v0.1H198v0.1h-0.5v0.1c-0.3,0-0.5,0-0.8,0.1V28h-0.3V28h-0.3v0.1H196
			v0.1h-0.3v0.1l-0.3,0.1v0.1c-0.1,0-0.2,0-0.3,0.1v0.1h-0.2v0.1c-0.1,0-0.3,0.1-0.4,0.1v0.1h-0.1v0.1c-0.1,0-0.3,0.1-0.4,0.1
			c0,0,0,0.1-0.1,0.1h-0.1v0.1h-0.1v0.1h-0.1v0.1h-0.1c0,0,0,0.1-0.1,0.1h-0.1v0.1H193c0,0,0,0.1-0.1,0.1c-0.1,0-0.2,0-0.3,0.1
			c0,0,0,0.1-0.1,0.1h-0.1c0,0,0,0.1-0.1,0.1h-0.1c0,0,0,0.1-0.1,0.1H192c0,0,0,0.1-0.1,0.1h-0.1l-0.1,0.1h-0.1
			c0,0.1-0.1,0.1-0.1,0.2h-0.1c0,0,0,0.1-0.1,0.1h-0.1c0,0,0,0.1-0.1,0.1c-0.1,0-0.1,0-0.2,0.1c0,0.1-0.1,0.1-0.1,0.2h-0.1
			c-0.1,0.1-0.1,0.2-0.2,0.3h-0.1c-0.1,0.1-0.1,0.2-0.2,0.3h-0.1c-0.1,0.1-0.2,0.2-0.3,0.3h-0.1c-0.1,0.2-0.3,0.3-0.4,0.5
			c-0.6,0.4-1.1,1-1.6,1.5c-0.3,0.2-0.5,0.5-0.8,0.7v0.1c-0.1,0.1-0.3,0.2-0.4,0.3v0.1c-0.1,0.1-0.2,0.2-0.3,0.3v0.1
			c-0.1,0.1-0.2,0.1-0.3,0.2v0.1c-0.1,0.1-0.2,0.1-0.3,0.2v0.1c-0.1,0-0.1,0.1-0.2,0.1v0.1c0,0-0.1,0-0.1,0.1V37
			c-0.1,0-0.1,0.1-0.2,0.1v0.1c0,0-0.1,0-0.1,0.1c0,0.1,0,0.1-0.1,0.2h-0.1v0.1c0,0-0.1,0-0.1,0.1v0.1c0,0-0.1,0-0.1,0.1v0.1
			c0,0-0.1,0-0.1,0.1c0,0.1,0,0.2-0.1,0.3c0,0-0.1,0-0.1,0.1c0,0.1-0.1,0.3-0.1,0.4c0,0-0.1,0-0.1,0.1v0.1h-0.1v0.1h-0.1v0.1h-0.1
			v0.1h-0.1v0.1h-0.1v0.1h-0.1V40h-0.1v0.1h-0.1v0.1H183c0,0.1-0.1,0.3-0.1,0.4h-0.1v0.2h-0.1V41h-0.1v0.2h-0.1v0.1h-0.1
			c0,0.1,0,0.3-0.1,0.4h-0.1V42h-0.1v0.2h-0.1v0.2h-0.1c-0.1,0.6-0.3,1.3-0.4,1.9v0.6h-0.1v0.8c0,0.8,0.1,1.5,0.3,2.1
			c0,0.2,0,0.4,0.1,0.5h0.1v0.2h0.1v0.2h0.1v0.2h0.1v0.2h0.1c0,0.1,0.1,0.3,0.1,0.4h0.1v0.1h0.1V50h0.1c0,0.1,0,0.2,0.1,0.3
			c0,0,0.1,0,0.1,0.1c0,0.1,0,0.2,0.1,0.3c0,0,0.1,0,0.1,0.1v0.1c0,0,0.1,0,0.1,0.1c0,0.1,0,0.1,0.1,0.2c0.1,0.1,0.2,0.1,0.3,0.2
			v0.1c0.1,0,0.1,0.1,0.2,0.1c0.2,0.2,0.3,0.4,0.5,0.6h0.1c0.1,0.1,0.1,0.2,0.2,0.3c0.6,0,1.3,0,1.9-0.1v-0.1h0.3v-0.1h0.3v-0.1h0.3
			V52h0.2V52c0.2,0,0.3,0,0.5-0.1v-0.1c0.1,0,0.2,0,0.3-0.1v-0.1h0.1v-0.1h0.2v-0.1c0.1,0,0.3-0.1,0.4-0.1v-0.1h0.1v-0.1h0.1v-0.1
			c0.1,0,0.3-0.1,0.4-0.1l0.1-0.1c0.1,0,0.2,0,0.3-0.1c0,0,0-0.1,0.1-0.1c0.1,0,0.2,0,0.3-0.1v-0.1c0.1,0,0.1,0,0.2-0.1
			c0,0,0-0.1,0.1-0.1h0.1c0,0,0-0.1,0.1-0.1h0.1c0,0,0-0.1,0.1-0.1h0.1c0,0,0-0.1,0.1-0.1h0.1c0-0.1,0.1-0.1,0.1-0.2h0.1
			c0,0,0-0.1,0.1-0.1h0.1c0-0.1,0.1-0.1,0.1-0.2h0.1v-0.1c0.1,0,0.1,0,0.2-0.1c0,0,0-0.1,0.1-0.1h0.1c0.1-0.1,0.1-0.2,0.2-0.3h0.1
			c0.5-0.6,1.1-1.1,1.6-1.7h0.1c0.1-0.1,0.2-0.3,0.3-0.4h0.1c0.1-0.1,0.1-0.2,0.2-0.3h0.1c0-0.1,0.1-0.1,0.1-0.2h0.1
			c0,0,0-0.1,0.1-0.1h0.1c0-0.1,0.1-0.1,0.1-0.2c0.1,0,0.2,0,0.3-0.1c0,0,0-0.1,0.1-0.1h0.1c0.3-0.1,0.4-0.3,0.8-0.3
			c-0.1,0.4-0.2,0.9-0.3,1.2c0,0.2,0,0.3-0.1,0.5c-0.4,1.1-0.8,2.3-0.8,3.9c0.2,0.2,0.3,0.4,0.5,0.5h0.1c0,0,0,0.1,0.1,0.1h0.1
			c0,0,0,0.1,0.1,0.1h0.1v0.1h0.1V52h0.2V52h0.2v0.1h0.3v0.1h0.4v0.1h1c0.3-0.1,0.7-0.2,1.1-0.2V52h0.1c0-0.3,0-0.6-0.1-0.9H201
			c-0.1-0.4,0-1.8,0.1-2.1c0-0.4,0.1-0.7,0.1-1.1h0.1c0-0.3,0.1-0.6,0.1-0.8h0.1l0.1-0.5h0.1v-0.2h0.1v-0.2h0.1V46h0.1v-0.2h0.1
			c0-0.2,0.1-0.5,0.1-0.7h0.1c0.2-0.8,0.4-1.6,0.5-2.4v-0.4c0.1-0.4,0.2-0.9,0.3-1.3v-0.6c0.1-0.4,0.1-1.1,0.3-1.5v-0.5
			c0.1-0.4,0.2-1,0.3-1.4v-0.5h0.1V36h0.1v-0.3h0.1v-0.4c0.2-0.5,0.3-1.2,0.5-1.7v-0.3h0.1v-0.3h0.1v-0.3h0.1v-0.3h0.1v-0.3h0.1
			v-0.3h0.1v-0.3h0.1v-0.3h0.1v-0.3h0.1l0.1-0.9h0.1V28.7L204.9,28.7z M200.7,31.8c0,0.2-0.1,0.5-0.1,0.7h-0.1
			c-0.1,0.2-0.1,0.4-0.1,0.6h-0.1v0.1h-0.1l-0.1,0.4h-0.1v0.2h-0.1v0.2H200v0.2h-0.1v0.2h-0.1v0.2h-0.1c0,0.2-0.1,0.4-0.1,0.6h-0.1
			v0.3h-0.1v0.2h-0.1v0.3h-0.1v0.3h-0.1v0.3h-0.1v0.3h-0.1v0.3h-0.1c0,0.3,0,0.5-0.1,0.8c-0.1,0.1-0.2,0.1-0.3,0.2
			c-0.5,0.6-1,1.1-1.6,1.7c-0.3,0.4-0.7,0.7-1,1.1H196v0.1c-0.1,0.1-0.2,0.1-0.3,0.2c-0.2,0.3-0.5,0.5-0.7,0.8h-0.1l-0.8,0.8H194
			c-0.3,0.3-0.6,0.6-0.9,1H193c-0.2,0.3-0.5,0.5-0.7,0.8c-0.1,0.1-0.3,0.2-0.4,0.3v0.1c-0.3,0.2-0.5,0.5-0.8,0.7V46
			c-0.1,0.1-0.2,0.2-0.3,0.3c-0.2,0.2-0.4,0.4-0.6,0.6h-0.1c-0.1,0.2-0.3,0.3-0.4,0.5h-0.1c-0.1,0.1-0.2,0.2-0.3,0.3h-0.1
			c-0.1,0.1-0.1,0.2-0.2,0.3h-0.1c-0.1,0.1-0.1,0.2-0.2,0.3h-0.1c-0.1,0.1-0.1,0.2-0.2,0.3h-0.1c0,0.1-0.1,0.1-0.1,0.2h-0.1
			c0,0,0,0.1-0.1,0.1h-0.1c0,0,0,0.1-0.1,0.1c-0.1,0-0.1,0-0.2,0.1v0.1c-0.1,0-0.3,0.1-0.4,0.1c0,0,0,0.1-0.1,0.1h-0.2v0.1h-0.1v0.1
			c-0.5,0.2-1.3,0.2-1.7-0.1c0,0,0-0.1-0.1-0.1c-0.1-0.1-0.2-0.1-0.3-0.2v-0.1c0,0-0.1,0-0.1-0.1c0-0.1-0.1-0.3-0.1-0.4h-0.1v-0.1
			H184v-0.2c-0.8-1.9-0.3-5,0.3-6.8c0-0.1,0-0.3,0.1-0.4h0.1v-0.1h0.1v-0.2h0.1c0-0.1,0.1-0.3,0.1-0.4h0.1v-0.1h0.1V40h0.1v-0.1h0.1
			v-0.1h0.1v-0.1h0.1v-0.1h0.1v-0.1h0.1v-0.1c0,0,0.1,0,0.1-0.1c0-0.1,0.1-0.3,0.1-0.4h0.1c0-0.1,0-0.1,0.1-0.2c0,0,0.1,0,0.1-0.1
			c0-0.1,0-0.2,0.1-0.3h0.1c0-0.1,0-0.1,0.1-0.2c0,0,0.1,0,0.1-0.1v-0.1c0.1,0,0.1-0.1,0.2-0.1v-0.1c0,0,0.1,0,0.1-0.1v-0.1
			c0.1,0,0.1-0.1,0.2-0.1V37c0.1,0,0.1-0.1,0.2-0.1v-0.1c0.1,0,0.1-0.1,0.2-0.1v-0.1c0.1-0.1,0.2-0.2,0.3-0.3V36
			c0.1,0,0.1-0.1,0.2-0.1v-0.1c0,0,0.1,0,0.1-0.1v-0.1c0.2-0.2,0.4-0.3,0.6-0.5V35c0.4-0.4,0.8-0.7,1.2-1.1c0.1-0.1,0.2-0.3,0.3-0.4
			h0.1c0.2-0.2,0.3-0.4,0.5-0.6h0.1c0,0,0-0.1,0.1-0.1h0.1c0-0.1,0.1-0.1,0.1-0.2h0.1c0.1-0.1,0.1-0.2,0.2-0.3h0.1
			c0,0,0-0.1,0.1-0.1h0.1l0.1-0.1h0.1c0-0.1,0.1-0.1,0.1-0.2h0.1c0,0,0-0.1,0.1-0.1h0.1c0-0.1,0.1-0.1,0.1-0.2h0.1
			c0,0,0-0.1,0.1-0.1c0.1,0,0.1,0,0.2-0.1v-0.1h0.1c0,0,0-0.1,0.1-0.1c0.1,0,0.1,0,0.2-0.1v-0.1c0.1,0,0.2,0,0.3-0.1
			c0,0,0-0.1,0.1-0.1c0.1,0,0.2,0,0.3-0.1c0,0,0-0.1,0.1-0.1h0.1v-0.1h0.1v-0.1h0.1v-0.1h0.1v-0.1h0.1v-0.1h0.1v-0.1h0.1V30
			c0.1,0,0.3-0.1,0.4-0.1v-0.1c0.5-0.2,1.1-0.4,1.6-0.6h0.3v-0.1h0.3v-0.1h0.4v-0.1c0.3-0.1,0.6,0.1,0.8-0.1c0.7,0,1.6,0.1,2,0.3
			c0,0,0,0.1,0.1,0.1h0.1c0,0,0,0.1,0.1,0.1h0.1c0,0,0.1,0.1,0.1,0.1C201.2,30.6,201,31.2,200.7,31.8z"/>
		<path d="M142.7,31.6c0,0-0.1,0-0.1-0.1v-0.1c0,0-0.1,0-0.1-0.1v-0.1c0,0-0.1,0-0.1-0.1V31c-0.1,0-0.1-0.1-0.2-0.1v-0.1
			c-0.2-0.1-0.3-0.3-0.5-0.4c-0.2-0.2-0.4-0.4-0.6-0.6h-0.1c0-0.1-0.1-0.1-0.1-0.2h-0.1c0,0,0-0.1-0.1-0.1h-0.1c0,0,0-0.1-0.1-0.1
			c-0.1,0-0.2,0-0.3-0.1v-0.1c-0.1,0-0.3-0.1-0.4-0.1v-0.1h-0.2v-0.1h-0.2v-0.1H139v-0.1h-0.3v-0.1h-0.3v-0.1h-0.3v-0.1h-0.3v-0.1
			h-0.5v-0.1h-0.7c-0.3-0.1-0.9-0.1-1.3-0.1c-0.7,0-1.7-0.1-2.3,0.1h-1v0.1h-0.8v0.1h-0.8v0.1c-0.3,0.1-0.7-0.1-0.8,0.1h-1.2
			c0,0.1,0,0.1-0.1,0.2c0,0-0.1,0-0.1,0.1V29c0,0-0.1,0-0.1,0.1c-0.1,0.1-0.2,0.2-0.3,0.3c-0.4,0.4-0.8,0.7-1.2,1.2
			c0,0-0.1,0-0.1,0.1v0.1h-0.1V31h-0.1v0.2h-0.1v0.2c-0.1,0.2-0.2,0.7-0.1,1h0.1l0.1,0.3c0.3,0.1,0.7,0.2,1,0.3
			c0.1,0.5-0.1,1.4-0.2,1.9v0.6h-0.1v0.6h-0.1c-0.1,1.1-0.2,2.2-0.3,3.4c-0.1,0.5-0.1,1.3-0.3,1.8v0.5c-0.1,0.7-0.3,1.5-0.4,2.2
			l-0.4,0.1v0.1h-0.6v0.1l-0.9,0.1c-0.2,0.1-0.4,0.2-0.5,0.3c-0.1,0.1-0.2,0.4-0.2,0.5v0.3h-0.1c-0.1,0.3,0.1,1,0.2,1.2h0.1v0.1
			c0.1,0,0.1,0.1,0.2,0.1v0.1h0.1c0,0,0,0.1,0.1,0.1h0.1c0,0.1,0.1,0.1,0.1,0.2h0.1c0,0,0,0.1,0.1,0.1h0.1v0.1h0.1
			c0.3,0.2,0.7,0.3,1.1,0.3v0.2h-0.1v0.8h-0.1v0.7h-0.1v0.7h-0.1v0.5h-0.1v0.6h-0.1v0.4h-0.1v0.5c-0.1,0.3-0.2,0.8-0.3,1.1v0.3
			c-0.1,0.5-0.3,1-0.4,1.4v0.3h-0.1v0.2h-0.1v0.2h-0.1v0.2h-0.1c0,0.1,0,0.3-0.1,0.4h-0.1v0.1H124l-0.1,0.4h-0.1v0.1h-0.1
			c0,0.1,0,0.3-0.1,0.4h-0.1v0.1h-0.1c-0.3,1-0.6,1.9-1,2.9c0.1,0.6,0.9,0.6,1.5,0.5h0.4v-0.1h0.9c0.1-0.2,0.3-0.4,0.4-0.5v-0.1
			c0,0,0.1,0,0.1-0.1c0.2-0.5,0.5-1.1,0.7-1.7l0.1-0.5h0.1V58h0.1c0-0.2,0-0.4,0.1-0.6c0.1-0.4,0.2-1.1,0.3-1.5v-0.6h0.1v-0.5h0.1
			V54h0.1v-0.8h0.1v-0.9h0.1v-1h0.1v-1h0.1v-0.9h0.1v-0.8h0.1V48c0.1-0.4,0.1-0.8,0.2-1.2c0.4,0,0.8-0.2,1.1-0.3
			c0.2,0,0.4,0,0.6-0.1c0.7-0.3,1.5-0.5,2.2-0.8h0.2v-0.1h0.2v-0.1h0.2v-0.1h0.2v-0.1h0.1v-0.1h0.2v-0.1c0.1,0,0.2,0,0.3-0.1v-0.1
			h0.1V45h0.2v-0.1c0.1,0,0.2,0,0.3-0.1v-0.1h0.2v-0.1c0.1,0,0.3-0.1,0.4-0.1v-0.1h0.1v-0.1h0.1v-0.1h0.1v-0.1h0.1v-0.1h0.1v-0.1
			h0.1v-0.1h0.1V44h0.1V44h0.1c0,0,0-0.1,0.1-0.1c0.1,0,0.2,0,0.3-0.1c0,0,0-0.1,0.1-0.1c0.1,0,0.2,0,0.3-0.1v-0.1
			c0.1,0,0.1,0,0.2-0.1c0,0,0-0.1,0.1-0.1h0.1c0,0,0-0.1,0.1-0.1h0.1c0-0.1,0.1-0.1,0.1-0.2h0.1c0-0.1,0.1-0.1,0.1-0.2h0.1
			c0.1-0.1,0.1-0.2,0.2-0.3h0.1c0.1-0.1,0.2-0.3,0.3-0.4h0.1c0.2-0.2,0.3-0.4,0.5-0.6c0.1-0.1,0.2-0.1,0.3-0.2v-0.1
			c0.1-0.1,0.3-0.2,0.4-0.3c0-0.1,0-0.1,0.1-0.2c0.1,0,0.1-0.1,0.2-0.1v-0.1c0,0,0.1,0,0.1-0.1v-0.1c0.1,0,0.1-0.1,0.2-0.1v-0.1
			c0,0,0.1,0,0.1-0.1c0-0.1,0-0.2,0.1-0.3c0,0,0.1,0,0.1-0.1c0-0.1,0.1-0.3,0.1-0.4c0,0,0.1,0,0.1-0.1v-0.1h0.1c0-0.1,0-0.2,0.1-0.3
			h0.1v-0.2h0.1v-0.1h0.1c0-0.1,0-0.2,0.1-0.3h0.1v-0.2h0.1v-0.1h0.1v-0.2h0.1v-0.2h0.1v-0.2h0.1v-0.2h0.1v-0.3
			c0.1-0.3,0.2-0.8,0.3-1.2v-0.4h0.1c0-0.5,0.1-1,0.1-1.4c0-0.3-0.1-0.7,0.1-0.8V31.6z M138.8,34.4L138.8,34.4l-0.1,0.5h-0.1v0.3
			h-0.1v0.3h-0.1v0.2h-0.1v0.2h-0.1l-0.1,0.4h-0.1c0,0.1,0,0.2-0.1,0.3h-0.1v0.2H138c0,0.1,0,0.2-0.1,0.3h-0.1v0.1
			c0,0-0.1,0-0.1,0.1c0,0.1-0.1,0.3-0.1,0.4c0,0-0.1,0-0.1,0.1v0.1c0,0-0.1,0-0.1,0.1V38c0,0-0.1,0-0.1,0.1v0.1h-0.1
			c0,0.1,0,0.1-0.1,0.2c0,0-0.1,0-0.1,0.1v0.1c-0.1,0.1-0.2,0.1-0.3,0.2V39c-0.1,0.1-0.2,0.2-0.3,0.3v0.1c-0.2,0.2-0.4,0.4-0.6,0.6
			c-0.2,0.2-0.4,0.5-0.6,0.7h-0.1c-0.1,0.1-0.1,0.2-0.2,0.3h-0.1c0,0.1-0.1,0.1-0.1,0.2h-0.1c0,0.1-0.1,0.1-0.1,0.2H134
			c0,0,0,0.1-0.1,0.1h-0.1c0,0,0,0.1-0.1,0.1c-0.1,0-0.2,0-0.3,0.1c0,0,0,0.1-0.1,0.1c-0.1,0-0.3,0.1-0.4,0.1V42
			c-0.1,0-0.3,0.1-0.4,0.1v0.1h-0.2v0.1h-0.1v0.1c-0.6,0.2-1.3,0.4-1.9,0.6H130V43h-0.2v0.1h-0.3v0.1h-0.3v0.1h-0.2v0.1h-0.2v0.1
			c-0.2,0.1-0.3,0.1-0.5,0.2h-0.1V40c0-0.6-0.1-1.4,0.1-1.9v-1.2c0-0.7,0.1-1.4,0.1-2.1h0.1v-0.6h0.1v-0.4h0.1v-0.3h0.1v-0.3h0.1
			v-0.3h0.1v-0.3h0.1c0-0.2,0-0.3,0.1-0.5h0.1c0.3-0.5,2-0.8,2.8-1c0.3-0.1,1,0,1.2-0.1c2.2,0,3.9,0.1,5,1.2
			c0.1,0.1,0.2,0.1,0.3,0.2c0,0.1,0,0.2,0.1,0.3h0.1v0.1h0.1V33h0.1v0.3h0.1V34.4z"/>
		<path d="M41.3,38.7c0.5-0.1,0.9-0.1,1.4-0.2c0,0,0,0,0-0.1c0.1,0,0.3,0,0.4,0c0.6-0.2,1.4-0.3,2-0.5c0.2,0,0.4,0,0.6-0.1
			c0.4-0.1,1-0.3,1.4-0.4c0.2,0,0.4,0,0.6-0.1c0,0,0,0,0-0.1c0.1,0,0.1,0,0.2,0c0,0,0,0,0-0.1c0.1,0,0.1,0,0.2,0c0,0,0,0,0-0.1
			c0.1,0,0.2,0,0.3,0c0,0,0,0,0-0.1c0.1,0,0.1,0,0.2,0c0,0,0,0,0-0.1c0.1,0,0.1,0,0.2,0c0,0,0,0,0-0.1c0.1,0,0.1,0,0.2,0
			c0,0,0,0,0-0.1c0.1,0,0.1,0,0.2,0c0,0,0,0,0-0.1c0.1,0,0.1,0,0.2,0c0,0,0,0,0-0.1c0.1,0,0.1,0,0.2,0c0,0,0,0,0-0.1
			c0.1,0,0.3,0,0.4-0.1c0,0,0,0,0-0.1c0,0,0.1,0,0.1,0c0,0,0,0,0-0.1c0.2-0.1,0.4-0.1,0.6-0.1c0-0.1,0-0.2-0.1-0.3c0,0,0,0-0.1,0
			c0-0.1,0-0.1,0-0.2c0,0-0.1,0-0.1-0.1c0-0.1,0-0.2-0.1-0.3c0,0-0.1,0-0.1-0.1c0,0,0-0.1,0-0.1c-0.1,0-0.1-0.1-0.2-0.1
			c0,0,0-0.1,0-0.1c0,0-0.1,0-0.1-0.1c-0.1-0.1-0.1-0.2-0.2-0.3c0,0-0.1,0-0.1,0c0-0.1-0.1-0.1-0.1-0.2c0,0-0.1,0-0.1,0
			c0,0,0-0.1-0.1-0.1c-0.1,0-0.1,0-0.2-0.1c0,0,0,0,0-0.1c-0.2-0.1-0.4-0.1-0.6-0.2c0,0,0,0,0-0.1c0,0-0.1,0-0.1,0c0,0,0,0,0-0.1
			c-0.1,0-0.1,0-0.2,0c0,0,0,0,0-0.1c-0.2,0-0.4,0-0.6-0.1c-0.3-0.1-1.4-0.3-1.8-0.1c0,0,0,0,0,0.1c-0.2,0-0.5,0-0.7,0.1
			c-1.7,0.6-2.9,1.9-3.6,3.6c0,0.1,0,0.1,0,0.2c0,0,0,0-0.1,0c0,0.1,0,0.1,0,0.2c0,0,0,0-0.1,0c0,0.1,0,0.1,0,0.2c0,0,0,0-0.1,0
			c0,0.1,0,0.1,0,0.2c0,0,0,0-0.1,0c0,0.1,0,0.2,0,0.3C41,38.9,40.8,40,41,40.7c0,0.1,0,0.3,0,0.4c0,0,0,0,0.1,0c0,0.1,0,0.2,0,0.3
			c0,0,0,0,0.1,0c0,0.1,0,0.1,0,0.2c0,0,0,0,0.1,0c0,0.1,0,0.1,0,0.2c0,0,0,0,0.1,0c0,0.1,0,0.1,0,0.2c0,0,0,0,0.1,0
			c0,0.1,0.1,0.3,0.1,0.4c0,0,0,0,0.1,0c0,0,0,0.1,0,0.1c0,0,0,0,0.1,0c0,0.1,0,0.2,0.1,0.3c0,0,0.1,0,0.1,0.1c0,0,0,0.1,0,0.1
			c0.1,0,0.1,0.1,0.2,0.1c0,0,0,0.1,0,0.1c0.2,0.2,0.4,0.3,0.6,0.5c0.1,0.1,0.2,0.3,0.3,0.4c0,0,0.1,0,0.1,0c0,0,0,0.1,0.1,0.1
			c0.1,0,0.1,0,0.2,0.1c0,0,0,0,0,0.1c0.1,0,0.2,0,0.3,0.1c0,0,0,0.1,0.1,0.1c0,0,0.1,0,0.1,0c0,0,0,0,0,0.1c0.1,0,0.1,0,0.2,0
			c0,0,0,0,0,0.1c0.1,0,0.2,0,0.3,0.1c0,0,0,0,0,0.1c0.1,0,0.1,0,0.2,0c0,0,0,0,0,0.1c0.1,0,0.2,0,0.3,0c0,0,0,0,0,0.1
			c0.1,0,0.1,0,0.2,0c0,0,0,0,0,0.1c0.1,0,0.2,0,0.3,0c0.6,0.2,1.5,0.2,2.1,0c0.1,0,0.3,0,0.4,0c0.5-0.2,1-0.3,1.4-0.5
			c0,0,0,0,0-0.1c0.1,0,0.2,0,0.3-0.1c0,0,0,0,0-0.1c0.1,0,0.2,0,0.3-0.1c0,0,0-0.1,0.1-0.1c0.1,0,0.2,0,0.3-0.1c0,0,0-0.1,0.1-0.1
			c0,0,0.1,0,0.1,0c0,0,0-0.1,0.1-0.1c0,0,0.1,0,0.1,0c0.1-0.1,0.1-0.2,0.2-0.3c0,0,0.1,0,0.1,0c0.2-0.2,0.3-0.4,0.5-0.6
			c0.1-0.1,0.2-0.2,0.3-0.3c0,0,0-0.1,0-0.1c0,0,0.1,0,0.1-0.1c0-0.1,0-0.2,0.1-0.3c0,0,0,0,0.1,0c0-0.1,0-0.1,0.1-0.2
			c0,0,0.1,0,0.1-0.1c0,0,0-0.1,0-0.1c0,0,0.1,0,0.1-0.1c0.1-0.1,0.1-0.2,0.2-0.3c0.1-0.1,0.2,0,0.3-0.1c0.1,0,0.1,0,0.1,0.1
			c0.2,0,0.4,0.2,0.4,0.4c0.2,0.2,0.1,0.4,0.1,0.7c0,0,0,0,0.1,0c0,0.8,0,1.6-0.1,2.3c-0.1,0.1-0.2,0.1-0.3,0.2c0,0,0,0.1-0.1,0.1
			c0,0-0.1,0-0.1,0c-0.1,0.1-0.1,0.2-0.2,0.3c0,0-0.1,0-0.1,0c0,0.1-0.1,0.1-0.1,0.2c0,0-0.1,0-0.1,0c0,0.1-0.1,0.1-0.1,0.2
			c0,0-0.1,0-0.1,0c0,0,0,0.1-0.1,0.1c0,0-0.1,0-0.1,0c0,0,0,0.1-0.1,0.1c0,0-0.1,0-0.1,0c0,0,0,0.1-0.1,0.1c0,0-0.1,0-0.1,0
			c0,0,0,0.1-0.1,0.1c-0.1,0-0.2,0-0.3,0.1c0,0,0,0.1-0.1,0.1c-0.1,0-0.3,0.1-0.4,0.1c0,0,0,0,0,0.1c0,0-0.1,0-0.1,0c0,0,0,0,0,0.1
			c0,0-0.1,0-0.1,0c0,0,0,0,0,0.1c-0.1,0-0.3,0.1-0.4,0.1c0,0,0,0,0,0.1c-0.1,0-0.1,0-0.2,0c0,0,0,0,0,0.1c0,0-0.1,0-0.1,0
			c0,0,0,0,0,0.1c-0.1,0-0.1,0-0.2,0c0,0,0,0,0,0.1c-0.1,0-0.1,0-0.2,0c0,0,0,0,0,0.1c-0.1,0-0.1,0-0.2,0c0,0,0,0,0,0.1
			c-0.1,0-0.2,0-0.3,0c0,0,0,0,0,0.1c-0.1,0-0.2,0-0.3,0c0,0,0,0,0,0.1c-0.1,0-0.2,0-0.3,0c0,0,0,0,0,0.1c-0.2,0-0.3,0-0.5,0
			C47,48.1,45.6,48,45,47.8c-0.2,0-0.5,0-0.7-0.1c0,0,0,0,0-0.1c-0.1,0-0.1,0-0.2,0c0,0,0,0,0-0.1c0,0-0.1,0-0.1,0c0,0,0,0,0-0.1
			c-0.1,0-0.1,0-0.2,0c0,0,0,0,0-0.1c0,0-0.1,0-0.1,0c0,0,0,0,0-0.1c0,0-0.1,0-0.1,0c0,0,0-0.1-0.1-0.1c-0.1,0-0.2,0-0.3-0.1
			c0,0,0-0.1-0.1-0.1c0,0-0.1,0-0.1,0c0,0,0-0.1-0.1-0.1c0,0-0.1,0-0.1,0c0-0.1-0.1-0.1-0.1-0.2c-1.5-1.1-2.6-2.5-3.2-4.5
			c0-0.4,0-0.9-0.1-1.3c-0.1-0.4,0-1.4,0.1-1.8c0-0.1,0-0.3,0-0.4c0,0,0,0,0.1,0c0-0.1,0-0.2,0-0.3c0,0,0,0,0.1,0c0-0.1,0-0.2,0-0.3
			c0,0,0,0,0.1,0c0-0.1,0-0.1,0-0.2c0,0,0,0,0.1,0c0-0.1,0-0.2,0-0.3c0,0,0,0,0.1,0c0-0.1,0-0.3,0.1-0.4c0,0,0,0,0.1,0
			c0,0,0-0.1,0-0.1c0,0,0,0,0.1,0c0-0.1,0-0.1,0-0.2c0,0,0,0,0.1,0c0,0,0-0.1,0-0.1c0,0,0,0,0.1,0c0-0.1,0-0.1,0-0.2c0,0,0,0,0.1,0
			c0-0.1,0.1-0.3,0.1-0.4c0,0,0,0,0.1,0c0-0.1,0.1-0.3,0.1-0.4c0,0,0.1,0,0.1-0.1c0-0.1,0-0.2,0.1-0.3c0,0,0.1,0,0.1-0.1
			c0-0.1,0-0.2,0.1-0.3c0,0,0.1,0,0.1-0.1c0,0,0-0.1,0-0.1c0.1,0,0.1-0.1,0.2-0.1c0,0,0-0.1,0-0.1c0.1,0,0.1-0.1,0.2-0.1
			c0,0,0-0.1,0-0.1c0.1-0.1,0.2-0.2,0.3-0.3c0,0,0-0.1,0-0.1c0.2-0.2,0.4-0.3,0.6-0.5c0.1-0.1,0.1-0.2,0.2-0.3c0,0,0.1,0,0.1,0
			c0-0.1,0.1-0.1,0.1-0.2c0,0,0.1,0,0.1,0c0,0,0-0.1,0.1-0.1c0,0,0.1,0,0.1,0c0,0,0-0.1,0.1-0.1c0.1,0,0.2,0,0.3-0.1c0,0,0,0,0-0.1
			c0.1,0,0.3-0.1,0.4-0.1c0,0,0,0,0-0.1c0.1,0,0.1,0,0.2,0c0,0,0,0,0-0.1c0,0,0.1,0,0.1,0c0,0,0,0,0-0.1c0.1,0,0.1,0,0.2,0
			c0,0,0,0,0-0.1c0.1,0,0.2,0,0.3,0c0,0,0,0,0-0.1c0.1,0,0.2,0,0.3,0c0,0,0,0,0-0.1c0.1,0,0.2,0,0.3,0c0,0,0,0,0-0.1
			c0.2,0,0.3,0,0.5,0c0,0,0,0,0-0.1c0.4-0.1,1.6,0.1,1.9,0.1c0.1,0,0.2,0,0.3,0c0,0,0,0,0,0.1c0.1,0,0.2,0,0.3,0c0,0,0,0,0,0.1
			c0.1,0,0.1,0,0.2,0c0,0,0,0,0,0.1c0.1,0,0.1,0,0.2,0c0,0,0,0,0,0.1c0.1,0,0.1,0,0.2,0c0,0,0,0,0,0.1c0.1,0,0.3,0.1,0.4,0.1
			c0,0,0,0,0,0.1c0,0,0.1,0,0.1,0c0,0,0,0,0,0.1c0,0,0.1,0,0.1,0c0,0,0,0,0,0.1c0.1,0,0.3,0.1,0.4,0.1c0,0,0,0.1,0.1,0.1
			c0,0,0.1,0,0.1,0c0,0.1,0.1,0.1,0.1,0.2c0,0,0.1,0,0.1,0c0.1,0.1,0.1,0.2,0.2,0.3c0,0,0.1,0,0.1,0c0.1,0.1,0.1,0.2,0.2,0.3
			c0,0,0,0,0.1,0c0,0,0,0.1,0,0.1c0.1,0.1,0.2,0.1,0.3,0.2c0,0,0,0.1,0,0.1c0.1,0,0.1,0.1,0.2,0.1c0,0.1,0.1,0.3,0.1,0.4
			c0,0,0.1,0,0.1,0.1c0,0.1,0,0.2,0.1,0.3c0,0,0,0,0.1,0c0,0,0,0.1,0,0.1c0,0,0,0,0.1,0c0,0.1,0,0.2,0.1,0.3c0,0,0,0,0.1,0
			c0,0.1,0,0.2,0,0.3c0,0,0,0,0.1,0c0,0.1,0,0.1,0,0.2c0,0,0,0,0.1,0c0,0.1,0,0.2,0,0.3c0,0,0,0,0.1,0c0.1,0.2,0,0.5,0.1,0.7
			c0,0,0,0-0.1,0c-0.2,0.2-0.3,0.1-0.6,0.1c0,0,0,0,0,0.1c-0.1,0-0.2,0-0.3,0c0,0,0,0,0,0.1c-0.1,0-0.2,0-0.3,0c0,0,0,0,0,0.1
			c-0.1,0-0.2,0-0.3,0c0,0,0,0,0,0.1c-0.1,0-0.2,0-0.3,0c0,0,0,0,0,0.1c-0.1,0-0.2,0-0.3,0c0,0,0,0,0,0.1c-0.1,0-0.2,0-0.3,0
			c0,0,0,0,0,0.1c-0.1,0-0.1,0-0.2,0c0,0,0,0,0,0.1c-0.2,0-0.4,0-0.5,0.1c-0.9,0.3-2,0.6-3,0.9c-0.4,0.1-0.8,0.1-1.2,0.2
			c0,0,0,0,0,0.1c-0.1,0-0.2,0-0.3,0c0,0,0,0,0,0.1c-0.1,0-0.1,0-0.2,0c0,0,0,0,0,0.1c-0.1,0-0.1,0-0.2,0c0,0,0,0,0,0.1
			c-0.1,0-0.1,0-0.2,0c0,0,0,0,0,0.1c-0.2,0-0.3,0-0.5,0.1c0,0,0,0,0,0.1c-0.3,0-0.6,0.1-0.9,0.1c0,0,0,0,0,0.1c-0.3,0-0.6,0-0.9,0
			c-0.2-0.1-0.3-0.2-0.5-0.2C41.6,39.2,41.4,39.1,41.3,38.7z"/>
		<path d="M17.5,43.6c-0.2,0-0.4,0.2-0.6,0.3c0,0-0.1,0-0.1,0c0,0,0,0,0,0.1c-0.1,0-0.1,0-0.2,0c0,0,0,0,0,0.1c0,0-0.1,0-0.1,0
			c0,0,0,0,0,0.1c-0.1,0-0.3,0.1-0.4,0.1c0,0,0,0,0,0.1c-0.1,0-0.1,0-0.2,0c0,0,0,0,0,0.1c0,0-0.1,0-0.1,0c0,0,0,0,0,0.1
			c-0.1,0-0.2,0-0.3,0.1c0,0,0,0,0,0.1c-0.3,0.1-0.6,0.2-0.8,0.3c0,0,0,0,0,0.1c-0.1,0-0.2,0-0.3,0.1c0,0,0,0,0,0.1
			c-0.1,0-0.1,0-0.2,0c0,0,0,0,0,0.1c-0.1,0-0.2,0-0.3,0.1c0,0,0,0,0,0.1c-0.1,0-0.1,0-0.2,0c0,0,0,0,0,0.1c0,0-0.1,0-0.1,0
			c0,0,0,0,0,0.1c-0.1,0-0.1,0-0.2,0c0,0,0,0,0,0.1c-0.1,0-0.2,0-0.3,0.1c0,0,0,0,0,0.1c-0.1,0-0.1,0-0.2,0c0,0,0,0,0,0.1
			c-0.1,0-0.2,0-0.3,0.1c0,0,0,0,0,0.1c-0.1,0-0.1,0-0.2,0c0,0,0,0,0,0.1c-0.1,0-0.2,0-0.3,0.1c0,0,0,0,0,0.1c-0.1,0-0.1,0-0.2,0
			c0,0,0,0,0,0.1c0,0-0.1,0-0.1,0c0,0,0,0,0,0.1c-0.1,0-0.1,0-0.2,0c0,0,0,0,0,0.1c-0.1,0-0.2,0-0.3,0.1c0,0,0,0,0,0.1
			c-0.1,0-0.1,0-0.2,0c0,0,0,0,0,0.1c-0.1,0-0.2,0-0.3,0.1c0,0,0,0,0,0.1c-0.2,0.1-0.5,0.1-0.7,0.2c0,0,0,0,0,0.1c0,0-0.1,0-0.1,0
			c0,0,0,0,0,0.1c-0.1,0-0.1,0-0.2,0c0,0,0,0,0,0.1c0,0-0.1,0-0.1,0c0,0,0,0,0,0.1c-0.1,0-0.1,0-0.2,0c0,0,0,0,0,0.1
			c-0.1,0-0.2,0-0.3,0.1c0,0,0,0,0,0.1c-0.1,0-0.1,0-0.2,0c0,0,0,0,0,0.1c-0.1,0-0.2,0-0.3,0.1c0,0,0,0,0,0.1c-0.1,0-0.1,0-0.2,0
			c0,0,0,0,0,0.1c-0.1,0-0.2,0-0.3,0.1c0,0,0,0,0,0.1c-0.1,0-0.1,0-0.2,0c0,0,0,0,0,0.1c0,0-0.1,0-0.1,0c0,0,0,0,0,0.1
			c-0.1,0-0.1,0-0.2,0c0,0,0,0,0,0.1c0,0-0.1,0-0.1,0c0,0,0,0,0,0.1c-0.1,0-0.1,0-0.2,0c0,0,0,0,0,0.1c0,0-0.1,0-0.1,0
			c0,0,0,0,0,0.1C7,48,7,48,6.9,48c0,0,0,0,0,0.1c-0.1,0-0.1,0-0.2,0c0,0,0,0,0,0.1c-0.1,0-0.1,0-0.2,0c0,0,0,0,0,0.1
			c-0.1,0-0.2,0-0.3,0c0,0,0,0,0,0.1c-0.1,0-0.1,0-0.2,0c0,0,0,0,0,0.1c-0.1,0-0.2,0-0.3,0c0,0,0,0,0,0.1c-0.1,0-0.2,0-0.3,0
			c0,0,0,0,0,0.1c-0.2,0-0.5,0-0.7,0c0,0,0,0,0,0.1c-0.2,0-0.4,0-0.6,0c0,0,0,0,0-0.1c-0.3,0-0.6,0-1-0.1c0,0,0,0,0-0.1
			c-0.1,0-0.2,0-0.3,0c0,0,0,0,0-0.1c-0.1,0-0.3,0-0.4-0.1c0,0,0,0,0-0.1c-0.1,0-0.2,0-0.3-0.1c0,0,0,0,0-0.1C2,48,1.9,48,1.8,48
			c0,0,0,0,0-0.1c-0.1,0-0.3-0.1-0.4-0.1c0,0,0-0.1-0.1-0.1c0,0-0.1,0-0.1,0c0,0,0-0.1-0.1-0.1c-0.1-0.1-0.2-0.2-0.3-0.3
			c0,0,0-0.1,0-0.1c0,0-0.1,0-0.1-0.1c0-0.1,0-0.1-0.1-0.2c0,0,0,0-0.1,0c0,0,0-0.1,0-0.1c0,0,0,0-0.1,0c0-0.1,0-0.2-0.1-0.3
			c0,0,0,0-0.1,0c0-0.1,0-0.3-0.1-0.4c0,0,0,0-0.1,0c0-0.1,0-0.2,0-0.3c0,0,0,0-0.1,0c0-0.2,0-0.4,0-0.6c0,0,0,0-0.1,0
			c0-0.3,0-0.6,0.1-0.9c0,0,0,0,0.1,0c0-0.3,0.1-0.6,0.1-0.9c0,0,0,0,0.1,0c0-0.1,0-0.3,0.1-0.4c0,0,0,0,0.1,0c0,0,0-0.1,0-0.1
			c0,0,0,0,0.1,0c0-0.1,0-0.1,0-0.2c0,0,0,0,0.1,0c0-0.1,0.1-0.3,0.1-0.4c0,0,0,0,0.1,0c0,0,0-0.1,0-0.1c0,0,0,0,0.1,0
			c0,0,0-0.1,0-0.1c0,0,0,0,0.1,0c0,0,0-0.1,0-0.1c0,0,0,0,0.1,0c0-0.1,0.1-0.3,0.1-0.4c0,0,0.1,0,0.1-0.1c0-0.1,0.1-0.3,0.1-0.4
			c0,0,0,0,0.1,0c0-0.1,0-0.1,0.1-0.2c0,0,0.1,0,0.1-0.1c0,0,0-0.1,0-0.1c0,0,0.1,0,0.1-0.1c0,0,0-0.1,0-0.1c0,0,0,0,0.1,0
			C2,40.1,2,40,2,40c0,0,0.1,0,0.1-0.1c0,0,0-0.1,0-0.1c0.1,0,0.1-0.1,0.2-0.1c0,0,0-0.1,0-0.1c0,0,0.1,0,0.1-0.1c0,0,0-0.1,0-0.1
			c0.1,0,0.1-0.1,0.2-0.1c0,0,0-0.1,0-0.1c0.1-0.1,0.2-0.1,0.3-0.2c0,0,0-0.1,0-0.1c0,0,0.1,0,0.1-0.1c0,0,0,0,0-0.1
			c0,0,0.1,0,0.1-0.1c0,0,0-0.1,0-0.1c0.1-0.1,0.2-0.1,0.3-0.2c0,0,0-0.1,0-0.1c0.1-0.1,0.2-0.2,0.3-0.3c0,0,0-0.1,0-0.1
			c0.1-0.1,0.3-0.2,0.4-0.3c0,0,0-0.1,0-0.1c0.2-0.2,0.5-0.4,0.7-0.6c0.1-0.1,0.2-0.3,0.3-0.4c0,0,0.1,0,0.1,0
			c0.1-0.1,0.2-0.3,0.3-0.4c0.1,0,0.1,0,0.2-0.1c0-0.1,0.1-0.1,0.1-0.2c0,0,0.1,0,0.1,0c0-0.1,0.1-0.1,0.1-0.2c0,0,0.1,0,0.1,0
			c0,0,0-0.1,0.1-0.1c0,0,0.1,0,0.1,0c0-0.1,0.1-0.1,0.1-0.2c0,0,0.1,0,0.1,0c0,0,0-0.1,0.1-0.1c0.1,0,0.2,0,0.3-0.1c0,0,0,0,0-0.1
			c0.1,0,0.1,0,0.2-0.1c0,0,0-0.1,0.1-0.1c0.1,0,0.2,0,0.3-0.1c0,0,0-0.1,0.1-0.1c0.1,0,0.3-0.1,0.4-0.1c0,0,0-0.1,0.1-0.1
			c0,0,0.1,0,0.1,0c0,0,0,0,0-0.1c0,0,0.1,0,0.1,0c0,0,0,0,0-0.1c0,0,0.1,0,0.1,0c0,0,0,0,0-0.1c0,0,0.1,0,0.1,0c0,0,0-0.1,0.1-0.1
			c0.4-0.2,0.7-0.3,1.1-0.5c0,0,0-0.1,0.1-0.1c0,0,0.1,0,0.1,0c0,0,0,0,0-0.1c0,0,0.1,0,0.1,0c0,0,0,0,0-0.1c0,0,0.1,0,0.1,0
			c0,0,0,0,0-0.1c0,0,0.1,0,0.1,0c0,0,0,0,0-0.1c0,0,0.1,0,0.1,0c0,0,0-0.1,0.1-0.1c0,0,0.1,0,0.1,0c0,0,0,0,0-0.1c0,0,0.1,0,0.1,0
			c0,0,0,0,0-0.1c0,0,0.1,0,0.1,0c0,0,0-0.1,0.1-0.1c0,0,0.1,0,0.1,0c0,0,0-0.1,0.1-0.1c0.4,0,0.8,0,1.2,0c0,0,0,0,0,0.1
			c0,0,0.1,0,0.1,0c0.1,0,0.1,0.1,0.2,0.2c0.1,0.1,0,0,0.1,0.2c0,0,0,0,0.1,0c0,0.1,0,0.1,0,0.2c0,0,0,0,0.1,0c0,0.2,0,0.4,0,0.6
			c0,0,0,0,0.1,0c0,0.2,0,0.4,0,0.6c0,0,0,0-0.1,0c0,0.2,0,0.3,0,0.5c0,0,0,0-0.1,0c0,0.1,0,0.2,0,0.3c0,0,0,0-0.1,0
			c0,0.1,0,0.3-0.1,0.4c0,0,0,0-0.1,0c0,0.1,0,0.2-0.1,0.3c0,0,0,0-0.1,0c0,0,0,0.1,0,0.1c-0.1,0.1-0.2,0.2-0.3,0.3
			c0,0.1-0.1,0.1-0.1,0.2c-0.2,0-0.3,0-0.5,0c-0.1-0.1-0.1-0.2-0.2-0.3c0,0,0,0-0.1,0c0-0.2,0-0.4-0.1-0.6c-0.1-0.2-0.2-0.5-0.3-0.8
			c-0.4,0.1-0.7,0.3-1,0.4c-0.2,0.1-0.4,0.1-0.6,0.2c0,0,0,0,0,0.1c-0.2,0-0.3,0.1-0.5,0.1c0,0,0,0.1-0.1,0.1c0,0-0.1,0-0.1,0
			c0,0,0,0,0,0.1c0,0-0.1,0-0.1,0c0,0,0,0,0,0.1c0,0-0.1,0-0.1,0c0,0,0,0,0,0.1c0,0-0.1,0-0.1,0c0,0,0,0,0,0.1c0,0-0.1,0-0.1,0
			c0,0,0,0.1-0.1,0.1c0,0-0.1,0-0.1,0c0,0,0,0,0,0.1c0,0-0.1,0-0.1,0c0,0,0,0.1-0.1,0.1c0,0-0.1,0-0.1,0c0,0,0,0.1-0.1,0.1
			c0,0-0.1,0-0.1,0c0,0.1-0.1,0.1-0.1,0.2c0,0-0.1,0-0.1,0c0,0.1-0.1,0.1-0.1,0.2c0,0-0.1,0-0.1,0c-0.1,0.1-0.2,0.3-0.3,0.4
			c0,0-0.1,0-0.1,0c0,0,0,0.1-0.1,0.1c0,0,0,0-0.1,0c0,0,0,0.1,0,0.1c-0.1,0.1-0.2,0.2-0.3,0.3c0,0,0,0.1,0,0.1
			c-0.1,0.1-0.2,0.1-0.3,0.2c0,0,0,0.1,0,0.1c0,0-0.1,0-0.1,0.1c0,0,0,0.1,0,0.1c0,0-0.1,0-0.1,0.1c0,0,0,0.1,0,0.1
			c0,0-0.1,0-0.1,0.1c0,0,0,0.1,0,0.1c0,0-0.1,0-0.1,0.1c0,0,0,0.1,0,0.1c0,0-0.1,0-0.1,0.1c0,0.1-0.1,0.3-0.1,0.4
			c0,0-0.1,0-0.1,0.1c0,0.1-0.1,0.3-0.1,0.4c0,0,0,0-0.1,0c0,0,0,0.1,0,0.1c0,0,0,0-0.1,0c0,0.1-0.1,0.3-0.1,0.4c0,0,0,0-0.1,0
			c0,0.1,0,0.2-0.1,0.3c0,0,0,0-0.1,0c0,0,0,0.1,0,0.1c0,0,0,0-0.1,0c0,0.1,0,0.1,0,0.2c0,0,0,0-0.1,0c0,0,0,0.1,0,0.1
			c0,0,0,0-0.1,0c0,0.1,0,0.3-0.1,0.4c-0.4,0.9-0.7,2.7-0.1,3.7c0,0.1,0.1,0.3,0.1,0.4c0,0,0.1,0,0.1,0.1c0,0.1,0,0.1,0.1,0.2
			c0.1,0,0.2,0,0.3,0c0,0,0,0,0-0.1c0.3,0,0.7-0.1,1-0.1c0.6-0.2,1.2-0.4,1.7-0.6c0,0,0,0,0-0.1c0.1,0,0.2,0,0.3-0.1c0,0,0,0,0-0.1
			c0.1,0,0.2,0,0.3-0.1c0,0,0,0,0-0.1c0,0,0.1,0,0.1,0c0,0,0,0,0-0.1c0,0,0.1,0,0.1,0c0,0,0,0,0-0.1c0,0,0.1,0,0.1,0c0,0,0,0,0-0.1
			c0,0,0.1,0,0.1,0c0,0,0,0,0-0.1c0.1,0,0.2,0,0.3-0.1c0,0,0-0.1,0.1-0.1c0.1,0,0.3-0.1,0.4-0.1c0,0,0-0.1,0.1-0.1
			c0.1,0,0.2,0,0.3-0.1c0,0,0-0.1,0.1-0.1c0.1,0,0.2,0,0.3-0.1c0,0,0-0.1,0.1-0.1c0.1,0,0.2,0,0.3-0.1c0,0,0-0.1,0.1-0.1
			c0,0,0.1,0,0.1,0c0,0,0-0.1,0.1-0.1c0,0,0.1,0,0.1,0c0,0,0-0.1,0.1-0.1c0.1,0,0.2,0,0.3-0.1c0,0,0-0.1,0.1-0.1c0,0,0.1,0,0.1,0
			c0,0,0-0.1,0.1-0.1c0,0,0.1,0,0.1,0c0,0,0-0.1,0.1-0.1c0.1,0,0.2,0,0.3-0.1c0,0,0,0,0-0.1c0.1,0,0.1,0,0.2-0.1c0,0,0-0.1,0.1-0.1
			c0.1,0,0.2,0,0.3-0.1c0,0,0-0.1,0.1-0.1c0.1,0,0.2,0,0.3-0.1c0,0,0-0.1,0.1-0.1c0.1,0,0.3-0.1,0.4-0.1c0,0,0-0.1,0.1-0.1
			c0.1,0,0.2,0,0.3-0.1c0,0,0,0,0-0.1c0,0,0.1,0,0.1,0c0,0,0,0,0-0.1c0.1,0,0.3-0.1,0.4-0.1c0,0,0,0,0-0.1c0.1,0,0.1,0,0.2,0
			c0,0,0,0,0-0.1c0.1,0,0.2,0,0.3-0.1c0,0,0,0,0-0.1c0.6-0.2,1.2-0.4,1.9-0.6c0.1,0,0.3,0,0.4,0.1c0.1,0.2,0.1,0,0.2,0.1
			c0.1,0.2,0.2,0.3,0.3,0.5c0,0,0,0.1,0,0.1c0,0,0,0,0.1,0c0,0.1,0,0.1,0,0.2C17.8,42.2,17.6,42.8,17.5,43.6z"/>
		<path d="M30.1,36.7c0-1.4,0-2.9,0.1-4.3h-0.1v-0.3c-0.1-0.1-0.2-0.3-0.3-0.4c-0.2-0.1-0.3-0.1-0.7-0.1c-0.1,0.1-0.3,0.2-0.4,0.3
			V32c0,0-0.1,0-0.1,0.1v0.1h-0.1c-0.2,0.2-1.2-0.2-1.7-0.1v0.1h-0.6v0.1H26v0.1h-0.3v0.1c-0.1,0-0.3,0-0.4,0.1v0.1h-0.1v0.1h-0.2
			v0.1c-0.1,0-0.3,0.1-0.4,0.1v0.1h-0.1v0.1c-0.1,0-0.2,0-0.3,0.1c0,0,0,0.1-0.1,0.1h-0.1l-0.1,0.1h-0.1v0.1l-0.2,0.1l-0.1,0.1h-0.1
			c-0.1,0.1-0.1,0.2-0.2,0.3h-0.1c-0.1,0.1-0.2,0.2-0.3,0.3h-0.1c-0.1,0.1-0.2,0.2-0.3,0.3c-0.2,0.2-0.5,0.4-0.7,0.6v0.1
			c-0.1,0.1-0.3,0.2-0.4,0.3v0.1c-0.1,0.1-0.2,0.1-0.3,0.2v0.1c-0.1,0-0.1,0.1-0.2,0.1v0.1c-0.1,0-0.1,0.1-0.2,0.1v0.1
			c0,0-0.1,0-0.1,0.1v0.1c0,0-0.1,0-0.1,0.1c0,0.1,0,0.1-0.1,0.2h-0.1v0.1H20v0.1c0,0-0.1,0-0.1,0.1c0,0.1-0.1,0.3-0.1,0.4
			c0,0-0.1,0-0.1,0.1c0,0.1-0.1,0.3-0.1,0.4h-0.1v0.1h-0.1c0,0.1-0.1,0.3-0.1,0.4h-0.1v0.2H19v0.1H19c0,0.1,0,0.2-0.1,0.3h-0.1v0.2
			h-0.1V40h-0.1v0.2h-0.1v0.3h-0.1v0.3h-0.1v0.3h-0.1v0.6c-0.1,0.2-0.2,1.7-0.1,2h0.1c0,0.5,0.1,0.9,0.1,1.4
			c0.4,1.4,0.9,2.7,2.2,3.2h0.5v0.1h0.3v-0.1h0.6v-0.1c0.1,0,0.3,0,0.4-0.1V48c0.1,0,0.3-0.1,0.4-0.1v-0.1c0.1,0,0.2,0,0.3-0.1
			c0-0.1,0.1-0.1,0.1-0.2h0.1c0.1-0.1,0.2-0.2,0.3-0.3h0.1c0,0,0-0.1,0.1-0.1c0.1-0.1,0.2-0.2,0.3-0.3v-0.1c0.2-0.1,0.3-0.3,0.5-0.4
			v-0.1c0.1-0.1,0.2-0.1,0.3-0.2v-0.1c0.1-0.1,0.2-0.1,0.3-0.2v-0.1c0.1-0.1,0.2-0.2,0.3-0.3V45c0.1-0.1,0.2-0.2,0.3-0.3
			c0.4-0.4,0.6-0.8,1.2-1v2.1h-0.1V47h0.1c0,0.3,0,0.6,0.1,0.8h0.1V48h0.1v0.1h0.1v0.1h0.1c0.1,0.1,0.1,0.2,0.2,0.3
			c0.8,0,1-0.5,1.7-0.6c0-0.5,0-1.1-0.1-1.7h0.1v-0.8h0.1v-0.6c0.2-0.6,0.2-1.5,0.4-2.1c0-0.6,0-1.1,0.1-1.7
			c0.1-0.4,0.1-1.2,0.1-1.7V39h0.1v-2h-0.1V36.7z M28,35.4L28,35.4c-0.1,0.3-0.1,0.6-0.1,0.9h-0.1c0,0.3,0,0.6-0.1,0.8h-0.1
			c-0.1,0.3,0,0.8-0.1,1v1c0,0-0.1,0-0.1,0.1v0.1c-0.1,0.1-0.2,0.2-0.3,0.3v0.1c-0.1,0.1-0.2,0.1-0.3,0.2v0.1
			c-0.1,0-0.1,0.1-0.2,0.1v0.1c-0.1,0-0.1,0.1-0.2,0.1v0.1c-0.1,0-0.1,0.1-0.2,0.1v0.1C26,41,26,41,25.9,41.1v0.1
			c-0.1,0-0.1,0.1-0.2,0.1v0.1c0,0-0.1,0-0.1,0.1v0.1c0,0-0.1,0-0.1,0.1c0,0.1,0,0.1-0.1,0.2c-0.1,0-0.1,0.1-0.2,0.1v0.1
			c-0.1,0-0.1,0.1-0.2,0.1c0,0.1,0,0.1-0.1,0.2c0,0-0.1,0-0.1,0.1v0.1c-0.1,0-0.1,0.1-0.2,0.1v0.1c-0.1,0-0.1,0.1-0.2,0.1v0.1
			c-0.1,0-0.1,0.1-0.2,0.1v0.1c-0.1,0.1-0.2,0.2-0.3,0.3c-0.2,0.3-0.4,0.6-0.6,0.8c-0.4,0.4-0.9,0.8-1.3,1.2
			c-0.2,0.2-0.7,0.3-0.8,0.6h-0.3c-0.1-0.1-0.3-0.2-0.4-0.3c0-0.1,0-0.1-0.1-0.2c-0.1,0-0.1-0.1-0.2-0.1v-0.1c0,0-0.1,0-0.1-0.1
			c0-0.1,0-0.2-0.1-0.3h-0.1v-0.1h-0.1v-0.3c-0.2-0.6-0.4-2-0.2-2.9v-0.6h0.1v-0.3h0.1v-0.3h0.1v-0.3h0.1v-0.2h0.1v-0.2h0.1v-0.2
			h0.1c0-0.1,0-0.3,0.1-0.4h0.1v-0.1h0.1v-0.2h0.1c0-0.1,0.1-0.3,0.1-0.4h0.1v-0.1h0.1v-0.1h0.1v-0.1h0.1c0-0.1,0.1-0.3,0.1-0.4
			c0,0,0.1,0,0.1-0.1c0-0.1,0-0.2,0.1-0.3H21c0-0.1,0-0.1,0.1-0.2c0,0,0.1,0,0.1-0.1v-0.1h0.1c0-0.1,0-0.1,0.1-0.2
			c0,0,0.1,0,0.1-0.1v-0.1c0.1,0,0.1-0.1,0.2-0.1v-0.1c0.1-0.1,0.2-0.1,0.3-0.2v-0.1c0.1-0.1,0.2-0.1,0.3-0.2v-0.1
			c0.2-0.2,0.4-0.3,0.6-0.5v-0.1c0.1-0.1,0.2-0.1,0.3-0.2c0.2-0.2,0.4-0.4,0.6-0.6h0.1c0.2-0.2,0.3-0.4,0.5-0.5c0.1,0,0.2,0,0.3-0.1
			v-0.1c0.2,0,0.4,0,0.6-0.1v-0.1c0.3,0,0.5-0.1,0.8-0.1c0.3-0.1,1.1-0.4,1.6-0.2c0.2,0.1,0.4,0.2,0.7,0.3
			C28.1,34.1,28,34.8,28,35.4z"/>
	</g>
</g>
<g id="Layer_2">
	<path class="st0" d="M241.5,71.1c-2.2-1.8-6-3-6-3l-2.2-0.2l0,0.8c0,0,0.8-0.1,1.3,0.3c0.5,0.1,0.7,0.4,1.1,0.6
		c0.5,0.4,2.2,2,3.1,3c0.7,0.9,4.4,3.3,4.4,3.3l3.9,1.9C247.1,77.8,243.5,73,241.5,71.1z M255.3,70.7c-0.3-0.4-2.5-1.8-4.1-2.5
		c-1.3-0.6-3.5-1-4.7-1.2c-1.1-0.2-3.4-0.2-4.4-0.3c-0.9,0-3.9,0.2-4.6,0.3l0.6-0.3c0,0,1.7-1.1,2.1-1.2c0.4-0.1,4.2-2.1,4.8-2.3
		c0.6-0.2,3.9-1.9,3.9-1.9l-5.1,1.4c0,0-3,0.9-3.4,1c-0.4,0.1-0.2-0.2-0.2-0.2l0.5-0.7c0,0,0.6-1.2,0.6-1.3c0.1-0.3,0.6-0.4,0.6-0.4
		s0-0.3,0-0.5c0.3-0.5,0.7-1.1,0.9-1.3c0.4-0.5,0.7-1,1.1-1.7c0.6-0.7,1.2-1.3,1.5-1.6c0.3-0.4,0.5-1.2,0.7-1.7
		c0.2-0.4,0.2-1.3,0.6-2.3c0.4-0.6,1.4-2.5,1.4-2.5l1.3-2c0,0-1.1,1.1-1.5,1.6c-0.3,0.4-1.6,2.1-2.3,3.1c-0.7,1-1.2,2.6-1.3,2.9
		c-0.1,0.3-0.2,1.4-0.4,1.9c-0.1,0.1-0.5,0.1-0.5,0.1s0-1.7-0.1-1.9c-0.2-0.4-0.3-1-0.5-1.7c-0.3-1.1-1.2-2.4-1.2-2.4
		s-0.1,2.1,0.1,2.8c0.2,1.1,0.9,2.4,1,3.2c0.1,0.8,0,1.8,0,1.8l-1,1.5l-0.5,0.1c0,0,0,0.3-0.1,0.5c-0.5,1.2-1.4,2.9-1.6,3
		c-0.1,0.2,0,0.5-0.1,0.8c-0.9,0.8-1.5,1.5-1.9,2c-0.3,0.2-0.3,0.7-0.3,0.7l0.1,0l-0.6,0.5c0,0,2.5-0.6,5.2-0.6c2.1,0,4.6,0.5,5,0.6
		c0.4,0.1,2.3,1,2.9,1.5c1.1,0.8,0.9,0.9,2.1,1.5c1,0.7,1.9,1.2,3.7,1.7c1.2,0.4,3.8,2.3,3.8,2.3S255.7,71.1,255.3,70.7z
		 M250.4,72.4c-1-0.6-1.5-1.2-2.2-1.8c-0.5-0.5-1-0.9-1.7-1.5c-0.7-0.4-2.4-0.9-2.4-0.9l-2.2-0.7l-0.4-0.4v0.6h0.4
		c0,0,1.2,1.3,1.6,1.8c0.4,0.5,1,1,1.8,1.6c0.7,0.3,1.6,0.8,2.1,1.1c0.4,0.3,0.8,0.6,1.9,0.6c0.3,0.1,0.8,0.2,1.7,0.8
		c0.5,0.5,0.7,0.7,1,0.9c0.3,0.2,0.6,0.4,0.6,0.4l-1.1-1.5C251.5,73.5,251,73.1,250.4,72.4z M248.2,66c1.4,0,2.4-0.3,3.3-0.6
		c0.6-0.4,2.6-0.4,2.6-0.4s-1-0.5-2.1-0.5c-1.1,0-2.3-0.3-3-0.3c-0.7,0-2.2,0.6-3,0.8c-1,0.2-2.5,1-2.5,1S246.9,66,248.2,66z
		 M244.3,52.3c0-0.6,0-1,0.2-1.5c0.1-0.9,0.2-3.2,0.2-3.2s-0.6,1.7-0.8,2.7c-0.2,1-0.1,3.3-0.1,3.3S244.2,53.1,244.3,52.3z
		 M266.8,50.8c0,0-7.4-0.2-8.4,0.2c-2.7,0.9-4.5,2.3-5.3,2.8c-0.4,0.2-2,1.1-3.4,1.9c0.1-0.1,0.2-0.1,0.2-0.2
		c0.5-0.5,1.2-1.4,1.8-2.2c0.6-0.8,1.4-1.7,1.7-2.5c0.4-0.8,2-3.4,2-3.4s-3.1,2.2-5.3,4.5c-1.2,1.2-3,5.3-3,5.3
		c-1.8,1.5-3.5,3.7-3.5,3.7l0.4,0.2c0,0,1.9-2.3,2.5-2.8c0,0,0,0,0.1,0l-0.1,0.1l0.5,0.2c0,0,0.1,0.2,0.2,0.2c0.1,0,1.8-0.1,2,0.3
		c0.9,0.4,2,0.8,3.3,1.2c0.7,0.3,2,0.2,3,0.3c1,0.1,3.9,1.2,3.9,1.2s-2-1.3-2.8-1.7c-0.7-0.4-3.5-1.8-4.7-1.8
		c-1-0.1-4.4,0.1-5.1,0.1c0.1,0,0.1,0,0.2-0.1c0.3-0.3,1.4-1.1,2.4-1.7c0.4-0.3,3.3-1.8,3.6-2c0.4-0.3,1.2-0.1,1.9-0.1
		c0.7,0,3.9-0.1,4.7-0.3c2.4-0.6,3.9-1.4,5.5-1.8c1.1-0.3,2-0.8,5-0.9C269.8,51.2,266.8,50.8,266.8,50.8z"/>
	<g>
		<path class="st0" d="M241.5,71.1c-2.2-1.8-6-3-6-3l-2.2-0.2l0,0.8c0,0,0.8-0.1,1.3,0.3c0.5,0.1,0.7,0.4,1.1,0.6
			c0.5,0.4,2.2,2,3.1,3c0.7,0.9,4.4,3.3,4.4,3.3l3.9,1.9C247.1,77.8,243.5,73,241.5,71.1z M255.3,70.7c-0.4-0.4-2.5-1.8-4.1-2.5
			c-1.3-0.6-3.5-1-4.7-1.2c-1.1-0.2-3.4-0.2-4.4-0.3c-0.9,0-3.9,0.2-4.6,0.3l0.6-0.3c0,0,1.7-1.1,2.1-1.2c0.4-0.1,4.2-2.1,4.8-2.3
			c0.6-0.2,3.9-1.9,3.9-1.9l-5.1,1.4c0,0-3,0.9-3.4,1c-0.4,0.1-0.2-0.2-0.2-0.2l0.5-0.7c0,0,0.6-1.2,0.6-1.3
			c0.1-0.3,0.6-0.4,0.6-0.4s0-0.3,0-0.5c0.3-0.5,0.7-1.1,0.9-1.3c0.4-0.5,0.7-1,1.1-1.7c0.6-0.7,1.2-1.3,1.5-1.6
			c0.3-0.4,0.5-1.2,0.7-1.7c0.2-0.4,0.2-1.3,0.6-2.3c0.4-0.6,1.4-2.5,1.4-2.5l1.3-2c0,0-1.1,1.1-1.5,1.6c-0.3,0.4-1.6,2.1-2.3,3.1
			c-0.7,1-1.2,2.6-1.3,2.9c-0.1,0.3-0.2,1.4-0.4,1.9c-0.1,0.1-0.5,0.1-0.5,0.1s0-1.7-0.1-1.9c-0.2-0.4-0.3-1-0.5-1.7
			c-0.3-1.1-1.2-2.4-1.2-2.4s-0.1,2.1,0.1,2.8c0.2,1.1,0.9,2.4,1,3.2c0.1,0.8,0,1.8,0,1.8l-1,1.5l-0.5,0.1c0,0,0,0.3-0.1,0.5
			c-0.5,1.2-1.4,2.9-1.6,3c-0.1,0.2,0,0.5-0.1,0.8c-0.9,0.8-1.5,1.5-1.9,2c-0.3,0.2-0.3,0.7-0.3,0.7l0.1,0l-0.6,0.5
			c0,0,2.5-0.6,5.2-0.6c2.1,0,4.6,0.5,5,0.6c0.4,0.1,2.3,1,2.9,1.5c1.1,0.8,0.9,0.9,2.1,1.5c1,0.7,1.9,1.2,3.7,1.7
			c1.2,0.4,3.8,2.3,3.8,2.3S255.7,71.1,255.3,70.7z M250.4,72.4c-1-0.6-1.5-1.2-2.2-1.8c-0.5-0.5-1-0.9-1.7-1.5
			c-0.7-0.4-2.4-0.9-2.4-0.9l-2.2-0.7l-0.4-0.4v0.6h0.4c0,0,1.2,1.3,1.6,1.8c0.4,0.5,1,1,1.8,1.6c0.7,0.3,1.6,0.8,2.1,1.1
			c0.4,0.3,0.8,0.6,1.9,0.6c0.3,0.1,0.8,0.2,1.7,0.8c0.5,0.5,0.7,0.7,1,0.9c0.3,0.2,0.6,0.4,0.6,0.4l-1.1-1.5
			C251.5,73.5,251,73.1,250.4,72.4z M248.2,66c1.4,0,2.4-0.3,3.3-0.6c0.6-0.4,2.6-0.4,2.6-0.4s-1-0.5-2.1-0.5c-1.1,0-2.3-0.3-3-0.3
			c-0.7,0-2.2,0.6-3,0.8c-1,0.2-2.5,1-2.5,1S246.9,66,248.2,66z M244.3,52.3c0-0.6,0-1,0.2-1.5c0.1-0.9,0.2-3.2,0.2-3.2
			s-0.6,1.7-0.8,2.7c-0.2,1-0.1,3.3-0.1,3.3S244.2,53.1,244.3,52.3z M266.8,50.8c0,0-7.4-0.2-8.4,0.2c-2.7,1-4.5,2.4-5.3,2.8
			c-0.4,0.2-2,1.1-3.4,1.9c0.1-0.1,0.2-0.1,0.2-0.2c0.5-0.5,1.2-1.4,1.8-2.2c0.6-0.8,1.4-1.7,1.7-2.5c0.4-0.8,2-3.4,2-3.4
			s-3.1,2.2-5.3,4.5c-1.2,1.2-3,5.3-3,5.3c-1.8,1.5-3.5,3.7-3.5,3.7l0.4,0.2c0,0,1.9-2.3,2.5-2.8c0,0,0,0,0.1,0l-0.1,0.1l0.5,0.2
			c0,0,0.1,0.2,0.2,0.2c0.1,0,1.8-0.1,2,0.3c0.9,0.4,2,0.8,3.3,1.2c0.7,0.3,2,0.2,3,0.3c1,0.1,3.9,1.2,3.9,1.2s-2-1.3-2.8-1.7
			c-0.7-0.4-3.5-1.8-4.7-1.8c-1-0.1-4.4,0.1-5.1,0.1c0.1,0,0.1,0,0.2-0.1c0.3-0.3,1.4-1.1,2.4-1.7c0.4-0.3,3.3-1.8,3.6-2
			c0.4-0.3,1.2-0.1,1.9-0.1c0.7,0,3.9-0.1,4.7-0.3c2.4-0.6,3.9-1.4,5.5-1.8c1.1-0.3,2-0.8,5-0.9C269.8,51.2,266.8,50.8,266.8,50.8z"
			/>
		<path class="st1" d="M241.8,64.2c1.1-0.5,1.9-1,1.9-1s-1.1,0.2-2.3,0.8c-0.7,0.3-1.5,1-1.8,1.2C239.3,65.3,241.1,64.6,241.8,64.2z
			 M250.5,53.3c1.6-1.8,2-2.6,2-2.6s-1.9,1.7-2.7,2.5c-0.8,0.9-1.2,2.1-1.4,2.9C248.2,57,249.9,54.1,250.5,53.3z M259.7,51.7
			c-1.5,0.2-3.1,0.8-3.1,0.8s2.9-0.1,4.4-0.2c2-0.1,4.1-0.8,4.1-0.8S261.2,51.6,259.7,51.7z M250.6,58.7c-0.2,0,1,0.5,2.3,0.8
			c1.1,0.5,2.2,0.2,2.2,0.2s-1.2-0.5-2.1-0.8C252,58.6,250.8,58.8,250.6,58.7z M251.1,64.9c0,0-1.1-0.1-2.1-0.1
			c-1,0-2.5,0.5-2.5,0.5s1.6-0.2,2.5-0.2C250.7,65.1,251.1,64.9,251.1,64.9z M250,68.5c0,0,1.9,1.4,2.6,1.9c1,0.6,2.2,1,2.2,1
			s-1.2-0.8-2.1-1.5C251.8,69.1,250,68.5,250,68.5z M244.1,68.7c0,0,1.6,1,2.6,1.8c1,0.7,2.8,1.7,2.8,1.7s-2.2-2-3.3-2.6
			C245,68.9,244.1,68.7,244.1,68.7z M238.1,69.7c-0.8-0.4-2.2-0.8-2.2-0.8s0.4,0.3,0.7,0.5c0.4,0.2,1.4,0.8,1.9,1
			c0.6,0.2,1.4,0.7,1.4,0.5C239.9,70.8,238.9,70.1,238.1,69.7z M242,72.5c-0.5-0.6-1.6-1.3-1.6-1.3s0.9,1.2,1.2,1.5
			c0.3,0.3,1,1.3,1.6,1.7c0.6,0.4,1.2,0.6,1.2,0.6s-0.5-0.5-0.7-0.8C243.4,74,242.5,73.2,242,72.5z"/>
	</g>
	<g>
		<path class="st2" d="M141.6,71.8l-1-2.3h-3.5l-1,2.3h-1.5l4.2-9.1l4.2,9.1H141.6z M137.7,68.4h2.4l-0.9-2
			c-0.1-0.1-0.1-0.3-0.2-0.4c-0.1-0.2-0.1-0.3-0.2-0.6c0,0.2-0.1,0.4-0.2,0.5c-0.1,0.2-0.1,0.3-0.2,0.5L137.7,68.4z"/>
		<path class="st2" d="M143.7,70l1.1-0.5c0.1,0.4,0.3,0.7,0.6,0.9c0.3,0.2,0.7,0.3,1.1,0.3c0.4,0,0.8-0.1,1-0.4
			c0.2-0.2,0.4-0.5,0.4-0.9c0-0.5-0.4-1-1.3-1.4c-0.1-0.1-0.2-0.1-0.3-0.1c-1-0.5-1.6-0.9-1.9-1.3c-0.3-0.4-0.5-0.8-0.5-1.4
			c0-0.7,0.2-1.3,0.7-1.7c0.5-0.4,1.1-0.7,1.9-0.7c0.6,0,1.2,0.1,1.6,0.4c0.4,0.2,0.7,0.6,0.9,1.1l-1.1,0.6
			c-0.2-0.3-0.4-0.5-0.6-0.6c-0.2-0.1-0.4-0.2-0.7-0.2c-0.4,0-0.7,0.1-0.9,0.3c-0.2,0.2-0.3,0.5-0.3,0.8c0,0.5,0.5,1,1.5,1.5
			c0.1,0,0.1,0.1,0.2,0.1c0.9,0.4,1.5,0.8,1.8,1.2c0.3,0.4,0.5,0.9,0.5,1.4c0,0.8-0.3,1.5-0.8,2c-0.5,0.5-1.2,0.7-2.1,0.7
			c-0.7,0-1.4-0.2-1.8-0.5C144.2,71.2,143.9,70.7,143.7,70z"/>
		<path class="st2" d="M151.3,71.8V63h1.4v8.8H151.3z"/>
		<path class="st2" d="M160.9,71.8l-1-2.3h-3.5l-1,2.3h-1.5l4.2-9.1l4.2,9.1H160.9z M156.9,68.4h2.4l-0.9-2
			c-0.1-0.1-0.1-0.3-0.2-0.4c-0.1-0.2-0.1-0.3-0.2-0.6c0,0.2-0.1,0.4-0.2,0.5c-0.1,0.2-0.1,0.3-0.2,0.5L156.9,68.4z"/>
		<path class="st2" d="M163.6,71.8v-9.1l5.6,5.3c0.2,0.2,0.3,0.3,0.5,0.5c0.2,0.2,0.3,0.4,0.5,0.6V63h1.3v9.1l-5.7-5.4
			c-0.2-0.1-0.3-0.3-0.4-0.5c-0.1-0.2-0.3-0.3-0.4-0.5v6.1H163.6z"/>
		<path class="st2" d="M184.1,65.2c-0.4-0.3-0.8-0.6-1.3-0.8c-0.4-0.2-0.9-0.3-1.4-0.3c-1,0-1.7,0.3-2.3,0.9
			c-0.6,0.6-0.9,1.4-0.9,2.4c0,0.9,0.3,1.7,0.9,2.3c0.6,0.6,1.3,0.9,2.2,0.9c0.5,0,1-0.1,1.5-0.3c0.5-0.2,0.9-0.5,1.3-0.8v1.6
			c-0.4,0.3-0.8,0.5-1.3,0.6c-0.5,0.1-0.9,0.2-1.5,0.2c-0.7,0-1.3-0.1-1.9-0.3c-0.6-0.2-1.1-0.5-1.5-1c-0.4-0.4-0.8-0.9-1-1.5
			c-0.2-0.6-0.3-1.2-0.3-1.8c0-0.6,0.1-1.2,0.3-1.8c0.2-0.6,0.6-1.1,1-1.5c0.4-0.4,0.9-0.8,1.5-1c0.6-0.2,1.2-0.3,1.8-0.3
			c0.5,0,1,0.1,1.5,0.2c0.5,0.2,0.9,0.4,1.4,0.7L184.1,65.2z"/>
		<path class="st2" d="M186.1,63h1.4v5.3c0,0.8,0.2,1.4,0.5,1.8c0.4,0.4,0.9,0.6,1.6,0.6c0.7,0,1.3-0.2,1.6-0.6
			c0.4-0.4,0.5-1,0.5-1.8V63h1.4v5.4c0,1.2-0.3,2.1-0.9,2.7c-0.6,0.6-1.5,0.9-2.7,0.9c-1.2,0-2.1-0.3-2.7-0.9
			c-0.6-0.6-0.9-1.5-0.9-2.7V63z"/>
		<path class="st2" d="M195.6,71.8V63h1.4v8.8H195.6z"/>
		<path class="st2" d="M198.8,70l1.1-0.5c0.1,0.4,0.3,0.7,0.6,0.9c0.3,0.2,0.7,0.3,1.1,0.3c0.4,0,0.8-0.1,1-0.4
			c0.2-0.2,0.4-0.5,0.4-0.9c0-0.5-0.4-1-1.3-1.4c-0.1-0.1-0.2-0.1-0.3-0.1c-1-0.5-1.6-0.9-1.9-1.3c-0.3-0.4-0.5-0.8-0.5-1.4
			c0-0.7,0.2-1.3,0.7-1.7c0.5-0.4,1.1-0.7,1.9-0.7c0.6,0,1.2,0.1,1.6,0.4c0.4,0.2,0.7,0.6,0.9,1.1l-1.1,0.6
			c-0.2-0.3-0.4-0.5-0.6-0.6c-0.2-0.1-0.4-0.2-0.7-0.2c-0.4,0-0.7,0.1-0.9,0.3c-0.2,0.2-0.3,0.5-0.3,0.8c0,0.5,0.5,1,1.5,1.5
			c0.1,0,0.1,0.1,0.2,0.1c0.9,0.4,1.5,0.8,1.8,1.2c0.3,0.4,0.5,0.9,0.5,1.4c0,0.8-0.3,1.5-0.8,2c-0.5,0.5-1.2,0.7-2.1,0.7
			c-0.7,0-1.4-0.2-1.8-0.5C199.3,71.2,199,70.7,198.8,70z"/>
		<path class="st2" d="M206.4,71.8V63h1.4v8.8H206.4z"/>
		<path class="st2" d="M210.1,71.8v-9.1l5.6,5.3c0.2,0.2,0.3,0.3,0.5,0.5c0.2,0.2,0.3,0.4,0.5,0.6V63h1.3v9.1l-5.7-5.4
			c-0.2-0.1-0.3-0.3-0.4-0.5c-0.1-0.2-0.3-0.3-0.4-0.5v6.1H210.1z"/>
		<path class="st2" d="M220.3,71.8V63h4.9v1.2h-3.5v2.2h3.5v1.3h-3.5v2.8h3.5v1.3H220.3z"/>
	</g>
</g>
</svg>
