<?xml version="1.0" encoding="UTF-8"?>
<svg id="cafe-opera-logo" xmlns="http://www.w3.org/2000/svg" version="1.1" viewBox="0 0 600 172.8">
  <!-- Generator: Adobe Illustrator 29.7.1, SVG Export Plug-In . SVG Version: 2.1.1 Build 8)  -->
  <path id="cafe-opera" d="M278.1,54.6c0-8.2-1.6-14.7-4.1-20.4v-.5h-.2c-.1-.3-.2-.6-.3-.9h-.2v-.3h-.2c-.1-.3-.2-.6-.3-.9-.1,0-.2-.1-.3-.1-.1-.3-.2-.6-.3-.9-.1-.1-.2-.1-.3-.1v-.3h-.1v-.3h-.2c0-.2-.1-.3-.1-.5-.1,0-.2-.1-.3-.2v-.2c-.1-.1-.2-.1-.3-.2v-.3c-.2-.1-.3-.2-.5-.3v-.3c-.2-.2-.4-.3-.6-.5v-.3c-.4-.3-.7-.6-1.1-.9v-.3c-.5-.4-.9-.8-1.4-1.2-.2-.3-.4-.5-.6-.8h-.3c-.8-.8-1.5-1.6-2.3-2.4h-.1c-.4-.5-.9-1-1.4-1.5-.2,0-.3-.1-.5-.2-.2-.2-.3-.4-.5-.6h-.3c-.2-.2-.3-.4-.5-.6h-.3c-.1-.1-.1-.2-.2-.3h-.2c-.1-.1-.1-.2-.2-.3h-.3c0-.1-.1-.2-.1-.3h-.3c-.1-.2-.2-.3-.3-.5h-.3c0-.1-.1-.2-.2-.3-.1-.1-.3-.1-.5-.2h0c0-.1-.3-.1-.3-.1-.1-.1-.1-.2-.2-.3-.2,0-.4-.1-.6-.1,0-.1-.1-.2-.1-.3-.2-.1-.4-.1-.6-.2-.1-.1-.1-.2-.2-.3h-.3v-.2h-.3v-.2h-.3v-.2h-.3c-.1-.1-.1-.2-.2-.3-.2,0-.4-.1-.6-.1v-.2c-.2,0-.4-.1-.6-.2v-.2h-.5c-.3-.2-.6-.3-.9-.4v-.2h-.3v-.2h-.6v-.2h-.5v-.2c-.3-.1-.6-.2-.9-.3v-.2h-.3v-.2h-.5c-.2-.1-.4-.2-.6-.3v-.2h-.5v-.2c-.2,0-.4-.1-.6-.1v-.2h0c0,0-.5,0-.5,0v-.2c-.2-.1-.4-.1-.6-.2h0c0-.1-.5-.1-.5-.1v-.2c-.2-.1-.4-.1-.6-.2v-.2h-.3c0,0-.5,0-.5,0v-.2h-.3c-.2-.1-.4-.2-.6-.2v-.2h-.5v-.2h-.3c0,0-.3,0-.3,0v-.2c-.2,0-.4-.1-.6-.1v-.2h-.5v-.2h-.3c0,0-.5,0-.5,0v-.2h-.3c-.5-.2-.9-.3-1.4-.4v-.2h-.4c0,0-.5,0-.5,0v-.2h-.5c0,0-.5,0-.5,0v-.2h-.5c0,0-.5,0-.5,0v-.2h-.5c-.7-.2-1.3-.4-2-.6h0c0,0-.6,0-.6,0v-.2h-.5c0,0-.5,0-.5,0v-.2h-.6c-1.5-.6-3.4-1-5-1.5-.5,0-.9,0-1.4,0v-.2h-.6v-.2h-.6c0-.1-.8-.1-.8-.1v-.2h-.4c-.5-.2-1-.2-1.5-.3h0c0,0-1.7-.3-1.7-.3-.8-.2-2-.4-2.9-.6h-1.2c0-.1-1.4-.1-1.4-.1v-.2h-1.7c0-.1-2.3-.1-2.3-.1v-.2h-8.1c-.5.4-1.6,0-2.3.1v.2h-1.5v.2h-1.1v.2h-1.1c0,0-.8,0-.8,0v.2h-.8v.2h-.6v.2h-.8c-3.1,1.1-6.3,2.1-9.6,3-1.1.3-2.5-.3-3.5,0h-.8c-1.7.6-3.2,1.6-5,2.1h-.9c-2.1.6-4.7-.4-6.7.3h-.6c0,.1-.3.1-.3.1v.2h-.3c-1,.6-2.3,3-1.5,4.9h.2v.3h.1c.1.2.1.4.2.6.7,1.1,2.1,2,3.3,2.6-.3.4-.7.5-1.1.8-.1.2-.2.3-.3.5h-.3c-.1.2-.2.3-.3.5h-.3c-.1.2-.2.3-.3.5h-.3c-.1.2-.3.4-.5.6h-.3c-.2.2-.3.4-.5.6h-.3c-.1.2-.3.4-.5.6h.2c-.2.2-.3.4-.5.6h-.3c-.2.2-.3.4-.5.6h-.3c-.2.3-.4.5-.6.8h-.3c-.3.3-.5.6-.8.9h-.3l-.8.9h-.3c-.4.4-.7.8-1.1,1.2h-.3c-.6.7-1.2,1.3-1.8,2h-.3c-.9.9-1.7,1.8-2.6,2.7-.3.3-.6.5-.9.8v.3c-.6.5-1.1,1-1.7,1.5v.3l-1.1.9v.3c-.3.3-.6.5-.9.8v.3c-.2,0-.4.3-.6.5v.3c-.2.2-.4.3-.6.5h0c-.2.1-.4.2-.6.4v.3c-.1,0-.3.2-.5.3v.3c-.1,0-.3.2-.5.3v.3c-.2,0-.3.2-.5.3v.3c-.1,0-.2,0-.3.2v.3c-.2,0-.3.2-.5.3v.3c-.1,0-.2,0-.3.2v.3c-.1,0-.2,0-.3.2,0,.2-.1.3-.2.5h-.1c-.1.2-.2.2-.3.3v.3c-.1,0-.2,0-.3.2v.3h-.2v.3c-.1,0-.2,0-.3.2v.3c-.1,0-.2,0-.3.2-.1.2-.1.4-.1.6-.1,0-.2,0-.3,0-.1.3-.2.6-.3.9-.1,0-.2,0-.3,0-.1.3-.2.6-.3.9-.1,0-.2,0-.3.2v.2h-.2v.3h-.2v.3h-.1v.4h-.2v.3h-.2v.3h.3v.3h-.2v.3h-.1v.3h-.2v.3h-.2c-.1.3-.2.6-.3.9h-.2c0,.3-.1.5-.2.8h-.2c-.1.2-.1.4-.2.6h-.2c-.3.9-.6,1.8-.9,2.7h-.2v.3h-.2c0,.3-.1.6-.2.9h-.1v.5h-.2v.5h-.2v.5h-.1v.5h-.2v.5h.3v.5h-.2v.5h-.2v.6h-.2v.5h-.1v.6h-.2v.6h-.2v.6h0v.6h-.1v.6h-.1c-.1.5-.1.9-.2,1.4h-.2v.8c-.3,1.1-.4,2.5-.8,3.7v1.2h-.2v1.2h-.1v1.1h-.2c0,1.8-.1,3.5-.2,5.3v2.3h.2v1.8h.2v1.2h.1v1.2h.2v.9c.2.7.4,1.7.6,2.4v.9c.7,2.5,1.4,5,2.1,7.4h.1v.3h.2c0,.3.1.6.2.9h.1c.1.3.1.5.2.8h.2c.1.2.1.4.2.6h.2v.5h.2v.3h.1c.1.2.1.4.2.6h.2v.3h.1v.3h.2v.3h.2v.3h.2v.3h.2v.3h.2v.3h.2v.3h.2v.3h.2v.3h.2v.3c.1,0,.2,0,.3.2.1.3.2.6.3.9.1,0,.2,0,.3,0,.1.2.1.4.2.6.1,0,.2,0,.3,0v.3h.1v.3c.1,0,.2,0,.3.2v.3c.1,0,.2,0,.3.2v.3c.1,0,.2,0,.3,0,.1.2.1.4.2.6h.2c0,0,.1.3.1.5.1,0,.2,0,.3.2v.3c.2,0,.3.2.5.3v.3c.1,0,.2,0,.3.2.1.2.1.3.2.5h.1v.3c.1,0,.3.2.5.3v.3c.2,0,.3.2.5.3v.3c.2,0,.3.2.5.3v.3c.1,0,.3.2.5.3v.3c.2.2.4.3.6.5v.3c.2.2.4.3.6.5v.3c.3.2.5.4.8.6v.3c.5.5,1,.9,1.5,1.4.4.5.8.9,1.2,1.4h.3c.1,0,.2.3.3.5.2,0,.3,0,.5.2,0,0,.1.2.1.3h.3v.3h.4c.1.2.2.3.3.5.2,0,.4,0,.6,0v.2c.2,0,.3,0,.5.2.1,0,.1.2.2.3h.3l.2.3c.2,0,.3,0,.5.2v.2c.2,0,.4,0,.6.2.1,0,.1.2.2.3.3,0,.6.2.9.3.1,0,.1.2.2.3.2,0,.4,0,.6.2v.2h.3v.2c.3,0,.6.2.9.3v.2h.5c.2.2.4.2.6.3v.2h.5v.2h.3v.2c.3,0,.6,0,.9.2v.2h.5c0,0,.5,0,.5,0v.2h.5v.2h.5v.2c.4,0,.8,0,1.2.2v.2h.6v.2h.6c0,0,.6,0,.6,0v.2h.6c0,0,.8,0,.8,0,1.2.4,2.7.6,3.9.9h1.1v.2h1.1v.2h1.2v.2h1.7v.2h2.3c1.2.3,6.1.3,7.3,0h2.7v-1.4h2v-.2h1.7v-.2h1.4v-.2h1.4v-.2h1.2v-.2c1.1,0,2.2-.2,3.3-.3,2.3-.7,5.1-.8,7.3-1.5.5,0,1,0,1.5-.2,2.6-.8,5.6-1.4,8.1-2.3h.6v-.2h.5v-.2h.5c0,0,.5,0,.5,0v-.2h.5v-.2h.6v-.2h.5v-.2h.5v-.2h.5v-.2c.3,0,.6,0,.9,0v-.2h.3c0,0,.5,0,.5,0v.4h.5v-.2h.5c0,0,.5,0,.5,0v-.2h.3v-.2c.3,0,.6,0,.9-.2h0c0,0,.3,0,.3,0v-.2c.3,0,.6,0,.9-.2v-.2h.3v-.2h.5c0,0,.3,0,.3,0v-.2h.4c0,0,.3,0,.3,0v-.2h.5v-.2c.2,0,.4,0,.6,0v-.2c.3,0,.5,0,.8,0v-.2h.5c.2-.1.4-.1.6-.2v-.2h.3v-.2h.5v-.2c.3,0,.6-.2.9-.3h0c0,0,.3,0,.3,0v-.2h.5v-.2h.3c.2,0,.4-.2.6-.3v-.2h.3c0,0,.3,0,.3,0h0c0,0,.3,0,.3,0v-.2h.3v-.2h.3v-.2c.2,0,.4,0,.6-.2h0c.2-.2.4-.2.6-.3v-.2c.2,0,.4,0,.6-.2v-.2h.3v-.2h.3v-.2h.3v.2h.3v-.2c.2,0,.4,0,.6,0,.1,0,.1-.2.2-.3h.3c0,0,.3,0,.3,0v-.2h.3c0,0,.3,0,.3,0,0,0,.1-.2.2-.3.3,0,.6-.2.9-.3,0,0,.1-.2.1-.3.3,0,.6-.2.9-.3.1,0,.1-.2.2-.3.2,0,.4,0,.6-.2,0,0,.1-.2.1-.3.2,0,.4,0,.6,0v-.3c.3,0,.4,0,.6-.2v-.2c.2,0,.4,0,.6,0,.1,0,.1-.2.2-.3h.3c.1,0,.1-.2.2-.3h.3c.1,0,.1-.2.2-.3h.3c0,0,.1-.2.1-.3h.3c.1,0,.1-.2.2-.3h.3c0,0,.1-.2.2-.3h.3c.1,0,.1-.2.2-.3h.3v-.2c.2,0,.3,0,.5,0,0,0,.1-.2.2-.3h.3c.1-.2.2-.3.3-.5h.3c.1,0,.1-.2.2-.3h.3c.1-.2.2-.3.3-.5h.3c.1-.2.2-.3.3-.5h.3c.1,0,.2-.3.3-.5h.3c.1,0,.2-.3.3-.5h.3c.2-.2.3-.4.5-.6h.3c.2-.2.3-.4.5-.6h.3c.1-.2.3-.4.5-.6h.3c.3-.3.5-.6.8-.9h.3l.9-1.1h.3l.9-1.1c.2-.2.4-.3.6-.5v-.2h.3c.5-.5.9-1,1.4-1.5.5-.4.9-.8,1.4-1.2v-.3c.6-.5,1.1-1,1.7-1.5v-.3l1.1-.9v-.3c.3-.2.5-.4.8-.6v-.3c.2-.2.4-.3.6-.5v-.3c.2,0,.3-.2.5-.3v-.3c.2-.2.4-.3.6-.5,0,0,.1-.3.2-.5.1,0,.2,0,.3-.2v-.3c.1,0,.2,0,.3-.2v-.3c.2,0,.3-.2.5-.3v-.3c.1,0,.2,0,.3-.2.1,0,.1-.3.2-.5h.2v-.3c.1,0,.2,0,.3-.2,0,0,.1-.3.1-.5h.2v-.3c.1,0,.2,0,.3,0v-.3c.1,0,.2,0,.3-.2v-.3c.1,0,.2,0,.3-.2v-.3h.1v.3c.1,0,.2,0,.3-.2.1-.3.2-.6.3-.9.1,0,.2,0,.3-.2.1-.3.2-.6.3-.9.1,0,.2,0,.3-.2v-.3h.2v-.3h.2v-.3h.2v-.3h.2v-.3h.2v-.3h.1v-.3h.2v-.3h.1v-.2h.2c.1-.3.2-.6.3-.9h.2v-.5h.2v-.3h.2c.1-.2.1-.4.2-.6h.2v-.5h.2v-.3h.2c.1-.3.1-.5.2-.8h.2v-.5h.2v-.3h.2v-.3h.2v-.3h.1v-.5h.2v-.3h.2c.1-.3.1-.6.2-.9h.1v-.3h.2c.1-.5.2-.9.3-1.4h.2v-.3h.2v-.5h.2v-.5h.2v-.5h.2v-.5h.2v-.5h.2v-.5h.2v-.6h.2v-.6h.2v-.6h.2v-.6h.1v-.8h.2l.2-1.8c-3.3-1.9-3.5-4.8-3.5-7.4ZM260.3,56.3h-.2v2h0v1.2h-.2v1.1h-.1v.9h-.2v.8h-.1v.7h-.2v.6h-.2v.6h0c-.1.4-.1.7-.2,1.1h-.2c-.1.5-.2,1-.3,1.5h-.2v.3h-.2v.5h-.2c-.1.3-.1.6-.2.9h-.2v.3h-.2v.5h-.1c-.1.2-.1.4-.2.6h.2v.3h-.2v.5h-.2c-.1.3-.2.6-.3.9h-.2v.3h-.2c-.1.3-.2.6-.3.9-.1,0-.2,0-.3,0-.1.3-.2.6-.3.9-.1,0-.2,0-.3.2,0,.2-.1.4-.1.6-.1,0-.2,0-.3.2-.1.2-.1.4-.2.6-.1,0-.2,0-.3.2v.3h-.2c0,.2-.1.3-.1.5-.1,0-.2,0-.3.2v.3c-.2,0-.3.2-.5.3v.3c-.1,0-.2,0-.3,0v.3c-.2,0-.3.2-.5.3v.3c-.2.2-.4.3-.6.5v.3c-.2,0-.4.3-.6.5v.3c-.2,0-.3.2-.5.3v.2c-.1,0-.2,0-.3.2v.3c-.5.4-.9.8-1.4,1.2v.3c-.6.5-1.1,1-1.7,1.5-.5.5-.9,1-1.4,1.5h-.3c-.4.5-.8.9-1.2,1.4h-.3c-.3.3-.5.6-.8.9h-.3c0,0-.1.2-.1.3h-.2c-.1,0-.2.3-.3.5h.1c-.2.2-.3.4-.5.6h-.3c-.2.2-.3.4-.5.6h-.3c-.1.2-.2.3-.3.5h-.3c-.1,0-.2.3-.3.5h-.3c-.1,0-.2.3-.3.5-.2,0-.3,0-.5.2-.1,0-.1.2-.2.3h-.2c-.1,0-.1.2-.2.3h-.3c-.1,0-.2.3-.3.5h-.3c0,0-.1.2-.1.3-.2,0-.3,0-.5,0v.2h-.3c0,0-.1.2-.2.3h-.3c-.1,0-.1.2-.2.3h-.3c0,0-.1.2-.2.3h-.3c0,0-.1.2-.2.3h-.3c-.1,0-.1.2-.2.3h-.3c-.1,0-.1.2-.2.3h-.3c0,0-.1.2-.2.3-.2,0-.4,0-.6.2-.1,0-.1.2-.2.3-.2,0-.3,0-.5.2h0c-.2.2-.4.2-.6.3-.1,0-.1.2-.2.3-.2,0-.4,0-.6.2-.1,0-.1.2-.1.3-.2,0-.4,0-.6,0,0,0-.1.2-.2.3-.3,0-.6.2-.9.3,0,0-.1.2-.1.3-.3,0-.6.2-.9.3-.1,0-.1.2-.2.3h-.3v.2h-.3v.2h-.3v.2h-.3v.2h.1c0,0-.1.2-.2.3-.2,0-.4,0-.6.2v.2h-.3c0,0-.3,0-.3,0v.2h-.3v.2c-.2,0-.4,0-.6.2,0,0-.1.2-.2.3h-.3v.2h-.3c0,0-.3,0-.3,0v.2h-.3c0,0-.3,0-.3,0v.2h-.3v.2h-.3v.2h-.3v.2h-.3c-.3.2-.6.3-.9.4h0c0,0-.5,0-.5,0v.2c-.3,0-.6.2-.9.3v.2h-.3v.2h-.3c0,0-.3,0-.3,0v.2c-.2,0-.4,0-.6.2v.2h-.5v.2c-.3,0-.6.2-.9.3h0c0,0-.3,0-.3,0v.2h-.5v.2h-.3c0,0-.3,0-.3,0v.2h-.2c0,0-.5,0-.5,0v.2c-.2,0-.4,0-.6.2v.2h-.5v.2c-.2,0-.4,0-.6,0v.2h-.5v.2c-.2,0-.4,0-.6.2v.2h-.5v.2c-.2,0-.4,0-.6.2h0c0,0-.5,0-.5,0v.2h0c0,0-.5,0-.5,0v.2h-.3c0,0-.5,0-.5,0v.2h-.3v.2h-.4v.2c-.3,0-.5,0-.8.2h0c0,0-.3,0-.3,0v.2h-.5v.2h-.3v.2h-.5v.2h-.3v.2c-.5,0-.9.2-1.4.3v.2h-.3v.2h-.5v.2h-.5v.2h-.5c0,0-.5,0-.5,0v.2h-.3v.2c-.7.2-1.3.3-2,.5v.2c-.7.2-1.3.3-2,.5v.2h-.5v.2h-.5c0,0-1.1.3-1.1.3h0c-.6.2-1.2.3-1.8.4-1.9.6-4.3.9-6.2,1.5h-.9v.2h-1.1c0,0-1.1,0-1.1,0v.2h-1.2v.2h-.9v.2h-2v.2h-5.2c-4.1,0-7.9-.8-10.9-1.8h-.6v-.2h-.5c0,0-.3,0-.3,0v-.2l-.9-.2h0c0,0-.3,0-.3,0v-.2h-.5c-.2-.2-.4-.2-.6-.3h0c0,0-.2,0-.2,0v-.2h-.5v-.2c-.2,0-.4,0-.6-.2v-2.6h-.3c0,0-.1-.2-.1-.3h-.3v-.2h-.3c0,0-.3,0-.3,0v-.2h-.3c0,0-.1-.2-.2-.3-.2,0-.4,0-.6,0v-.3h-.5c-.1,0-.1-.2-.2-.3h-.3c-.1,0-.2-.3-.3-.5h-.3c-.1,0-.1-.2-.1-.3h-.3c-.2-.2-.3-.4-.5-.6h-.3c-.2-.2-.3-.4-.5-.6h-.2l-.9-1.1h-.3c-.6-.6-1.1-1.2-1.7-1.8-.3-.3-.6-.5-.9-.8v-.3c-.4-.3-.7-.6-1.1-.9v-.3c-.3-.2-.5-.4-.8-.6v-.3c-.2-.2-.4-.3-.6-.5v-.3c-.2,0-.3-.2-.5-.3v-.3c-.2,0-.3-.2-.5-.3v-.3h-.3v-.4c-.1,0-.3-.2-.5-.3v-.3c-.1,0-.2,0-.3,0,0,0-.1-.3-.2-.5h-.2c-.1-.2-.1-.4-.1-.6-.1,0-.2,0-.3-.2,0,0-.1-.3-.2-.5h-.2c-.1-.3-.2-.6-.3-.9-.1,0-.2,0-.3-.2v-.3h-.1v-.3h-.1v-.3h-.2v-.2h-.2v-.3h-.1v-.3h-.2v-.3h.1v-.3h-.2v-.3h-.2c0-.2-.1-.4-.1-.6h-.1v-.3h-.2v-.5h-.2v-.3h0v-.5h-.2v-.3h-.2v-.5h-.2v-.4h-.2v-.5h-.1v-.5h-.1v-.6h-.2v-.8h-.2v-.7h-.2c0-.9-.1-1.7-.1-2.6h-.2v-1.4h-.2v-1.2h0v-1.4h-.2v-2c-.1-.5-.4-3.5-.1-4.3h.1v-2.1h.2v-1.5c.4-2.1.7-4.3,1.1-6.4.7-2.1,1.3-4.2,2-6.2h.2v-.3h.2v-.5h.1v-.3h.2v-.5h.2c0-.2.1-.4.1-.6h.1l.2-.8h.1c.1-.3.2-.6.3-.9h.2v-.3h.2v-.3h.2v-.3h.2v-.3h.1v-.3h.2v-.3h.2v-.2h.2v-.3c.1,0,.2,0,.3,0v-.3h.2v-.3h.1v-.3h.2v-.3h.2v-.4c.1,0,.2,0,.3-.2.1-.3.2-.6.3-.9.1,0,.2,0,.3-.2.1-.2.1-.4.1-.6.1,0,.2,0,.3-.2,0-.2.1-.4.1-.6.1,0,.2,0,.3,0,.1-.2.1-.3.2-.5h.2c.1-.2.1-.4.2-.6.1,0,.2,0,.3-.2v-.3h.2c0-.2.1-.3.1-.5.1,0,.2,0,.3-.2v-.3c.2,0,.3-.2.5-.3v-.3c.1,0,.2,0,.3,0v-.3c.1,0,.3-.2.5-.3v-.3c.1,0,.2,0,.3-.2v-.3c.1,0,.3-.2.5-.3v-.3c.1,0,.3-.2.5-.3v-.3c.2-.2.4-.3.6-.5v-.3c.2-.2.4-.3.6-.5h0c.2-.2.4-.3.6-.5v-.3c.3-.2.5-.4.8-.6v-.3c.3-.3.7-.6,1.1-.9v-.3c.5-.5,1-.9,1.5-1.4v-.3c.5-.5,1-.9,1.5-1.4,1.1-1.1,2-2.1,3.2-3,.5-.5.9-1,1.4-1.5h.3c.3-.4.6-.7.9-1.1h.3c.2-.3.4-.5.6-.8h.3c.2-.3.4-.5.6-.8h.3c.2-.2.3-.4.5-.6.3-.2.7-.3.9-.6.3.1.4,0,.6.2v.2h.3v.2h.3v.2c.2.1.4.1.6.2h0c.2.2.4.2.6.3v.2h.5v.2c.2,0,.4.1.6.2h0c0,.1.5.1.5.1v.2h.3c.5.2.9.3,1.4.4h0c.3.2.6.2.9.3v.2h.3v.2h.5v.2h.5v.2h.5v.2h.5c0,.1.5.1.5.1v.2h.5v.2h.5v.2h.5v.2h.5v-.4c.3.1.5.1.8.2h0c0,.1.3.1.3.1v.2c.5.2.7.1,1.1.5q.5-.1.8-.3h0c.1-.1.3-.2.5-.3,0-.1.1-.2.2-.3.2-.1.4-.1.6-.2.1-.1.1-.2.2-.3h.3v-.2h.5v-.2h.3c0-.1.5-.1.5-.1v-.2h.5v-.2h.5v-.2h.5v-.2c.5-.1,1-.2,1.5-.3h0c.3,0,.6-.2.9-.3h0c0-.1.3-.1.3-.1v-.2h.3c.2-.2.4-.2.6-.3.1-.1.1-.2.2-.3h.3v-.2c.2,0,.3-.1.5-.1,0-.1.1-.2.2-.3h.3c.1-.1.1-.2.1-.3.2-.1.3-.1.5-.2.1-.2.3-.4.5-.6h.3c.1-.2.3-.4.5-.6h.3c.1-.2.2-.3.3-.5.2-.1.3-.1.5-.2.1-.1.1-.2.2-.3h.3c0-.1.1-.2.1-.3h.3c0-.1.1-.2.2-.3.2-.1.4-.1.6-.2.1-.1.1-.2.2-.3h.3v-.2h.3c0-.1.5-.1.5-.1v-.2h.3v-.2h.5v-.2h.3c1.7-.5,3.4-.9,5.2-1.3.8-.2,2.5.1,3-.3h4.6v.2h2.1v.2h1.5v.2h1.2c0,.1,1.1.1,1.1.1v.2h.9v.2h.9v.2h.8v.2h.9v.2c.7.1,1.4.2,2.1.3v.2c.6.1,1.2.2,1.8.3h0c.6.2,1.2.3,1.8.4v.2l1.1.2v.2c.4.1.7.1,1.1.1v.2h.5v.2h.5v.2c.5.1,1,.2,1.5.3h0c0,.1.9.3.9.3v.2h.5v.2h.5c0,.1.5.1.5.1v.2h.5v.2h.5v.2c.3.1.6.1.9.2v.2h.3c.5.2.9.3,1.4.4v.2h.3v.2l.9.2h0c0,.1.3.1.3.1v.2h.5v.2h.3v.2h.5v.2c.3,0,.5.1.8.1v.2h.3c0,.1.5.1.5.1v.2c.2,0,.4.1.6.2h0c0,.1.5.1.5.1v.2c.2.1.4.1.6.2v.2h.3v.2h.5v.2h.3v.2c.2.1.4.1.6.1v.2h.3v.2h.3v.2h.3v.2h.3v-1.1h.3v.2c.2,0,.4.1.6.1v.2h.3c0,.1.3.1.3.1v.2h.3v.2h.3s.3,0,.3,0v.2h.3v.2h.3c.1.1.1.2.2.3.2,0,.4.1.6.2,0,.1.1.2.2.3.2,0,.4.1.6.2v.2c.2,0,.3.1.5.1.1.1.1.2.1.3h.3c.1,0,.1.2.2.3h.3c.1,0,.1.2.2.3.2,0,.3,0,.5.2.2.2.3.4.5.6h.3c.3.3.5.6.8.9h.3c.4.5.8.9,1.2,1.4.2,0,.4.3.6.5v.3c.3.3.6.5.9.8v.3c.2.2.4.3.6.5v.3c.2,0,.3.2.5.3v.3c.1,0,.2,0,.3,0v.3c.1,0,.2,0,.3.2.1.2.1.4.2.6.1,0,.2,0,.3,0,.1.2.1.4.2.6.1,0,.2,0,.3.2.1.3.2.6.3.9h.2c.1.3.2.6.3.9h.2v.5h.2v.3h.2v.5h.2v.3h.1v.5h.2v.5h.2v.5h.2s.2,0,.2,0v.6h.2v.6h.1v.6h.2v.8h.1v.9h.2v1.1h.2v1.8c-3.1.5-2.9,3.2-3.1,3.9ZM95.3,69.1c-1.2,0-2.9-.5-3.7-.9,0,0,0-.2-.2-.3h-.3c0,0-.2,0-.3,0,0,0,0-.2-.2-.3h-.3c-.2-.2,0-.4,0-.8h0v-.9c.3-1,.3-2.4.3-3.8s0-2.7-.4-3.8h-.2v-.5c0,0-.2,0-.3-.2,0-.2,0-.4-.2-.6-.2-.2-.4-.3-.6-.5,0-.2-.2-.3-.3-.5h-.3c0,0,0-.2-.2-.3-.2,0-.4,0-.6,0v-.2c-.3,0-.6,0-.9-.2-.5-.2-2.2-.6-3-.3-4.3,1.4-5.6,5.7-7,10,0,.9-.2,1.8-.3,2.7h-.2v1.5c0,.5-.4,3.4,0,4.1h0v1.4h.2v1.1h.2v.6h.2v.6h.2c0,.4,0,.7.2,1.1h0c0,.3.2.7.3,1.1.5,0,.9.3,1.4.5s2.1-.3,2.4-.5v-.2h.3v-.2h.3v-.2h.3c0,0,.2,0,.3,0,0,0,0-.2,0-.3h.3c0,0,0-.2.2-.3h.3c0,0,0-.2.2-.3.2,0,.4,0,.6-.2h0c.7-.5,1.3-.5,2.3-.6h0c.2.2.5.2.8.3,0,.2.2.3.3.5.5.5,1.2,1.2,2,1.4,0,1.2-1.3,2.3-2,3s-.9.6-1.1,1.4h-.2c0,.2,0,0,.2.2v.5h.2c.7.8,1.2,0,1.2,1.8-.5,0-.9,0-1.2.3,0,.2-.2.3-.3.5-.2.2-1.1.4-1.5.3v-.2h-.6v-.2c-.6-.2-.6-.4-.9-.9h0v-.3h-.2v-.3h-.2v-.3h-.2c0-.2,0-.3,0-.5-.3,0-.5,0-.8-.2h0c-.9-.4-2.1.2-2.6.4-.6,0-1.1,0-1.7.2,0,1.7-.2,3.3-.3,5h0v1.7c0,.2,0,0-.2.2v2.6h-.2c-.2.8,0,2.3.2,2.9v2.1h.2v1.1c.2.6.4,1.3.5,2.1.5.3,0,.2.3.5.2,0,.3,0,.5.2,0,.2.2.3.3.5h.3c0,0,0,.2,0,.3h.3c.8.5,1.3,1.3,1.4,2.6-.6.3-.9.9-.9,1.8-.3,0-.5,0-.8,0v.2h-1.1c-1.7,0-3-.4-4.4-.6-.7,0-1.3.2-2,.3h0c-.2.2-.4.2-.6.3v.2h0v-.2c-.5-.5-.2-.9-.5-1.7h-.2v-.9h0c0-.3,0-.6-.2-.9,1.1-.7,1.7-2.8,2.1-4.3v-1.2c.3-1.2.3-6.4,0-7.6v-7.6c-.3,0-.6-.5-.9-.6h-.5c-.5-.2-1.1-.5-1.4-.9-.2-.4-.2-.9-.2-1.5.3-.4.5-.7.8-1.1,1-.4,1.9-.7,2.9-1.1,0-.8.3-1.6.5-2.3v-.9h.2v-1.2h.2v-1.2h.2v-1.7h0c0-1.7.2-3.3.3-5h0v-1.4h0v-1.1h.2v-1.1h.2v-.9c.4-1.3.7-2.6,1.1-3.9h.2c0-.2,0-.4.2-.6h.2v-.3h0v-.5c0,0,.2,0,.3,0,0-.2,0-.4.2-.6,0,0,.2,0,.3,0v-.3c0,0,.3-.2.5-.3v-.3c.3-.3.6-.5.9-.8,0,0,0-.2,0-.3h.3c0-.2.2-.3.3-.5.2,0,.4,0,.6-.2v-.2h.3v-.2c.3,0,.6-.2.9-.3v-.2c.3,0,.6,0,.9-.2v-.2h.6v-.2h.9c.8-.3,3.1,0,3.7,0,.5,0,.9,0,1.4.2,2.3.8,4.3,2.2,5.2,4.6,0,1.8.2,3.5.3,5.3.5,1.7,1,3.3,1.5,5-.4,1-.5,1.5-.5,2.1ZM345.1,62.4c1.8.2,3.5.3,5.3.5v.2c.5,0,.9,0,1.4,0v.2c.4,0,.7,0,1.1.2v.2h.6v.2h.5v.2h.5v.2h.5c.1,0,.2,0,.3,0v.2h.5v.2h.3c.2,0,.3,0,.5,0v.2c.3,0,.6.2.9.3h0c.1,0,.2,0,.3,0v.2h.3v.2h.3c.1,0,.2,0,.3,0v.2h.3v.2h.3c.1,0,.1.2.2.3.2,0,.4,0,.6.2,0,0,.1.2.1.3h.3c.1,0,.1.2.2.3h.3c0,0,.1.2.2.3.2,0,.3,0,.5.2.1.2.2.3.3.5h.3c.4.4.7.8,1.1,1.2h.3c.3.3.5.6.8.9h.3c.1.2.3.4.5.6.4.4.8.7,1.2,1.1,1.1,1.1,1.9,2.3,2.4,3.9.3,1.1-.5,3.7-.9,4h-1.1c-.4.4-1.2,0-1.8.3v.2h-.9c-1.6.5-3.6.6-5.2,1.1h-.8c-8,1.7-15.9,3.3-23.9,5h-.9c-.3,0-.5,0-.8,0v.2h-.9c-2.4.7-6.3,2.1-6.4-1.8.4-.2.1-.2.3-.5.1,0,.2,0,.3-.2h0c.2-.3.3,0,.6-.4.6,0,1.2,0,1.8.2.5.2,1.2.7,2.1.5,2.8-.8,5.9-1.4,8.7-2.3h.8v-.2h.6v-.2h.6c.2,0,.4,0,.6,0v-.2h.6v-.2c.5,0,.9,0,1.4-.2v-.2c.5,0,.9,0,1.4-.2v-.2h.8c1.5-.5,3.5-.6,5-1.1,1,0,1.9-.2,2.9-.3h0c.5-.2,1-.2,1.5-.3v-.2h.6v-.2h.6c.2,0,.4,0,.6,0v-.2h.5v-.2h.5c.3-.2.6-.2.9-.3v-.2c.2,0,.4,0,.6-.2v-.2c.3,0,.5,0,.8,0,.1,0,.1-.2.2-.3.2,0,.4,0,.6,0,0,0,.1-.2.2-.3.5-.4,1-.5,1.4-1.1-.4-.3-.4-.5-.6-.9-.2,0-.3-.2-.5-.3v-.3c-.6-.5-1.1-1-1.7-1.5-.2-.3-.4-.5-.6-.8h-.3c-.1-.2-.2-.3-.3-.5h-.3c-.1,0-.1-.2-.2-.3h-.3c0,0-.1-.2-.2-.3-.2,0-.3,0-.5,0v-.2c-.2,0-.4,0-.6-.2v-.2h-.3c-.3-.2-.6-.3-.9-.4h0c-.1,0-.3,0-.5,0v-.2h-.3c-.2,0-.3,0-.5,0v-.2h-.5v-.2h-.5v-.2h-.5v-.2h-.6v-.2h-.6v-.2h-.9c-.4,0-.7,0-1.1,0v-.2h-2.3c-.2,0-.4,0-.6,0h0c-.8,0-1.5,0-2.3,0v.2h-1.2c-.3,0-.5,0-.8,0v.2h-.8v.2h-.6v.2c-.4,0-.7,0-1.1.2v.2h-.5v.2h-.5c-.1,0-.2,0-.3,0v.2h-.5c-.1,0-.2,0-.3,0v.2h-.5v.2c-.3,0-.6.2-.9.3v.2h-.3v.2c-.3,0-.6.2-.9.3v.2c-.2,0-.3,0-.5.2-.1,0-.1.2-.2.3-.2,0-.4,0-.6.2-.1.2-.2.3-.3.5h-.3c-.1.2-.2.3-.3.5h-.3c-.2.3-.4.5-.6.8h-.3c-.4.5-.8.9-1.2,1.4-.2.2-.4.3-.6.5v.3c-.4.3-.7.6-1.1.9v.3c-.2,0-.3.2-.5.3v.3c-.2,0-.3.2-.5.3v.3c-.2,0-.3.2-.5.3v.3c-.1,0-.2,0-.3.2-.1,0-.1.3-.2.5h-.2v.3c-.1,0-.2,0-.3.2-.1.3-.2.6-.3.9-.1,0-.2,0-.3.2-.1.2-.1.4-.2.6h-.1v.3h-.1v.3h-.2v.3h-.1c-.1.3-.2.6-.3.9h-.1v.5h-.2c-.1.2-.1.4-.2.6h-.1v.5h-.2v.5h-.2v.3h-.1v.5h-.2v.5h-.2v.5h-.2v.5h-.1c-.1.4-.1.7-.2,1.1h-.1c-.1.4-.1.8-.2,1.2-.1.4-.5,1.1-.3,1.8.7,2.2,1.4,4.4,2.1,6.5h.2c.1.3.2.6.3.9h.2v.3h.1v.3h.2v.3h.1v.3h.1v.3h.2v.3h.1v.3c.1,0,.2,0,.3.2v.3h.2c.1.2.1.3.2.5.1,0,.2,0,.3,0v.3c.2,0,.3.2.5.3v.3c.4.4.8.7,1.2,1.1.2.3.4.5.6.8h.3c.1,0,.2.3.3.5h.3c0,0,.1.2.2.3.2,0,.4,0,.6.2.1,0,.1.2.1.3h.3v.2c.2,0,.4,0,.6.2v.2h.5v.2h.3v.2c.3,0,.6,0,.9.2,1.8.7,3.7.9,6.2.9h2.4v-.2c.8,0,1.5,0,2.3,0v-.2c.5,0,1,0,1.5,0v-.2h.8c.2,0,.4,0,.6,0v-.2c.4,0,.7,0,1.1-.2v-.2h.5v-.2h.6v-.2c1.2-.4,2.4-.8,3.6-1.2h0c.3-.2.6-.3.9-.4h0c.1,0,.2,0,.3,0v-.2h.3v-.2h.3v-.2h.3v-.2h.3v-.2h.3v-.2h.3c.1,0,.2,0,.3,0v-.2h.3c0,0,.1-.2.1-.3.2,0,.4,0,.6,0,.1,0,.1-.2.2-.3.2,0,.4,0,.6-.2v-.2c.1,0,.3,0,.5,0,.1,0,.1-.2.2-.3h.3c.1,0,.1-.2.2-.3h.3c.1,0,.1-.2.2-.3.2,0,.3,0,.5,0,.2-.2.3-.4.5-.6h.3c.3-.3.5-.6.8-.9h.3c.2-.3.4-.5.6-.8.1,0,.2,0,.3-.2v-.3c.2,0,.3-.2.5-.3.1-.3.2-.6.3-.9.8-1.5,1.6-3.1,3.6-3.3.3.3.5.6.8.9h.2c.1.3.2.6.3.9h.2v.6c.7,2.3-.1,5.7-.8,7.6v.6h-.2v.5h-.1c-.1.5-.2.9-.3,1.4-.2.2-.4.3-.6.5-.3.3-.5.6-.8.9h-.3c-.1.2-.3.4-.5.6h-.3c-.1.2-.2.3-.3.5h-.3c-.1,0-.1.2-.2.3-.1,0-.3,0-.5.2v.2h-.3c-.1,0-.1.2-.2.3-.2,0-.3,0-.5,0v.2c-.3,0-.6.2-.9.3-.1,0-.1.2-.2.3-.3,0-.6.2-.9.3v.2h-.3c-.1,0-.2,0-.3,0v.2c-.3,0-.6.2-.9.3v.2h-.5v.2c-.2,0-.4,0-.6.2v.2h-.5c-.1,0-.2,0-.3,0v.2h-.5c-.1,0-.2,0-.3,0v.2c-1.9.6-3.8,1.1-5.6,1.7h-.8v.2h-.6c-.3,0-.5,0-.8,0v.2h-.9v.2h-1.1v.2h-1.1v.2h-1.4c-.8,0-1.6,0-2.4,0v.2c-.7.2-2.7,0-3.2-.2h-2.3c-.8-.2-1.5-.2-2.3-.3v-.2h-.8v-.2h-.8v-.2h-.6c-.2,0-.4,0-.6,0v-.2h-.6c-1.4-.6-2.8-1.1-4.3-1.7-.1,0-.1-.2-.2-.3-.3,0-.6-.2-.9-.3-.1,0-.1-.2-.2-.3h-.3v-.2c-.2,0-.3,0-.5-.2-.1,0-.1-.2-.2-.3h-.3c-.2-.2-.3-.4-.5-.6h-.3c-.2-.3-.4-.5-.6-.8-.5-.4-.9-.8-1.4-1.2v-.3c-.1,0-.3-.2-.5-.3v-.3c-.2,0-.3-.2-.5-.3v-.3c-.1,0-.2,0-.3-.2v-.3c-.1,0-.2,0-.3-.2v-.3h-.2v-.3c-.1,0-.2,0-.3-.2-.1-.2-.1-.4-.2-.6-.1,0-.2,0-.3,0-.1-.2-.1-.4-.1-.6-.1,0-.2,0-.3-.2v-.3h-.1v-.3h-.2v-.3h-.1v-.3h-.2v-.3h-.1v-.3h-.2c-.1-.3-.2-.6-.3-.9h-.2v-.5h-.1v-.3h-.2c-.1-.3-.1-.6-.2-.9h-.2c-.1-.7-.1-1.4-.1-2.1h-.2v-2.7c0-2.6.1-4.9.8-6.8.1-.7.2-1.3.3-2h.2v-.5h.2v-.5h.2v-.5h.1v-.5h.2c0-.3.1-.6.1-.9h.2v-.3h.1v-.5h.2v-.3h.2v-.5h.1c.1-.3.2-.6.3-.9h.2v-.3h.2v-.3h.2v-.3h.2v-.3h.1v-.3h.2v-.3h.1v-.3c.1,0,.2,0,.3-.2.1-.2.1-.4.2-.6.1,0,.2,0,.3-.2v-.3c.1,0,.2,0,.3-.2v-.3c.1,0,.2,0,.3-.2v-.3h.2c0-.2.1-.3.1-.5.1,0,.2,0,.3-.2v-.3c.2,0,.3-.2.5-.3v-.3c.2-.2.4-.3.6-.5v-.3c.3-.3.6-.5.9-.8v-.3c.3-.2.5-.4.8-.6.5-.5.9-1,1.4-1.5h.3c.3-.3.5-.6.8-.9h.3c.2-.2.3-.4.5-.6h.3c.1,0,.1-.2.2-.3h.2c0,0,.1-.2.1-.3h.3c.1,0,.1-.2.2-.3h.3c.1-.2.2-.3.3-.5h.3c0,0,.1-.2.1-.3.1,0,.3,0,.5-.2h0c.1,0,.2,0,.3,0,0,0,.1-.2.2-.3.1,0,.3,0,.4-.2v-.2c.2,0,.4,0,.6,0,.1,0,.1-.2.2-.3.3,0,.6-.2.9-.3,0,0,.1-.2.1-.3.3,0,.6-.2.9-.3h0c.1,0,.2,0,.3,0v-.2c.3,0,.6-.2.9-.3h0c.3-.2.5-.2.8-.3v-.2h.3c.2,0,.3,0,.5,0v-.2h.3v-.2h.5v-.2h.5v-.2h.5v-.2h.5v-.2h.6c.2,0,.4,0,.6,0v-.2h.8v-.2h1.1v-.2c1.1-.6,2-.2,2.4-.6ZM395,62.9c2.8,0,5.5.3,7.1,1.4.1.2.2.3.3.5h.3c.3.3.5.6.8.9.1,0,.2,0,.3,0v.3c.1,0,.2,0,.3.2v1.8h-.2v.9h-.2v.5h-.2v.5h-.2v.3c-.2,0-.3.2-.5.3v.3c-.2,0-.3,0-.5.2-.1.2-.2.3-.3.5h-.3v.2c-1.5.7-4.1.5-6.2.5h-2.1v.2c-.7,0-1.3,0-2,.2-1.1.5-2.2.9-3.3,1.4v.2c-.2,0-.3,0-.5.2,0,0-.1.2-.2.3h-.3c-.1,0-.1.2-.2.3h-.3c-.1.2-.3.4-.5.6h-.3c-.1,0-.1.2-.1.3-.2,0-.4.3-.6.5v.3c-.2,0-.3.2-.5.3v.3c-.1,0-.2,0-.3,0-.2.5-.3.9-.5,1.4h-.1v1.2c0,1.2.3,2.4,0,3.3v1.5c-.3,1.2-.4,2.8-.8,3.9v.9h-.2v.9h-.1v.9h-.2v.9c-.7,2.3-.8,5.2-1.1,7.9,0,.3-.1.3-.1.3v2.7h-.2v2.7h.2c0,.2.1.4.1.6.2.2.4.3.6.5,1.5,2,3.5,3,3.5,6.5-.2,0-.2.3-.3.3h-.3v.2c-.3,0-.5,0-.8.2v.2c-.6,0-1.1,0-1.7,0v.2c-1,0-2,0-3,.2-1.1.4-2.1.7-3.2,1.1-2.2,1-5.1,2.4-8.1,1.2-.2-.5-.2-1.4-.2-2.1h.2v-.6h.2v-.3h.2v-.5c.1,0,.2,0,.3-.2,0-.2.1-.4.1-.6.2,0,.3-.2.5-.3v-.3c.3-.2.5-.4.8-.6v-.3c.5-.4.9-.8,1.4-1.2v-.3c.2-.2.4-.3.6-.5v-.3c.1,0,.2,0,.3-.2v-.3c.1,0,.2,0,.3-.2.1-.2.1-.4.1-.6h.2c.1-.2.1-.4.1-.6h.2c.1-.3.1-.6.2-.9h.1v-.5h.2v-.5h.1v-.5h.2c0-.4.1-.7.1-1.1h.2v-.6h.1v-.8c.8-2.4,1.1-5.3,2-7.6,0-.4.1-.8.1-1.2h.2v-.8h.2v-.6h.2v-.6h.2v-.6h.2v-.8c.4-1.1.6-2.6.9-3.8.1-.6.1-1.2.2-1.8h.2c0-.8.1-1.5.2-2.3h.1c.1-1,.1-1.9.2-2.9h.1c0,0-.1,0-.1,0,0-.3-.1-.5-.2-.8h-.1v-.5c-.3-.7-.8-1.4-.9-2.4.5-.5.7-1.5,1.1-2.1.1,0,.2,0,.3-.2v-.3h.2v-.3h.2v-.3h.2v-.3h.1v-.3h.2v-.3h.2v-.3h.1v-.3h.2v-.3h.2v-.3c.1,0,.2,0,.3-.2.1-.3.2-.6.3-.9.1,0,.2,0,.3-.2.1-.2.1-.4.1-.6h.2c.1-.2.1-.3.2-.5.1,0,.2,0,.3,0v-.3c.6-.7,1.2-1.4,1.8-2.1h.3c.5-.2,1-.3,1.5-.4,1.6-.6,3.6-1,5.3-1.5.6,0,1.2,0,1.8-.2h0c.4-.4,1.1,0,1.4-.4ZM454.3,64.5v-1.8h-.1v-.9h-.2v-.6h-.2v-.6h-.1c-.3-.3-1.9-.5-2.6-.3-1.1.3-1.7,1.3-2.4,2-.3.3-.7.4-.9.8-1.1,0-2.2-.4-3-.6h-1.8c0,0-2.1,0-2.1,0h0c0,0-2,0-2,0v.2h-1.1v.2c-.6,0-1.1,0-1.7.2h0c0-.1-.6-.1-.6-.1h0c0,0-.5,0-.5,0v.2h-.5v.2h-.6v.2l-.8.2v.2c-.2,0-.4,0-.6.2h0c0,0-.5,0-.5,0v.2c-.3,0-.6.2-.9.3v.2h-.3c-.3,0-.6.1-.9.2-.1,0-.1.2-.1.3h-.3c0,0-.3,0-.3,0v.2h-.3c0,0-.3,0-.3,0,0,0-.1.2-.2.3h-.3v.2h-.3c-.1,0-.1.2-.2.3-.2,0-.4,0-.6.2-.1,0-.1.2-.2.3h-.3c0,0-.1.2-.1.3h-.3c0,0-.1.2-.2.3h-.3c0,0-.1.2-.1.3h-.3v.3h-.4c-.1.2-.2.3-.3.5h-.3c-.1,0-.1.2-.2.3h-.3c-.1,0-.1.2-.2.3-.2,0-.3,0-.5.2-.1.2-.2.3-.3.5h-.3c-.1.2-.3.4-.5.6h-.3c-.1.2-.3.4-.5.6h-.1c-.2.3-.4.5-.6.8h-.3c-.3.4-.6.7-.9,1.1-1.3,1-2.3,2.2-3.5,3.3-.6.5-1.1,1-1.7,1.5v.3c-.3.3-.6.5-.9.8v.3c-.3.2-.5.4-.8.6v.3c-.2.2-.4.3-.6.5v.3c-.2.2-.4.3-.6.5v.3c-.2,0-.3.2-.5.3v.3c-.1,0-.2,0-.3.2v.3c-.1,0-.3.2-.5.3v.3c-.1,0-.2,0-.3.2-.1.2-.1.3-.2.5h-.2v.3c-.1,0-.2,0-.3.2v.3c-.1,0-.2,0-.3,0v.3c-.1,0-.2,0-.3.2,0,.2-.1.4-.2.6-.1,0-.2,0-.3.2-.1.3-.2.6-.3.9-.1,0-.2,0-.3,0v.3h-.2v.3h0v.3h-.1v.3h-.2v.3h-.1v.3h-.2v.3h-.1v.3h-.2v.3h-.2c-.1.3-.2.6-.3.9h-.2v.5h-.2v.3h-.2v.5h0v.3h-.2c0,.3-.1.6-.1.9h-.2v.5h-.1v.5h-.2v.5h-.1c-.3,1.4-.6,2.8-.9,4.3v1.4h-.1v1.8c0,1.8.2,3.4.6,4.7.1.4.1.8.2,1.2h.2v.5h.2v.5h.1v.5h.2v.5h.1c.1.3.2.6.3.9h.2v.3h.2v.3h.2c.1.2.1.4.2.6.1,0,.2,0,.3.2.1.2.1.4.2.6.1,0,.2,0,.3.2v.3c.1,0,.2,0,.3.2,0,.2.1.3.1.5.2.2.4.3.6.5v.3c.1,0,.3.2.5.3.3.4.7.8,1.1,1.2h.3c.1.2.3.4.5.6,1.4,0,2.8,0,4.3-.2v-.2h.8v-.2h.8v-.2h.6v-.9h.5c.4-.2.7-.2,1.1-.3v-.2c.2,0,.5,0,.8,0v-.2h.3v-.2h.5c.3-.1.6-.2.9-.3v-.2h.3v-.2h.3v-.2c.3,0,.6-.2.9-.3l.2-.3c.2,0,.4,0,.6-.2.1,0,.1-.2.2-.3.2,0,.4,0,.6,0v-.2c.1,0,.3,0,.5,0,.1,0,.1-.2.2-.3h.3c0,0,.1-.2.2-.3h.3c0,0,.1-.2.1-.3h.3c0,0,.1-.2.1-.3h.3c.1-.2.2-.3.3-.5h.3c.1,0,.1-.2.2-.3h.3c.1-.2.2-.3.3-.5h.3v-.2c.2,0,.3,0,.5-.2.1,0,.1-.2.2-.3h.3c.1-.2.3-.4.5-.6h.3c1.2-1.2,2.3-2.4,3.5-3.7h.3c.3-.3.5-.6.8-.9h.3c.2-.2.3-.4.5-.6h.3c.1-.2.2-.3.3-.5h.3c0,0,.1-.2.2-.3h.3c.1,0,.2-.3.3-.5.2,0,.4,0,.6-.2.1,0,.1-.2.2-.3h.3c.6-.3.9-.7,1.8-.8-.1,1-.5,1.9-.8,2.7,0,.4-.1.7-.2,1.1-1,2.4-1.7,5-1.7,8.5.3.4.7.8,1.1,1.2h.3c.1,0,.1.2.2.3h.3c.1,0,.1.2.1.3h.3v.2h.3v.2h.5c0,0,.5,0,.5,0v.2h.6v.2h.9v.2h2.3c.7-.2,1.6-.4,2.4-.5h0c0,0,.1,0,.1,0,0-.7-.1-1.3-.1-2h-.2c-.3-1,.1-3.9.3-4.6.1-.8.2-1.6.3-2.4h.2c.1-.6.2-1.2.3-1.8h.2v-1.1h.3v-.5h.1v-.5h.2v-.5h.2v-.5h.2c.1-.5.2-1,.3-1.5h.2c.4-1.8.8-3.5,1.2-5.3v-.9c.3-.8.4-2.1.6-2.9v-1.2c.3-1,.3-2.4.6-3.3v-1.2c.3-.9.3-2.3.6-3.2v-1.1h.2v-.9h.2v-.8h.1v-.4c.4-1.2.7-2.7,1.1-3.8v-.6h.2v-.6h.1v-.6h.1v-.6h.1v-.6h.2v-.6h.2v-.6h.2v-.8h.1v-.8h.2l.2-2h.1l.2-2.9h-1.4ZM445,71.5c-.1.5-.2,1-.3,1.5h-.1c-.1.5-.2.9-.3,1.4h-.1v.3h-.2l-.2.9h-.2v.5h-.2v.5h-.1v.4h-.2v.5h0v.5h-.2c-.1.5-.2.9-.3,1.4h-.1v.6h-.2v.5h-.2v.6h0v.6h-.2v.8h-.1v.8h-.2v.8h-.2c0,.6-.1,1.1-.1,1.7-.2,0-.4.3-.6.5-1,1.4-2.3,2.4-3.5,3.6-.8.8-1.5,1.6-2.3,2.4h-.3v.2c-.2,0-.4.3-.6.5-.5.6-1,1.1-1.5,1.7h-.3l-1.7,1.8h-.3c-.7.7-1.3,1.4-2,2.1h-.3c-.5.6-1,1.1-1.5,1.7-.3.3-.6.5-.9.8v.3c-.6.5-1.1,1-1.7,1.5v.3c-.3.2-.5.4-.8.6-.4.5-.8.9-1.2,1.4h-.3c-.3.3-.6.7-.9,1.1h-.3c-.2.3-.4.5-.6.8h-.3c-.1.2-.3.4-.5.6h-.3c-.2.2-.3.4-.5.6h-.3c-.1.2-.3.4-.5.6h-.2c-.1.2-.2.3-.3.5h-.3c-.1,0-.1.2-.2.3h-.2c-.1,0-.1.2-.2.3-.1,0-.3,0-.5.2v.2c-.3,0-.6.2-.9.3-.1,0-.1.2-.2.3h-.5c0,0-.3,0-.3,0v.2c-1,.4-3,.4-3.8-.2,0,0-.1-.2-.1-.3-.2-.2-.4-.3-.6-.5v-.3c-.1,0-.2,0-.3-.2-.1-.3-.2-.6-.3-.9h-.2v-.3h-.1v-.5c-1.7-4.2-.7-11.1.8-14.9.1-.3.1-.6.2-.9h.2v-.3h.1v-.5h.2c.1-.3.2-.6.3-.9h.2v-.3h.2v-.3h.2v-.3h.1v-.7h.2v-.3h.1v-.3h.2v-.3h.2v-.3c.1,0,.2,0,.3-.2.1-.3.2-.6.3-.9h.1c0-.2.1-.3.2-.5.1,0,.2,0,.3-.2.1-.2.1-.4.2-.6h.1c.1-.2.1-.3.2-.5.1,0,.2,0,.3,0v-.3c.1,0,.3-.2.5-.3v-.2c.1,0,.2,0,.3-.2v-.3c.2,0,.3-.2.5-.3v-.3c.1,0,.3-.2.5-.3v-.3c.2,0,.3-.2.5-.3v-.3c.3-.2.5-.4.8-.6v-.3c.2,0,.3-.2.5-.3v-.2c.1,0,.2,0,.3-.2v-.3c.4-.4.8-.7,1.2-1.1v-.3c.9-.8,1.7-1.6,2.6-2.4.3-.3.5-.6.8-.9h.3c.4-.4.7-.8,1.1-1.2h.3c.1,0,.1-.2.2-.3h.1c.1-.2.2-.3.3-.5h.3c.2-.2.3-.4.5-.6h.3c.1,0,.1-.2.2-.3h.2v-.3h.4c.1-.2.2-.3.3-.5h.3c.1,0,.1-.2.2-.3h.3c.1-.2.2-.3.3-.5h.3c.1,0,.1-.2.2-.3.2,0,.3,0,.5-.2v-.2h.3c0,0,.1-.2.1-.3.1,0,.3,0,.5-.2v-.2c.2,0,.4,0,.6,0,.1,0,.1-.2.1-.3.2,0,.4,0,.6-.2.1,0,.1-.2.1-.3h.3v-.2h.3v-.2h.3v-.2h.3v.3h.3v-.2h.3c0,0,.3,0,.3,0v-.2c.3,0,.6-.2.9-.3v-.2c1.2-.4,2.3-.8,3.5-1.2h.6v-.2h.6c0,0,.9,0,.9,0v-.2c.6-.2,1.4.2,1.8-.2,1.6,0,3.4,0,4.4.8,0,0,.1.2.2.3h.3c.1,0,.1.2.2.3h.3c.1,0,.1.2.3.3-.7,1.9-1.2,3.4-1.7,4.7ZM316.9,71.1c-.1,0-.2,0-.3-.2v-.3c-.1,0-.2,0-.3,0v-.3c-.1,0-.2,0-.3-.2v-.3c-.1,0-.3-.2-.5-.3v-.3c-.4-.3-.7-.6-1.1-.9-.4-.5-.8-.9-1.2-1.4h-.3c-.1-.2-.2-.3-.3-.5h-.3c-.1,0-.1-.2-.2-.3h-.3c0,0-.1-.2-.1-.3-.2,0-.4,0-.6,0v-.2c-.3,0-.6-.2-.9-.3h0c0,0-.5,0-.5,0h0c0,0-.5,0-.5,0v-.2h-.5c0,0-.6,0-.6,0v-.2h-.6v-.2h-.8c0,0-.8,0-.8,0v-.2h-.9v-.2h-1.5c-.7-.2-1.9-.2-2.9-.2-1.6,0-3.7-.2-5,.2h-2.3v.2h-1.8v.2h-1.8c-.6.3-1.4,0-1.8.3h-2.6c-.1.2-.1.3-.2.5-.1,0-.2,0-.3,0v.3c-.1,0-.2,0-.3.2-.2.3-.4.5-.6.8-.9.9-1.8,1.6-2.6,2.7-.1,0-.2,0-.3.2v.3h-.2v.3h-.2v.5h-.2v.5c-.1.4-.5,1.6-.3,2.3h.2v.8c.9.3,1.6.5,2.4.8.2,1.2-.1,3.1-.5,4.2v1.2h-.2v1.4h-.2c-.2,2.5-.4,5-.6,7.4-.3,1.2-.3,2.8-.6,3.9v1.1c-.3,1.6-.6,3.2-.9,4.9l-.9.2v.2h-1.2v-.2h-2c-.4.3-.8.5-1.2.7-.1.3-.4.8-.5,1.1v.8h.1c-.2.8.2,2.2.5,2.6h.2v.3c.2,0,.3.2.5.3v.3h.2c0,0,.1.2.1.3h.3c.1.2.2.3.3.5h.3c.1,0,.1.2.2.3h.3v.2h.3c.7.4,1.4.7,2.4.8v.5h-.2v1.7h-.1v1.5h-.3v1.5h-.2v1.2h-.2v1.2h-.2v.9h-.2v1.1c-.2.7-.4,1.7-.6,2.4v.8c-.3,1-.6,2.2-.9,3.2v.6h-.2v.5h-.2v.5h-.2v.5h-.2c-.1.3-.1.6-.2.9h.3v.3h-.2l-.2.9h-.2v.3h-.2c0,.3-.1.6-.1.9h-.2v.3h-.1c-.7,2.1-1.4,4.3-2.1,6.4.1,1.3,2,1.4,3.3,1.1h.9v-.4h2c.3-.4.6-.8.9-1.2v-.3c.1-.1.2-.1.3-.2.5-1.2,1-2.4,1.5-3.6l.2-1.1h.2v-.5h.2c0-.5.1-.9.2-1.4.3-1,.5-2.3.8-3.3v-1.2h.2v-1.2h.2v-1.5h.2v-1.7h.2v-2h.2v-2.3h.2v-2.1h.2v-2h.2v-1.8h.2v-1.5c.2-.9.3-1.8.5-2.7.9,0,1.7-.4,2.4-.6.4,0,.8,0,1.2-.2,1.6-.6,3.4-1.1,4.9-1.7h.5v-.2h.5c0,0,.5,0,.5,0v-.2h.5v-.2h.3v-.2h.5c.3-.1.5-.1.8-.1v-.2h.3c0,0,.5,0,.5,0v-.2c.2,0,.4,0,.6-.2v-.2h.5v-.2c.3,0,.6-.2.9-.3h0c0,0,.3,0,.3,0v-.2h.3v-.2h.3s.3,0,.3,0v-.2h.3v-.2h.3v-.2h.3v-.2h.3v-.2h.3c0,0,.1-.2.2-.3.2,0,.4,0,.6,0,0,0,.1-.2.1-.3.2,0,.4,0,.6-.2v-.2c.2,0,.3,0,.5-.2.1,0,.1-.2.2-.3h.3c.1,0,.1-.2.2-.3h.3c.1-.2.2-.3.3-.5h.3c.1-.2.2-.3.3-.5h.3c.2-.2.3-.4.5-.6h.3c.3-.3.5-.6.8-.9h.3c.4-.4.7-.8,1.1-1.2.2-.2.4-.3.6-.5h0c.3-.2.6-.4.9-.7.1-.2.1-.3.1-.5.2,0,.3-.2.5-.3v-.3c.1,0,.2,0,.3,0v-.3c.1,0,.3-.2.4-.3v-.3c.1,0,.2,0,.3-.2.1-.2.1-.4.2-.6.1,0,.2,0,.3-.2.1-.3.2-.6.3-.9.1,0,.2,0,.3,0v-.3h.2c0-.2.1-.4.1-.6h.2v-.5h.2v-.3h.2c.1-.2.1-.4.2-.6h.1v-.5h.2v-.3h.2v-.5h.1v-.5h.2v-.5h.1v-.5h.2v-.6c.3-.8.5-1.8.8-2.6v-.9h.2c.1-1.1.2-2.1.3-3.2,0-.6-.1-1.5.2-1.8v-1.8h-1.3ZM308.4,77.1h-.2v1.1h-.1v.6h-.2v.6h-.2v.5h-.2v.5h-.2v.9h-.3c0,.2-.1.4-.1.6h-.2v.5h-.1c-.1.2-.1.4-.1.6h-.2v.3c-.1,0-.2,0-.3.2-.1.3-.2.6-.3.9-.1,0-.2,0-.3.2v.3c-.1,0-.2,0-.3.2v.3c-.1,0-.2,0-.3.2v.3h-.2c-.1.2-.1.3-.2.5-.1,0-.2,0-.3.2v.3c-.2.2-.4.3-.6.5v.3c-.3.2-.5.4-.8.6v.3c-.5.4-.9.8-1.4,1.2-.5.5-.9,1-1.4,1.5h-.3c-.2.2-.3.4-.5.6h-.3c-.1,0-.2.3-.3.4h-.3c-.1.2-.2.3-.3.5h-.3c-.1,0-.1.2-.1.3h-.3c-.1,0-.1.2-.2.3-.2,0-.4,0-.6.2,0,0-.1.2-.2.3-.3,0-.6.2-.9.3v-.2c-.3,0-.6.2-.9.3v.2h-.5c0,0-.3,0-.3,0v.2c-1.4.4-2.8.8-4.3,1.2h-.6v.2h-.4v.2h-.3v.2h-.6v.2h-.5c0,0-.5,0-.5,0v.2c-.4.2-.8,0-1.1.5h-.1v-7.9c0-1.3-.1-3,.1-4.1v-2.7c.1-1.5.2-3,.3-4.6h.1v-1.2h.2v-.9h.2v-.8h.2v-.8h.2v-.6h.1v-.6h.2c.1-.3.1-.7.2-1.1h.2c.7-1.2,4.5-1.8,6.1-2.3.7-.2,2.3,0,2.7-.3,4.9,0,8.6.3,11.1,2.7.2,0,.4.3.6.5.1.2.1.4.2.6h.2v.3h.2v.5h.1v.6h.2v2.2h-.2ZM93.5,86.6c1-.2,2-.3,3-.5v-.2h.9c1.3-.4,3.1-.6,4.4-1.1.5,0,.9,0,1.4-.2.9-.3,2.1-.6,3-.9.4,0,.8,0,1.2-.2v-.2h.5v-.2h.5v-.2h.6c.2,0,.3,0,.5,0v-.2h.5v-.2h.5v-.2h.5v-.2h.5c0,0,.3,0,.5,0v-.2c.3,0,.6,0,.9-.2v-.2h.3v-.2c.4-.2.9-.2,1.2-.3,0-.3,0-.5,0-.8h-.2v-.5c0,0-.2,0-.3-.2,0-.2,0-.4-.2-.6,0,0-.2,0-.3-.2v-.3c-.2,0-.3-.2-.5-.3v-.3c0,0-.2,0-.3-.2-.2-.2-.3-.4-.5-.6h-.3c0-.2-.2-.3-.3-.5h-.3c0,0,0-.2-.2-.3-.2,0-.3,0-.5-.2v-.2c-.5-.2-.9-.3-1.4-.5v-.2h-.3v-.2h-.5v-.2c-.4,0-.8,0-1.2,0-.6-.2-3-.6-3.9-.3v.2c-.5,0-1,0-1.5.2-3.8,1.4-6.3,4.3-7.9,7.9v.5h0v.5h-.2v.5h0v.5h-.2v.6c-.4,1.2-.7,3.7-.3,5.2v.9h0v.8h.2v.5h.2v.5h0v.5h.2c0,.3.2.6.3.9h.2v.3h.2c0,.2,0,.4.2.6,0,0,.2,0,.3.2v.3c.2,0,.3.2.5.3v.3c.4.4.8.7,1.2,1.1.3.3.5.6.8.9h.3c0,0,0,.2.2.3.2,0,.3,0,.5.2v.2c.2,0,.4,0,.6,0,0,0,0,.2,0,.3h.3v.2h.5v.2c.2,0,.4,0,.6.2v.2h.5c.2,0,.4,0,.6,0v.2h.5c.3,0,.5,0,.8,0,1.3.4,3.4.4,4.7,0h.9c1.1-.4,2.1-.7,3.2-1.1v-.2c.2,0,.4,0,.6-.2h0c.2-.2.4-.2.6-.3,0,0,0-.2.2-.3.2,0,.4,0,.6-.2,0,0,0-.2,0-.3h.3c0,0,0-.2.2-.3h.3c0-.2.3-.4.5-.6h.3c.4-.4.7-.8,1.1-1.2.2-.2.5-.4.8-.6v-.3c0,0,.2,0,.3-.2,0-.2,0-.4,0-.6h.2c0-.2,0-.3.2-.5,0,0,.2,0,.3,0v-.3c0,0,.2,0,.3-.2.2-.2.3-.4.5-.6.3-.2.3,0,.6-.3.3,0,0,0,.3.2.5,0,.8.4.9.9.4.4,0,.8.3,1.5h.2c0,1.7,0,3.4-.2,5.2-.3,0-.5.3-.8.5,0,0,0,.2-.2.3h-.3c-.2.2-.3.4-.5.6h-.3c0,.2-.2.3-.3.5h-.3c0,0-.2.3-.3.5h-.3c0,0,0,.2-.2.3h-.3c0,0,0,.2-.2.3h-.3c0,0,0,.2-.2.3h-.3c0,0,0,.2-.2.3-.2,0-.4,0-.6,0,0,0,0,.2-.2.3-.3,0-.6.2-.9.3h0c0,0-.2,0-.3,0v.2h-.3v.2c-.3,0-.6.2-.9.3h0c0,0-.3,0-.5,0v.2h-.3v.2h-.5v.2h-.5v.2h-.5v.2h-.6v.2h-.6c-.3,0-.5,0-.8,0v.2h-1.1c-1.4.4-4.7.2-5.9-.2-.5,0-1,0-1.5,0v-.2h-.5v-.2h-.3v-.2h-.5v-.2h-.3v-.2h-.3c0,0,0-.2-.2-.3-.2,0-.4,0-.6-.2,0,0,0-.2-.2-.3h-.3c0,0,0-.2-.2-.3h-.3c0-.2-.2-.3-.3-.5-3.3-2.3-5.8-5.6-7.1-9.9,0-1,0-1.9-.2-2.9-.2-.9,0-3,.3-4v-.9h.2v-.6h0v-.6h.2v-.5h.2v-.6h.2c0-.3,0-.6.2-.9h.2v-.3h0v-.5h.2v-.3h0v-.5h.2c0-.3.2-.6.3-.9h.2c0-.3.2-.6.3-.9,0,0,.2,0,.3-.2,0-.2,0-.4.2-.6,0,0,.2,0,.3-.2,0-.2,0-.4.2-.6,0,0,.2,0,.3,0v-.3c.2,0,.3-.2.5-.3v-.3c.2,0,.3-.2.5-.3v-.3c.3-.2.5-.4.8-.6v-.3c.4-.3.8-.7,1.2-1.1,0-.2.3-.4.5-.6h.3c0-.2.2-.3.3-.5h.3c0,0,0-.2,0-.3h.3c0,0,0-.2.2-.3.2,0,.4,0,.6-.2h0c.3-.2.6-.3.9-.4v-.2h.5v-.2h.3c.2,0,.3,0,.5,0v-.2h.6v-.2h.6v-.2h.8c.4,0,.7,0,1.1,0v-.2c.9-.3,3.5,0,4.1.3h.8v.2h.6v.2h.5v.2h.5c.2,0,.3,0,.5,0v.2c.3,0,.6.2.9.3v.2h.3c0,0,.2,0,.3,0v.2c.3,0,.6.2.9.3,0,0,0,.2.2.3h.3c0,.2.2.3.3.5h.3c.2.2.3.4.5.6h.3c.2.2.3.4.5.6h.2v.3c.2.2.4.3.6.5v.3c.2,0,.3.2.5.3,0,.3.2.6.3.9,0,0,.2,0,.3.2,0,.3,0,.5,0,.8h.2v.3h.2c0,.3,0,.5,0,.8h0v.6h.2v.5h.2v.6h.2c.2.5,0,1.1.3,1.5h0c-.4.4-.6,0-1.2.3v.2h-.8v.2h-.6v.2h-.6v.2h-.6c-.2,0-.4,0-.6,0v.2h-.6v.2h-.5v.2c-.4,0-.8,0-1.2.2-2.1.7-4.4,1.3-6.5,2-.9.2-1.7.3-2.6.5h0c-.2,0-.4,0-.6,0v.2h-.5v.2h-.5v.2h-.5v.2c-.4,0-.7,0-1.1,0v.2c-.7,0-1.3.2-2,.3v.2h-2c-.3,0-.6-.4-1.1-.5-1.2-.5-1.6-.7-1.7-1.6ZM40.9,97.4c-.5,0-.8.4-1.2.6h-.3c-.2,0-.3,0-.5,0v.2h-.3v.2c-.3,0-.6.2-.9.3v.2h-.5v.2h-.3c-.2,0-.4.2-.6.3v.2c-.6.2-1.2.4-1.8.6v.2c-.2,0-.4,0-.6.2v.2h-.5c-.2.2-.4.2-.6.3h0c-.2,0-.3,0-.5,0v.2h-.3v.2h-.5v.2c-.2,0-.4,0-.6.2h0c-.1,0-.3,0-.5,0v.2c-.2,0-.4,0-.6.2h0c-.2,0-.3,0-.5,0v.2c-.2,0-.4,0-.6,0v.2h-.5v.2h-.3v.2h-.5c-.2.2-.4.2-.6.3v.2h-.5v.2c-.2,0-.4,0-.6.2v.2c-.5.2-1,.3-1.5.5v.2h-.3c-.1,0-.3,0-.5,0v.2h-.3c-.2,0-.3,0-.5,0v.2c-.2,0-.4,0-.6.2v.2h-.5v.2c-.2,0-.4,0-.6,0v.2h-.5v.2c-.2,0-.4,0-.6.2v.2h-.5v.2h-.3v.2h-.5c-.1,0-.2,0-.3,0v.2h-.5c-.1,0-.2,0-.3,0v.2h-.5c-.2,0-.3,0-.5,0v.2h-.5v.2h-.6v.2h-.5v.2h-.8c-.3,0-.5,0-.8,0v.2h-1.5v.2h-1.2v-.2c-.7,0-1.4,0-2.1-.2h0c-.2,0-.4,0-.6,0v-.2c-.3,0-.6,0-.9-.2v-.2c-.3,0-.5,0-.8-.2h0c-.2-.2-.4-.2-.6-.3h0c-.3-.2-.6-.3-.9-.4,0,0,0-.2-.2-.3h-.3c0,0,0-.2-.2-.3-.3-.2-.5-.4-.8-.6v-.3c0,0-.2,0-.3-.2s0-.3-.2-.5h-.2v-.3h-.2c0-.2,0-.4-.2-.6h-.1c-.1-.3-.1-.6-.1-.9h-.2v-.6h-.2v-1.4h-.1c.1-.7.1-1.3.1-2h.2c.1-.7.2-1.3.3-2h0c0-.3,0-.6.2-.9h.2v-.3h.2v-.5h.2c0-.3.2-.6.3-.9h.2v-.3h0v-.3h.2v-.3h0c0-.3.2-.6.3-.9,0,0,.2,0,.3,0,0-.3.2-.6.3-.9h.2c0-.2,0-.3,0-.5,0,0,.2,0,.3-.2v-.3c0,0,.2,0,.3-.2v-.3h.2c0-.2,0-.3,0-.5,0,0,.2,0,.3,0v-.3c0,0,.3-.2.5-.3v-.3c0,0,.2,0,.3-.2v-.3c.2,0,.3-.2.5-.3v-.3c.2,0,.4-.3.6-.5v-.3c.1,0,.2,0,.3-.2h0c.1-.2.2-.2.3-.3v-.3c.2-.2.4-.3.6-.5v-.3c.3-.2.5-.4.8-.6v-.3c.3-.3.6-.5.9-.8v-.3c.5-.5,1-.9,1.5-1.4.3-.3.5-.6.8-.9h.3c.3-.3.5-.6.8-.9.2,0,.3,0,.5,0,.1-.2.2-.3.3-.5h.3c.1,0,.2-.3.3-.5h.3c0,0,.1-.2.2-.3h.3c.1-.2.2-.3.3-.5h.3c.1,0,.1-.2.2-.3.2,0,.4,0,.6-.2v-.2c.2,0,.3,0,.5,0,.1,0,.1-.2.2-.3.2,0,.4,0,.6,0,.1,0,.1-.2.1-.3.3,0,.6-.2.9-.3.1,0,.1-.2.2-.3h.3v-.2h.3v-.2h.3c.1,0,.2,0,.3,0,0,0,.1-.2.2-.3.8-.4,1.6-.7,2.4-1.1.1,0,.1-.2.2-.3h.3v-.2h.3v-.2h.3v-.2h.3v-.2h.3c.1,0,.1-.2.2-.3h.3c.1,0,.2,0,.3,0v-.2h.3c.1,0,.1-.2.1-.3h.3c.1,0,.1-.2.1-.3h2.6v.2h.3c.2,0,.3.2.5.5.3.3,0,0,.2.5h.1v.5h.2v1.2h.2v1.2h-.2v1.1h-.2v.6h-.1c-.1.3-.1.6-.2.9h-.2c-.1.2-.1.4-.2.6h-.2v.3c-.2.2-.5.4-.8.6-.1.2-.2.3-.3.5h-1.1c-.2-.2-.3-.4-.5-.6h-.2c0-.4-.1-.8-.2-1.2-.2-.5-.4-1.2-.6-1.7-.9.2-1.6.6-2.3.9-.5.2-.9.3-1.4.5v.2c-.4,0-.7.2-1.1.3,0,0-.1.2-.2.3h-.3c-.1,0-.2,0-.3,0v.2h-.3v.2h-.3v.2h-.3c1-.9.9-.8.9-.7h-.3v.2h-.3c0,0-.1.2-.1.3h-.3c0,0-.1.2-.1.3h-.3c-.1.2-.2.3-.3.5h-.3c-.1.2-.2.3-.3.5h-.3c-.3.3-.5.6-.8.9h-.3c-.1,0-.1.2-.2.3h-.1v.3c-.3.2-.5.4-.8.6v.3c-.2.2-.4.3-.6.5v.3c-.1,0-.2,0-.3,0v.3c-.1,0-.2,0-.3.2v.3c-.1,0-.2,0-.3.2v.3c-.1,0-.2,0-.3,0v.3c-.1,0-.2,0-.3.2-.1.3-.2.6-.3.9-.1,0-.2,0-.3.2-.1.3-.2.6-.3.9h-.2v.3h-.1c-.1.3-.2.6-.3.9h-.2c0,.2-.1.5-.2.8h-.1v.3h-.1v.5h-.2v.3h-.2c0,.3-.1.6-.2.9-.8,2.1-1.5,5.9-.3,8.2.1.3.2.6.3.9.1,0,.2,0,.3.2,0,0,.1.3.2.5h.8c.8-.2,1.5-.3,2.3-.4,1.3-.4,2.5-.8,3.8-1.2v-.2c.2,0,.4,0,.6,0v-.2c.3,0,.5,0,.8-.2v-.2h.3v-.2h.3v-.2h.3v-.2h.3c.2-.2.4-.2.6-.3.1,0,.1-.2.2-.3.3,0,.6-.2.9-.3,0,0,.1-.2.2-.3.2,0,.4,0,.6-.2.1,0,.1-.2.2-.3.2,0,.4,0,.6,0,.1,0,.1-.2.1-.3.2,0,.4,0,.6-.2,0,0,.1-.2.2-.3h.3c0,0,.1-.2.2-.3h.3c0,0,.1-.2.2-.3.2,0,.4,0,.6-.2,0,0,.1-.2.2-.3h.3c0,0,.1-.2.1-.3h.3c0,0,.1-.2.1-.3.2,0,.4,0,.6-.2v-.2c.1,0,.3,0,.5-.2.1,0,.1-.2.2-.3.2,0,.4,0,.6,0,.1,0,.1-.2.2-.3.2,0,.4,0,.6-.2,0,0,.1-.2.2-.3.3,0,.6-.2.9-.3,0,0,0-.2,0-.3.2,0,.4,0,.6,0v-.2h.3v-.2c.3,0,.6-.2.9-.3h0c0,0,.3,0,.5,0v-.2c.2,0,.4,0,.6,0h0c1.4-.5,2.7-.9,4.1-1.3.3,0,.6,0,.9,0,.3.5,0,0,.5.3.3.4.5.7.8,1.1v.3h.2v.5c0,1.6-.5,3-.6,4.6ZM68.7,82.3c0-3.2,0-6.4.2-9.6h-.2v-.6c0-.3-.5-.6-.6-.9-.5,0-.7-.3-1.5-.3-.3.3-.6.5-.9.8v.3c0,0-.2,0-.3.2v.2h-.4c-.5.4-2.5-.5-3.6-.2v.2h-1.2c0,0-.6,0-.6,0v.2h-.6v.2c-.3,0-.6,0-.9,0h0s-.3,0-.3,0h0c0,0-.5,0-.5,0v.2c-.3,0-.6.2-.9.3v.2h-.3v.2c-.2,0-.4,0-.6.2,0,0,0,.2,0,.3h-.4l-.2.3h-.3v.2h-.4l-.2.3h-.3c-.2.2-.3.4-.5.6h-.3c-.2.3-.4.5-.6.8h-.2c-.2.3-.4.5-.6.8-.5.5-1,.9-1.5,1.4v.3c-.3.3-.6.5-.9.8v.3c-.2.2-.4.3-.6.5v.3c0,0-.3.2-.5.3v.3c-.2,0-.3.2-.5.3v.3c0,0-.2,0-.3.2v.3c0,0-.2,0-.3.2,0,.2,0,.3-.2.5h-.2v.3h-.2v.3c0,0-.2,0-.3.2,0,.3-.2.6-.3.9,0,0-.2,0-.3,0,0,.3-.2.6-.3.9h0v.3h0c0,.3-.2.6-.3.9h-.2v.5h-.2v.3h0c0,.3,0,.5-.2.8h-.2v.5h-.2v.4h-.2v.5h0v.6h-.2v.6h0v.4h-.2v1.2c-.2.5-.4,3.7,0,4.4h0c0,1,.2,2,.3,3,.9,3,1.9,6,4.9,7h1.2v.2h.6v-.2h1.2v-.2c.3,0,.6,0,.9-.2h0c.3-.2.6-.3.9-.4v-.2c.2,0,.4,0,.6,0,0-.2.2-.3.3-.5h.3c.2-.3.4-.5.6-.8h.4c0,0,0-.2.2-.3.2-.2.5-.4.8-.6v-.3c.4-.3.7-.6,1.1-.9h0c.2-.3.4-.4.6-.6v-.3c.2,0,.4-.3.6-.5v-.3c.3-.2.5-.4.8-.6v-.3c.3-.2.5-.4.8-.6.8-.8,1.4-1.8,2.7-2.1v4.7h-.2v2.4h.2c0,.6,0,1.2.2,1.8h.2v.5h.2v.3h0v.3h0c.2.2.3.4.5.6,1.7,0,2.2-1.1,3.6-1.4,0-1.2,0-2.4,0-3.6h0v-1.8h.2v-1.2c.4-1.4.5-3.3.9-4.7,0-1.3,0-2.5.2-3.8.3-1,0-2.6.2-3.8v-.8h.2v-4.4h-.2v-.6h-.3ZM64,79.4h-.2c0,.7,0,1.3-.2,2h0c0,.6,0,1.2-.2,1.8h-.2c-.2.6,0,1.9-.3,2.3v2.1c0,0-.2,0-.3.2v.3c-.3.2-.5.4-.8.6v.3c-.2.2-.4.3-.6.5v.3c-.2,0-.3.2-.5.3v.3c-.2,0-.3.2-.5.3v.3c0,0-.3.2-.5.3v.3c-.2,0-.3.2-.5.3v.3c0,0-.3.2-.5.3v.3c0,0-.2,0-.3.2v.3c0,0-.2,0-.3.2,0,.2,0,.3-.2.5-.2,0-.3.2-.5.3v.3c-.2,0-.3.2-.5.3,0,.2,0,.3-.2.5,0,0-.2,0-.3.2v.3c0,0-.3.2-.5.3v.3c-.2,0-.3.2-.5.3v.3c0,0-.3.2-.5.3v.3c-.3.2-.5.4-.8.6-.5.6-.8,1.3-1.4,1.8-1,.9-1.9,1.8-2.9,2.7-.5.4-1.5.7-1.8,1.2h-.8c-.3-.3-.6-.4-.9-.6,0-.2,0-.3-.2-.5-.2,0-.3-.2-.5-.3v-.3c0,0-.2,0-.3,0,0-.3,0-.5-.2-.8h-.2v-.4h0v-.6c-.5-1.4-1-4.5-.5-6.4v-1.2h.2v-.8h0v-.8h.2v-.6h0v-.5h.2v-.5h1v-.5h0c0-.3,0-.6,0-.9h.2v-.3h.2v-.5h.2c0-.3.2-.6.3-.9h.2v-.3h.2v-.3h.2v-.3h0c0-.3.2-.6.3-.9,0,0,.2,0,.3-.2,0-.2,0-.4.2-.6h.2c0,0,0-.3.2-.5,0,0,.2,0,.3-.2v-.3h0c0,0,0-.3.2-.5,0,0,.2,0,.3-.2v-.3c.2,0,.3-.2.5-.3v-.3c.2,0,.4-.3.6-.5v-.3c.2-.2.4-.3.6-.5v-.3c.4-.4.8-.7,1.2-1.1v-.3c.2-.2.4-.3.6-.5.4-.5.8-.9,1.2-1.4h.3c.4-.4.7-.8,1.1-1.2.2,0,.4,0,.6-.2h0c.4-.2.8-.2,1.2-.3v-.2c.6,0,1.1-.2,1.7-.3.7-.2,2.4-.8,3.5-.5.5.2,1,.5,1.5.6-.3,2.2-.4,3.7-.5,5.1Z" fill="#fff"/>
  <path id="leaf" d="M534.9,158.1c-4.8-3.9-13.1-6.6-13.1-6.6l-4.9-.5v1.7c0,0,1.7-.2,2.7.7,1.1.1,1.4.9,2.4,1.4,1.1.9,4.8,4.4,6.9,6.6,1.6,2,9.6,7.3,9.6,7.3l8.7,4.2c0,0-7.9-10.7-12.3-14.8ZM565.3,157.2c-.8-.9-5.5-4-9-5.6-2.9-1.3-7.8-2.1-10.4-2.7-2.3-.5-7.6-.5-9.8-.6-2-.1-8.6.5-10.1.7l1.2-.6s3.7-2.5,4.5-2.7c.8-.3,9.3-4.6,10.6-5.1,1.2-.5,8.5-4.2,8.5-4.2l-11.2,3.1s-6.6,2-7.5,2.2c-.8.1-.4-.5-.4-.5l1.1-1.6s1.3-2.7,1.4-2.9c.2-.6,1.2-.9,1.2-.9v-1c.7-1,1.5-2.4,1.9-2.9.9-1.1,1.6-2.2,2.5-3.7,1.3-1.6,2.7-2.8,3.3-3.5.8-1,1.2-2.6,1.6-3.7.3-.9.4-2.8,1.2-5.2.8-1.4,3.2-5.5,3.2-5.5l2.8-4.5s-2.4,2.5-3.3,3.5c-.8.8-3.5,4.6-5.1,6.7-1.6,2.2-2.6,5.8-2.8,6.5s-.3,3.2-1,4.1c-.2.2-1.1,0-1.1,0,0,0,0-3.8-.3-4.3-.5-1-.7-2.3-1-3.8-.7-2.5-2.6-5.3-2.6-5.3,0,0,0,4.6.2,6.2.4,2.3,2,5.3,2.2,7,.3,1.8,0,4.1,0,4.1l-2.3,3.4h-1.1c0,.1,0,.8,0,1.3-1.2,2.6-3.1,6.5-3.5,6.6-.2.4,0,1.1-.3,1.7-1.9,1.8-3.4,3.4-4.2,4.4-.6.4-.6,1.6-.6,1.6h0c0-.1-1.3.9-1.3.9,0,0,5.4-1.4,11.4-1.3,4.6,0,10.2,1,11,1.3s5,2.2,6.5,3.3c2.3,1.7,2,1.9,4.7,3.3,2.2,1.5,4.2,2.7,8.2,3.8,2.5.9,8.5,5.1,8.5,5.1,0,0-7.9-7.8-8.8-8.8ZM554.6,161c-2.1-1.4-3.4-2.6-4.9-3.9-1.1-1.1-2.2-2-3.7-3.2-1.6-1-5.3-2-5.3-2l-4.9-1.6-.8-.8v1.4h.8s2.7,2.8,3.5,4,2.1,2.3,3.9,3.6c1.5.8,3.6,1.7,4.6,2.3.9.6,1.7,1.3,4.2,1.4.7.3,1.8.5,3.7,1.7,1.2,1,1.5,1.6,2.3,2.1.7.5,1.4.9,1.4.9l-2.5-3.2c0-.3-1-1.2-2.3-2.7ZM549.8,146.9c3,.1,5.3-.6,7.3-1.4,1.4-.8,5.8-.8,5.8-.8,0,0-2.2-1.1-4.6-1.2-2.4,0-5-.7-6.5-.6s-4.8,1.4-6.6,1.8c-2.2.5-5.6,2.3-5.6,2.3,0,0,7.2-.1,10.2-.1ZM541,116.8c0-1.4,0-2.2.5-3.2.2-1.9.4-7,.4-7,0,0-1.4,3.8-1.8,6-.4,2.2,0,7.4,0,7.4,0,0,.8-1.5,1-3.2ZM590.6,113.3s-16.3-.4-18.6.5c-6,2.1-9.9,5.2-11.6,6.1-.9.5-4.4,2.4-7.4,4.1.2-.2.4-.3.5-.4,1.1-1.1,2.7-3.1,4.1-4.9,1.4-1.8,3-3.8,3.8-5.6.8-1.8,4.5-7.6,4.5-7.6,0,0-6.9,4.9-11.7,9.9-2.6,2.7-6.6,11.8-6.6,11.8-4,3.4-7.8,8.3-7.8,8.3l.8.4s4.3-5.1,5.5-6.2h.2-.3c0,.1,1.1.5,1.1.5,0,0,.2.4.5.5s4-.2,4.5.6c1.9.9,4.5,1.8,7.2,2.6,1.5.7,4.4.5,6.6.7,2.2.1,8.6,2.6,8.6,2.6,0,0-4.5-2.9-6.1-3.9s-7.7-3.9-10.3-4.1c-2.2-.1-9.8.1-11.3.2,0,0,.3-.1.4-.1.7-.6,3-2.4,5.2-3.9.9-.7,7.3-4,8-4.4,1-.6,2.7-.3,4.2-.3s8.7-.2,10.3-.6c5.2-1.3,8.6-3,12.1-4,2.4-.7,4.5-1.9,10.9-2-.7,0-7.3-.8-7.3-.8ZM534.9,158.1c-4.8-3.9-13.1-6.6-13.1-6.6l-4.9-.5v1.7c0,0,1.7-.2,2.7.7,1.1.1,1.4.9,2.4,1.4,1.1.9,4.8,4.4,6.9,6.6,1.6,2,9.6,7.3,9.6,7.3l8.7,4.2c0,0-7.9-10.7-12.3-14.8ZM565.4,157.2c-.8-.9-5.5-4-9-5.6-2.9-1.3-7.8-2.1-10.4-2.7-2.3-.5-7.6-.5-9.8-.6-2-.1-8.6.5-10.1.7l1.3-.6s3.7-2.5,4.5-2.7c.8-.3,9.3-4.6,10.6-5.1,1.2-.5,8.5-4.2,8.5-4.2l-11.2,3.1s-6.6,2-7.5,2.2c-.8.1-.4-.5-.4-.5l1.1-1.6s1.3-2.7,1.4-2.9c.2-.6,1.2-.9,1.2-.9v-1c.7-1,1.5-2.4,1.9-2.9.9-1.1,1.6-2.2,2.5-3.7,1.3-1.6,2.7-2.8,3.3-3.5.8-1,1.2-2.6,1.6-3.7.3-.9.4-2.8,1.2-5.2.8-1.4,3.2-5.5,3.2-5.5l2.8-4.5s-2.4,2.5-3.3,3.5c-.8.9-3.5,4.6-5.1,6.7-1.6,2.2-2.6,5.8-2.8,6.5s-.3,3.2-1,4.1c-.2.2-1.1,0-1.1,0,0,0,0-3.8-.3-4.3-.5-1-.7-2.3-1-3.8-.7-2.5-2.6-5.3-2.6-5.3,0,0,0,4.6.2,6.2.4,2.3,2,5.3,2.2,7,.3,1.8,0,4.1,0,4.1l-2.3,3.4h-1.1c0,.1,0,.8,0,1.2-1.2,2.6-3.1,6.5-3.5,6.6-.2.4,0,1.1-.3,1.7-1.9,1.8-3.4,3.4-4.2,4.4-.6.4-.6,1.6-.6,1.6h0c0-.1-1.3.9-1.3.9,0,0,5.4-1.4,11.4-1.3,4.6,0,10.2,1,11,1.3s5,2.2,6.5,3.3c2.3,1.7,2,1.9,4.7,3.3,2.2,1.5,4.2,2.7,8.2,3.8,2.5.9,8.5,5.1,8.5,5.1,0,0-8.1-7.7-8.9-8.7ZM554.6,161c-2.1-1.3-3.4-2.6-4.9-3.9-1.1-1.1-2.2-2-3.7-3.2-1.6-1-5.3-2-5.3-2l-4.9-1.6-.8-.8v1.4h.8s2.7,2.8,3.5,4,2.1,2.3,3.9,3.6c1.5.8,3.6,1.7,4.6,2.3.9.6,1.7,1.3,4.2,1.4.7.3,1.8.5,3.7,1.7,1.2,1,1.5,1.6,2.3,2.1.7.5,1.4.9,1.4.9l-2.5-3.2c0-.3-1-1.2-2.3-2.7ZM549.8,146.9c3,.1,5.3-.6,7.3-1.4,1.4-.8,5.8-.8,5.8-.8,0,0-2.2-1.1-4.6-1.2-2.4,0-5-.7-6.5-.6s-4.8,1.4-6.6,1.8c-2.2.5-5.6,2.3-5.6,2.3,0,0,7.2-.1,10.2-.1ZM541,116.8c0-1.4,0-2.2.5-3.2.2-1.9.4-7,.4-7,0,0-1.4,3.8-1.8,6-.4,2.2,0,7.4,0,7.4,0,0,.8-1.5,1-3.2ZM590.6,113.3s-16.3-.4-18.6.5c-6,2.1-9.9,5.2-11.6,6.1-.9.5-4.4,2.4-7.4,4.1.2-.2.4-.3.5-.4,1.1-1.1,2.7-3.1,4.1-4.9,1.4-1.8,3-3.8,3.8-5.6.8-1.8,4.5-7.6,4.5-7.6,0,0-6.9,4.9-11.7,9.9-2.6,2.7-6.6,11.8-6.6,11.8-4,3.4-7.8,8.3-7.8,8.3l.8.4s4.3-5.1,5.5-6.2h.2-.3c0,.1,1.1.5,1.1.5,0,0,.2.4.5.5s4-.2,4.5.6c1.9.9,4.5,1.8,7.2,2.6,1.5.7,4.4.5,6.6.7,2.2.1,8.6,2.6,8.6,2.6,0,0-4.5-2.9-6.1-3.9s-7.7-3.9-10.3-4.1c-2.2-.1-9.8.1-11.3.2,0,0,.3-.1.4-.1.7-.6,3-2.4,5.2-3.9.9-.7,7.3-4,8-4.4,1-.6,2.7-.3,4.2-.3s8.7-.2,10.3-.6c5.2-1.3,8.6-3,12.1-4,2.4-.7,4.5-1.9,10.9-2-.7,0-7.3-.8-7.3-.8ZM535.4,143c2.3-1.1,4.3-2.3,4.3-2.3,0,0-2.4.4-5.1,1.7-1.5.7-3.4,2.1-4,2.6-.6.4,3.4-1.2,4.8-2ZM554.7,118.9c3.6-4,4.4-5.8,4.4-5.8,0,0-4.2,3.7-6,5.6-1.8,2-2.5,4.6-3,6.4-.3,1.8,3.3-4.5,4.6-6.2ZM575.1,115.4c-3.2.3-6.8,1.8-6.8,1.8,0,0,6.5-.3,9.8-.4,4.4-.2,9.1-1.8,9.1-1.8,0,0-8.8,0-12.1.4ZM554.9,130.9c-.5,0,2.3,1.1,5.1,1.8,2.3,1,4.9.5,4.9.5,0,0-2.7-1.2-4.5-1.8-2.4-.8-5-.5-5.5-.5ZM556.1,144.4s-2.5-.3-4.7-.3-5.4,1.1-5.4,1.1c0,0,3.5-.4,5.6-.4,3.5,0,4.5-.4,4.5-.4ZM553.6,152.3s4.1,3.2,5.7,4.2c2.1,1.4,5,2.2,5,2.2,0,0-2.6-1.9-4.7-3.4-1.9-1.6-6-3-6-3ZM540.6,152.8s3.5,2.3,5.7,3.9c2.2,1.6,6.1,3.8,6.1,3.8,0,0-4.8-4.3-7.2-5.8-2.5-1.5-4.6-1.9-4.6-1.9ZM527.4,155c-1.8-.9-4.9-1.7-4.9-1.7,0,0,.8.7,1.6,1.1.8.5,3,1.8,4.2,2.3s3,1.5,3,1.1c0-.4-2.1-1.9-3.9-2.8ZM535.9,161.3c-1.1-1.4-3.5-2.8-3.5-2.8,0,0,1.9,2.7,2.6,3.4.7.7,2.3,2.9,3.5,3.8,1.2.9,2.6,1.2,2.6,1.2,0,0-1.1-1.1-1.6-1.8-.3-.6-2.4-2.4-3.6-3.8Z" fill="#3e973c"/>
  <path id="asian-cuisine" d="M314.5,159.6l-2.2-5h-7.6l-2.2,5h-3.3l9.3-20.1,9.3,20.1h-3.3ZM305.8,152.1h5.4l-2-4.4c-.1-.3-.2-.6-.4-1-.1-.4-.2-.8-.4-1.2-.1.4-.2.8-.3,1.2-.1.4-.2.7-.4,1l-1.9,4.4ZM319.2,155.8l2.5-1.2c.2.9.7,1.5,1.3,2,.6.5,1.4.7,2.4.7s1.7-.3,2.2-.8.8-1.2.8-2.1-.9-2.1-2.8-3c-.3-.1-.5-.2-.6-.3-2.1-1-3.5-2-4.3-2.8-.7-.8-1.1-1.9-1.1-3.1s.5-2.8,1.6-3.8,2.5-1.5,4.2-1.5,2.6.3,3.6.8,1.6,1.3,2,2.4l-2.4,1.3c-.4-.6-.8-1-1.3-1.3s-1-.4-1.6-.4-1.5.2-2,.7c-.5.4-.7,1-.7,1.8,0,1.2,1.1,2.2,3.3,3.2.2.1.3.1.4.2,1.9.9,3.2,1.7,3.9,2.6.7.8,1.1,1.9,1.1,3.1,0,1.8-.6,3.3-1.7,4.4-1.2,1.1-2.7,1.6-4.7,1.6s-3-.4-4-1.1c-1.1-.9-1.8-2-2.1-3.4ZM335.9,159.6v-19.3h3.1v19.3h-3.1ZM357.1,159.6l-2.2-5h-7.6l-2.2,5h-3.3l9.3-20.1,9.3,20.1h-3.3ZM348.4,152.1h5.4l-2-4.4c-.1-.3-.2-.6-.4-1-.1-.4-.2-.8-.4-1.2-.1.4-.2.8-.3,1.2-.1.4-.2.7-.4,1l-1.9,4.4ZM363,159.6v-20.1l12.3,11.8c.3.3.7.7,1,1.1.3.4.7.8,1.1,1.3v-13.4h2.9v20l-12.5-12c-.3-.3-.7-.7-1-1-.3-.4-.6-.7-.9-1.1v13.4h-2.9ZM408.3,145c-.9-.8-1.8-1.3-2.8-1.7s-2-.6-3.1-.6c-2.1,0-3.8.7-5.1,2-1.3,1.4-2,3.1-2,5.3s.6,3.8,1.9,5.2,2.9,2,4.9,2,2.2-.2,3.3-.6c1-.4,2-1,3-1.8v3.5c-.8.6-1.8,1.1-2.8,1.4-1,.3-2.1.5-3.2.5s-2.8-.2-4.1-.7c-1.3-.5-2.4-1.2-3.3-2.1-.9-.9-1.7-2-2.2-3.3s-.8-2.6-.8-4,.3-2.7.8-4c.5-1.2,1.2-2.3,2.2-3.3,1-.9,2.1-1.7,3.3-2.2,1.2-.5,2.6-.7,4-.7s2.2.2,3.2.5,2,.8,3,1.5l-.2,3.1ZM412.6,140.3h3.1v11.7c0,1.7.4,3,1.2,3.9.8.9,2,1.3,3.6,1.3s2.8-.4,3.6-1.3c.8-.9,1.2-2.2,1.2-3.9v-11.7h3.1v12c0,2.6-.7,4.6-2,5.9-1.3,1.3-3.3,1.9-6,1.9s-4.6-.6-5.9-1.9c-1.3-1.3-2-3.2-2-5.9v-12h0ZM433.6,159.6v-19.3h3.1v19.3h-3.1ZM440.8,155.8l2.5-1.2c.2.9.7,1.5,1.3,2,.6.5,1.4.7,2.4.7s1.7-.3,2.2-.8.8-1.2.8-2.1-.9-2.1-2.8-3c-.3-.1-.5-.2-.6-.3-2.1-1-3.5-2-4.3-2.8-.7-.8-1.1-1.9-1.1-3.1s.5-2.8,1.6-3.8,2.5-1.5,4.2-1.5,2.6.3,3.6.8,1.6,1.3,2,2.4l-2.4,1.3c-.4-.6-.8-1-1.3-1.3s-1-.4-1.6-.4-1.5.2-2,.7c-.5.4-.7,1-.7,1.8,0,1.2,1.1,2.2,3.3,3.2.2.1.3.1.4.2,1.9.9,3.2,1.7,3.9,2.6.7.8,1.1,1.9,1.1,3.1,0,1.8-.6,3.3-1.7,4.4-1.1,1.1-2.7,1.6-4.7,1.6s-3-.4-4-1.1c-1.1-.9-1.8-2-2.1-3.4ZM457.4,159.6v-19.3h3.1v19.3h-3.1ZM465.7,159.6v-20.1l12.3,11.8c.3.3.7.7,1,1.1.3.4.7.8,1.1,1.3v-13.4h2.9v20l-12.5-12c-.3-.3-.7-.7-1-1-.3-.4-.6-.7-.9-1.1v13.4h-2.9ZM488.1,159.6v-19.3h10.8v2.7h-7.6v4.8h7.6v2.8h-7.6v6.2h7.6v2.8h-10.8Z" fill="#00bbd6"/>
</svg>